# Alchemist 丹修
# Xiuxian Character Model

v 0.0000 1.7400 0.0000
v 0.0000 1.7400 0.0000
v 0.0000 1.7400 0.0000
v 0.0000 1.7400 0.0000
v 0.0000 1.7400 0.0000
v 0.0000 1.7400 0.0000
v 0.0000 1.7400 0.0000
v 0.0000 1.7400 0.0000
v 0.1200 1.7078 0.0000
v 0.0849 1.7078 0.0849
v 0.0000 1.7078 0.1200
v -0.0849 1.7078 0.0849
v -0.1200 1.7078 0.0000
v -0.0849 1.7078 -0.0849
v -0.0000 1.7078 -0.1200
v 0.0849 1.7078 -0.0849
v 0.2078 1.6200 0.0000
v 0.1470 1.6200 0.1470
v 0.0000 1.6200 0.2078
v -0.1470 1.6200 0.1470
v -0.2078 1.6200 0.0000
v -0.1470 1.6200 -0.1470
v -0.0000 1.6200 -0.2078
v 0.1470 1.6200 -0.1470
v 0.2400 1.5000 0.0000
v 0.1697 1.5000 0.1697
v 0.0000 1.5000 0.2400
v -0.1697 1.5000 0.1697
v -0.2400 1.5000 0.0000
v -0.1697 1.5000 -0.1697
v -0.0000 1.5000 -0.2400
v 0.1697 1.5000 -0.1697
v 0.2078 1.3800 0.0000
v 0.1470 1.3800 0.1470
v 0.0000 1.3800 0.2078
v -0.1470 1.3800 0.1470
v -0.2078 1.3800 0.0000
v -0.1470 1.3800 -0.1470
v -0.0000 1.3800 -0.2078
v 0.1470 1.3800 -0.1470
v 0.1200 1.2922 0.0000
v 0.0849 1.2922 0.0849
v 0.0000 1.2922 0.1200
v -0.0849 1.2922 0.0849
v -0.1200 1.2922 0.0000
v -0.0849 1.2922 -0.0849
v -0.0000 1.2922 -0.1200
v 0.0849 1.2922 -0.0849
v 0.0000 1.2600 0.0000
v 0.0000 1.2600 0.0000
v 0.0000 1.2600 0.0000
v -0.0000 1.2600 0.0000
v -0.0000 1.2600 0.0000
v -0.0000 1.2600 -0.0000
v -0.0000 1.2600 -0.0000
v 0.0000 1.2600 -0.0000
v 0.2600 1.5500 0.0000
v 0.1838 1.5500 0.1838
v 0.0000 1.5500 0.2600
v -0.1838 1.5500 0.1838
v -0.2600 1.5500 0.0000
v -0.1838 1.5500 -0.1838
v -0.0000 1.5500 -0.2600
v 0.1838 1.5500 -0.1838
v 0.2600 1.6000 0.0000
v 0.1838 1.6000 0.1838
v 0.0000 1.6000 0.2600
v -0.1838 1.6000 0.1838
v -0.2600 1.6000 0.0000
v -0.1838 1.6000 -0.1838
v -0.0000 1.6000 -0.2600
v 0.1838 1.6000 -0.1838
v 0.0000 1.8400 0.0000
v 0.0000 1.8400 0.0000
v 0.0000 1.8400 0.0000
v 0.0000 1.8400 0.0000
v 0.0000 1.8400 0.0000
v 0.0000 1.8400 0.0000
v 0.0849 1.8049 0.0000
v 0.0424 1.8049 0.0735
v -0.0424 1.8049 0.0735
v -0.0849 1.8049 0.0000
v -0.0424 1.8049 -0.0735
v 0.0424 1.8049 -0.0735
v 0.1200 1.7200 0.0000
v 0.0600 1.7200 0.1039
v -0.0600 1.7200 0.1039
v -0.1200 1.7200 0.0000
v -0.0600 1.7200 -0.1039
v 0.0600 1.7200 -0.1039
v 0.0849 1.6351 0.0000
v 0.0424 1.6351 0.0735
v -0.0424 1.6351 0.0735
v -0.0849 1.6351 0.0000
v -0.0424 1.6351 -0.0735
v 0.0424 1.6351 -0.0735
v 0.0000 1.6000 0.0000
v 0.0000 1.6000 0.0000
v -0.0000 1.6000 0.0000
v -0.0000 1.6000 0.0000
v -0.0000 1.6000 -0.0000
v 0.0000 1.6000 -0.0000
v 0.0800 1.7300 -0.0800
v 0.0800 1.7300 -0.0800
v 0.0800 1.7300 -0.0800
v 0.0800 1.7300 -0.0800
v 0.1233 1.7050 -0.0800
v 0.0800 1.7050 -0.0367
v 0.0367 1.7050 -0.0800
v 0.0800 1.7050 -0.1233
v 0.1233 1.6550 -0.0800
v 0.0800 1.6550 -0.0367
v 0.0367 1.6550 -0.0800
v 0.0800 1.6550 -0.1233
v 0.0800 1.6300 -0.0800
v 0.0800 1.6300 -0.0800
v 0.0800 1.6300 -0.0800
v 0.0800 1.6300 -0.0800
v 0.2700 0.9000 0.0000
v 0.1909 0.9000 0.1909
v 0.0000 0.9000 0.2700
v -0.1909 0.9000 0.1909
v -0.2700 0.9000 0.0000
v -0.1909 0.9000 -0.1909
v -0.0000 0.9000 -0.2700
v 0.1909 0.9000 -0.1909
v 0.2700 1.6000 0.0000
v 0.1909 1.6000 0.1909
v 0.0000 1.6000 0.2700
v -0.1909 1.6000 0.1909
v -0.2700 1.6000 0.0000
v -0.1909 1.6000 -0.1909
v -0.0000 1.6000 -0.2700
v 0.1909 1.6000 -0.1909
v 0.0000 0.9000 0.0000
v 0.0000 1.6000 0.0000
v 0.3000 0.3500 0.0000
v 0.2121 0.3500 0.2121
v 0.0000 0.3500 0.3000
v -0.2121 0.3500 0.2121
v -0.3000 0.3500 0.0000
v -0.2121 0.3500 -0.2121
v -0.0000 0.3500 -0.3000
v 0.2121 0.3500 -0.2121
v 0.3000 1.1000 0.0000
v 0.2121 1.1000 0.2121
v 0.0000 1.1000 0.3000
v -0.2121 1.1000 0.2121
v -0.3000 1.1000 0.0000
v -0.2121 1.1000 -0.2121
v -0.0000 1.1000 -0.3000
v 0.2121 1.1000 -0.2121
v 0.0000 0.3500 0.0000
v 0.0000 1.1000 0.0000
v -0.2800 0.9500 0.1500
v -0.3150 0.9500 0.2106
v -0.3850 0.9500 0.2106
v -0.4200 0.9500 0.1500
v -0.3850 0.9500 0.0894
v -0.3150 0.9500 0.0894
v -0.2800 1.4000 0.1500
v -0.3150 1.4000 0.2106
v -0.3850 1.4000 0.2106
v -0.4200 1.4000 0.1500
v -0.3850 1.4000 0.0894
v -0.3150 1.4000 0.0894
v -0.3500 0.9500 0.1500
v -0.3500 1.4000 0.1500
v 0.4200 0.9500 0.1500
v 0.3850 0.9500 0.2106
v 0.3150 0.9500 0.2106
v 0.2800 0.9500 0.1500
v 0.3150 0.9500 0.0894
v 0.3850 0.9500 0.0894
v 0.4200 1.4000 0.1500
v 0.3850 1.4000 0.2106
v 0.3150 1.4000 0.2106
v 0.2800 1.4000 0.1500
v 0.3150 1.4000 0.0894
v 0.3850 1.4000 0.0894
v 0.3500 0.9500 0.1500
v 0.3500 1.4000 0.1500
v -0.3500 0.7700 0.2000
v -0.3500 0.7700 0.2000
v -0.3500 0.7700 0.2000
v -0.3500 0.7700 0.2000
v -0.3500 0.7700 0.2000
v -0.3146 0.7554 0.2000
v -0.3391 0.7554 0.2336
v -0.3786 0.7554 0.2208
v -0.3786 0.7554 0.1792
v -0.3391 0.7554 0.1664
v -0.3000 0.7200 0.2000
v -0.3345 0.7200 0.2476
v -0.3905 0.7200 0.2294
v -0.3905 0.7200 0.1706
v -0.3345 0.7200 0.1524
v -0.3146 0.6846 0.2000
v -0.3391 0.6846 0.2336
v -0.3786 0.6846 0.2208
v -0.3786 0.6846 0.1792
v -0.3391 0.6846 0.1664
v -0.3500 0.6700 0.2000
v -0.3500 0.6700 0.2000
v -0.3500 0.6700 0.2000
v -0.3500 0.6700 0.2000
v -0.3500 0.6700 0.2000
v 0.3500 0.7700 0.2000
v 0.3500 0.7700 0.2000
v 0.3500 0.7700 0.2000
v 0.3500 0.7700 0.2000
v 0.3500 0.7700 0.2000
v 0.3854 0.7554 0.2000
v 0.3609 0.7554 0.2336
v 0.3214 0.7554 0.2208
v 0.3214 0.7554 0.1792
v 0.3609 0.7554 0.1664
v 0.4000 0.7200 0.2000
v 0.3655 0.7200 0.2476
v 0.3095 0.7200 0.2294
v 0.3095 0.7200 0.1706
v 0.3655 0.7200 0.1524
v 0.3854 0.6846 0.2000
v 0.3609 0.6846 0.2336
v 0.3214 0.6846 0.2208
v 0.3214 0.6846 0.1792
v 0.3609 0.6846 0.1664
v 0.3500 0.6700 0.2000
v 0.3500 0.6700 0.2000
v 0.3500 0.6700 0.2000
v 0.3500 0.6700 0.2000
v 0.3500 0.6700 0.2000
v 0.1500 0.5500 0.3500
v 0.1061 0.5500 0.4561
v 0.0000 0.5500 0.5000
v -0.1061 0.5500 0.4561
v -0.1500 0.5500 0.3500
v -0.1061 0.5500 0.2439
v -0.0000 0.5500 0.2000
v 0.1061 0.5500 0.2439
v 0.1500 0.8000 0.3500
v 0.1061 0.8000 0.4561
v 0.0000 0.8000 0.5000
v -0.1061 0.8000 0.4561
v -0.1500 0.8000 0.3500
v -0.1061 0.8000 0.2439
v -0.0000 0.8000 0.2000
v 0.1061 0.8000 0.2439
v 0.0000 0.5500 0.3500
v 0.0000 0.8000 0.3500
v 0.1800 0.8000 0.3500
v 0.1273 0.8000 0.4773
v 0.0000 0.8000 0.5300
v -0.1273 0.8000 0.4773
v -0.1800 0.8000 0.3500
v -0.1273 0.8000 0.2227
v -0.0000 0.8000 0.1700
v 0.1273 0.8000 0.2227
v 0.1800 0.8800 0.3500
v 0.1273 0.8800 0.4773
v 0.0000 0.8800 0.5300
v -0.1273 0.8800 0.4773
v -0.1800 0.8800 0.3500
v -0.1273 0.8800 0.2227
v -0.0000 0.8800 0.1700
v 0.1273 0.8800 0.2227
v 0.0000 0.8800 0.3500
v -0.3100 0.7600 0.0600
v -0.1900 0.7600 0.0600
v -0.1900 0.9400 0.0600
v -0.3100 0.9400 0.0600
v -0.3100 0.7600 0.1400
v -0.1900 0.7600 0.1400
v -0.1900 0.9400 0.1400
v -0.3100 0.9400 0.1400
v -0.1600 0.0000 -0.0900
v -0.0400 0.0000 -0.0900
v -0.0400 0.0800 -0.0900
v -0.1600 0.0800 -0.0900
v -0.1600 0.0000 0.0900
v -0.0400 0.0000 0.0900
v -0.0400 0.0800 0.0900
v -0.1600 0.0800 0.0900
v 0.0400 0.0000 -0.0900
v 0.1600 0.0000 -0.0900
v 0.1600 0.0800 -0.0900
v 0.0400 0.0800 -0.0900
v 0.0400 0.0000 0.0900
v 0.1600 0.0000 0.0900
v 0.1600 0.0800 0.0900
v 0.0400 0.0800 0.0900

f 1 10 9
f 2 11 10
f 3 12 11
f 4 13 12
f 5 14 13
f 6 15 14
f 7 16 15
f 8 9 16
f 9 10 18
f 9 18 17
f 10 11 19
f 10 19 18
f 11 12 20
f 11 20 19
f 12 13 21
f 12 21 20
f 13 14 22
f 13 22 21
f 14 15 23
f 14 23 22
f 15 16 24
f 15 24 23
f 16 9 17
f 16 17 24
f 17 18 26
f 17 26 25
f 18 19 27
f 18 27 26
f 19 20 28
f 19 28 27
f 20 21 29
f 20 29 28
f 21 22 30
f 21 30 29
f 22 23 31
f 22 31 30
f 23 24 32
f 23 32 31
f 24 17 25
f 24 25 32
f 25 26 34
f 25 34 33
f 26 27 35
f 26 35 34
f 27 28 36
f 27 36 35
f 28 29 37
f 28 37 36
f 29 30 38
f 29 38 37
f 30 31 39
f 30 39 38
f 31 32 40
f 31 40 39
f 32 25 33
f 32 33 40
f 33 34 42
f 33 42 41
f 34 35 43
f 34 43 42
f 35 36 44
f 35 44 43
f 36 37 45
f 36 45 44
f 37 38 46
f 37 46 45
f 38 39 47
f 38 47 46
f 39 40 48
f 39 48 47
f 40 33 41
f 40 41 48
f 41 42 50
f 42 43 51
f 43 44 52
f 44 45 53
f 45 46 54
f 46 47 55
f 47 48 56
f 48 41 49
f 57 58 66
f 57 66 65
f 58 59 67
f 58 67 66
f 59 60 68
f 59 68 67
f 60 61 69
f 60 69 68
f 61 62 70
f 61 70 69
f 62 63 71
f 62 71 70
f 63 64 72
f 63 72 71
f 64 57 65
f 64 65 72
f 1 8 7
f 2 9 8
f 3 10 9
f 4 11 10
f 5 12 11
f 6 7 12
f 7 8 14
f 7 14 13
f 8 9 15
f 8 15 14
f 9 10 16
f 9 16 15
f 10 11 17
f 10 17 16
f 11 12 18
f 11 18 17
f 12 7 13
f 12 13 18
f 13 14 20
f 13 20 19
f 14 15 21
f 14 21 20
f 15 16 22
f 15 22 21
f 16 17 23
f 16 23 22
f 17 18 24
f 17 24 23
f 18 13 19
f 18 19 24
f 19 20 26
f 20 21 27
f 21 22 28
f 22 23 29
f 23 24 30
f 24 19 25
f 1 6 5
f 2 7 6
f 3 8 7
f 4 5 8
f 5 6 10
f 5 10 9
f 6 7 11
f 6 11 10
f 7 8 12
f 7 12 11
f 8 5 9
f 8 9 12
f 9 10 14
f 10 11 15
f 11 12 16
f 12 9 13
f 119 120 128
f 119 128 127
f 120 121 129
f 120 129 128
f 121 122 130
f 121 130 129
f 122 123 131
f 122 131 130
f 123 124 132
f 123 132 131
f 124 125 133
f 124 133 132
f 125 126 134
f 125 134 133
f 126 119 127
f 126 127 134
f 135 120 119
f 135 121 120
f 135 122 121
f 135 123 122
f 135 124 123
f 135 125 124
f 135 126 125
f 135 119 126
f 136 127 128
f 136 128 129
f 136 129 130
f 136 130 131
f 136 131 132
f 136 132 133
f 136 133 134
f 136 134 127
f 137 138 146
f 137 146 145
f 138 139 147
f 138 147 146
f 139 140 148
f 139 148 147
f 140 141 149
f 140 149 148
f 141 142 150
f 141 150 149
f 142 143 151
f 142 151 150
f 143 144 152
f 143 152 151
f 144 137 145
f 144 145 152
f 153 138 137
f 153 139 138
f 153 140 139
f 153 141 140
f 153 142 141
f 153 143 142
f 153 144 143
f 153 137 144
f 154 145 146
f 154 146 147
f 154 147 148
f 154 148 149
f 154 149 150
f 154 150 151
f 154 151 152
f 154 152 145
f 155 156 162
f 155 162 161
f 156 157 163
f 156 163 162
f 157 158 164
f 157 164 163
f 158 159 165
f 158 165 164
f 159 160 166
f 159 166 165
f 160 155 161
f 160 161 166
f 167 156 155
f 167 157 156
f 167 158 157
f 167 159 158
f 167 160 159
f 167 155 160
f 168 161 162
f 168 162 163
f 168 163 164
f 168 164 165
f 168 165 166
f 168 166 161
f 169 170 176
f 169 176 175
f 170 171 177
f 170 177 176
f 171 172 178
f 171 178 177
f 172 173 179
f 172 179 178
f 173 174 180
f 173 180 179
f 174 169 175
f 174 175 180
f 181 170 169
f 181 171 170
f 181 172 171
f 181 173 172
f 181 174 173
f 181 169 174
f 182 175 176
f 182 176 177
f 182 177 178
f 182 178 179
f 182 179 180
f 182 180 175
f 1 7 6
f 2 8 7
f 3 9 8
f 4 10 9
f 5 6 10
f 6 7 12
f 6 12 11
f 7 8 13
f 7 13 12
f 8 9 14
f 8 14 13
f 9 10 15
f 9 15 14
f 10 6 11
f 10 11 15
f 11 12 17
f 11 17 16
f 12 13 18
f 12 18 17
f 13 14 19
f 13 19 18
f 14 15 20
f 14 20 19
f 15 11 16
f 15 16 20
f 16 17 22
f 17 18 23
f 18 19 24
f 19 20 25
f 20 16 21
f 1 7 6
f 2 8 7
f 3 9 8
f 4 10 9
f 5 6 10
f 6 7 12
f 6 12 11
f 7 8 13
f 7 13 12
f 8 9 14
f 8 14 13
f 9 10 15
f 9 15 14
f 10 6 11
f 10 11 15
f 11 12 17
f 11 17 16
f 12 13 18
f 12 18 17
f 13 14 19
f 13 19 18
f 14 15 20
f 14 20 19
f 15 11 16
f 15 16 20
f 16 17 22
f 17 18 23
f 18 19 24
f 19 20 25
f 20 16 21
f 233 234 242
f 233 242 241
f 234 235 243
f 234 243 242
f 235 236 244
f 235 244 243
f 236 237 245
f 236 245 244
f 237 238 246
f 237 246 245
f 238 239 247
f 238 247 246
f 239 240 248
f 239 248 247
f 240 233 241
f 240 241 248
f 249 234 233
f 249 235 234
f 249 236 235
f 249 237 236
f 249 238 237
f 249 239 238
f 249 240 239
f 249 233 240
f 250 241 242
f 250 242 243
f 250 243 244
f 250 244 245
f 250 245 246
f 250 246 247
f 250 247 248
f 250 248 241
f 251 252 260
f 251 260 259
f 252 253 261
f 252 261 260
f 253 254 262
f 253 262 261
f 254 255 263
f 254 263 262
f 255 256 264
f 255 264 263
f 256 257 265
f 256 265 264
f 257 258 266
f 257 266 265
f 258 251 259
f 258 259 266
f 267 259 260
f 267 260 261
f 267 261 262
f 267 262 263
f 267 263 264
f 267 264 265
f 267 265 266
f 267 266 259
f 272 273 274
f 272 274 275
f 269 268 271
f 269 271 270
f 268 272 275
f 268 275 271
f 273 269 270
f 273 270 274
f 271 275 274
f 271 274 270
f 268 269 273
f 268 273 272
f 280 281 282
f 280 282 283
f 277 276 279
f 277 279 278
f 276 280 283
f 276 283 279
f 281 277 278
f 281 278 282
f 279 283 282
f 279 282 278
f 276 277 281
f 276 281 280
f 288 289 290
f 288 290 291
f 285 284 287
f 285 287 286
f 284 288 291
f 284 291 287
f 289 285 286
f 289 286 290
f 287 291 290
f 287 290 286
f 284 285 289
f 284 289 288
