# Body Cultivator 体修
# Xiuxian Character Model

v 0.0000 1.6700 0.0000
v 0.0000 1.6700 0.0000
v 0.0000 1.6700 0.0000
v 0.0000 1.6700 0.0000
v 0.0000 1.6700 0.0000
v 0.0000 1.6700 0.0000
v 0.0000 1.6700 0.0000
v 0.0000 1.6700 0.0000
v 0.1350 1.6338 0.0000
v 0.0955 1.6338 0.0955
v 0.0000 1.6338 0.1350
v -0.0955 1.6338 0.0955
v -0.1350 1.6338 0.0000
v -0.0955 1.6338 -0.0955
v -0.0000 1.6338 -0.1350
v 0.0955 1.6338 -0.0955
v 0.2338 1.5350 0.0000
v 0.1653 1.5350 0.1653
v 0.0000 1.5350 0.2338
v -0.1653 1.5350 0.1653
v -0.2338 1.5350 0.0000
v -0.1653 1.5350 -0.1653
v -0.0000 1.5350 -0.2338
v 0.1653 1.5350 -0.1653
v 0.2700 1.4000 0.0000
v 0.1909 1.4000 0.1909
v 0.0000 1.4000 0.2700
v -0.1909 1.4000 0.1909
v -0.2700 1.4000 0.0000
v -0.1909 1.4000 -0.1909
v -0.0000 1.4000 -0.2700
v 0.1909 1.4000 -0.1909
v 0.2338 1.2650 0.0000
v 0.1653 1.2650 0.1653
v 0.0000 1.2650 0.2338
v -0.1653 1.2650 0.1653
v -0.2338 1.2650 0.0000
v -0.1653 1.2650 -0.1653
v -0.0000 1.2650 -0.2338
v 0.1653 1.2650 -0.1653
v 0.1350 1.1662 0.0000
v 0.0955 1.1662 0.0955
v 0.0000 1.1662 0.1350
v -0.0955 1.1662 0.0955
v -0.1350 1.1662 0.0000
v -0.0955 1.1662 -0.0955
v -0.0000 1.1662 -0.1350
v 0.0955 1.1662 -0.0955
v 0.0000 1.1300 0.0000
v 0.0000 1.1300 0.0000
v 0.0000 1.1300 0.0000
v -0.0000 1.1300 0.0000
v -0.0000 1.1300 0.0000
v -0.0000 1.1300 -0.0000
v -0.0000 1.1300 -0.0000
v 0.0000 1.1300 -0.0000
v 0.0000 1.7300 0.0000
v 0.0000 1.7300 0.0000
v 0.0000 1.7300 0.0000
v 0.0000 1.7300 0.0000
v 0.0000 1.7300 0.0000
v 0.0000 1.7300 0.0000
v 0.1061 1.6861 0.0000
v 0.0530 1.6861 0.0919
v -0.0530 1.6861 0.0919
v -0.1061 1.6861 0.0000
v -0.0530 1.6861 -0.0919
v 0.0530 1.6861 -0.0919
v 0.1500 1.5800 0.0000
v 0.0750 1.5800 0.1299
v -0.0750 1.5800 0.1299
v -0.1500 1.5800 0.0000
v -0.0750 1.5800 -0.1299
v 0.0750 1.5800 -0.1299
v 0.1061 1.4739 0.0000
v 0.0530 1.4739 0.0919
v -0.0530 1.4739 0.0919
v -0.1061 1.4739 0.0000
v -0.0530 1.4739 -0.0919
v 0.0530 1.4739 -0.0919
v 0.0000 1.4300 0.0000
v 0.0000 1.4300 0.0000
v -0.0000 1.4300 0.0000
v -0.0000 1.4300 0.0000
v -0.0000 1.4300 -0.0000
v 0.0000 1.4300 -0.0000
v 0.1500 1.1500 0.0000
v 0.1061 1.1500 0.1061
v 0.0000 1.1500 0.1500
v -0.1061 1.1500 0.1061
v -0.1500 1.1500 0.0000
v -0.1061 1.1500 -0.1061
v -0.0000 1.1500 -0.1500
v 0.1061 1.1500 -0.1061
v 0.1500 1.2700 0.0000
v 0.1061 1.2700 0.1061
v 0.0000 1.2700 0.1500
v -0.1061 1.2700 0.1061
v -0.1500 1.2700 0.0000
v -0.1061 1.2700 -0.1061
v -0.0000 1.2700 -0.1500
v 0.1061 1.2700 -0.1061
v 0.0000 1.1500 0.0000
v 0.0000 1.2700 0.0000
v 0.3200 0.8000 0.0000
v 0.2263 0.8000 0.2263
v 0.0000 0.8000 0.3200
v -0.2263 0.8000 0.2263
v -0.3200 0.8000 0.0000
v -0.2263 0.8000 -0.2263
v -0.0000 0.8000 -0.3200
v 0.2263 0.8000 -0.2263
v 0.3200 1.4000 0.0000
v 0.2263 1.4000 0.2263
v 0.0000 1.4000 0.3200
v -0.2263 1.4000 0.2263
v -0.3200 1.4000 0.0000
v -0.2263 1.4000 -0.2263
v -0.0000 1.4000 -0.3200
v 0.2263 1.4000 -0.2263
v 0.0000 0.8000 0.0000
v 0.0000 1.4000 0.0000
v 0.3000 0.5800 0.0000
v 0.2121 0.5800 0.2121
v 0.0000 0.5800 0.3000
v -0.2121 0.5800 0.2121
v -0.3000 0.5800 0.0000
v -0.2121 0.5800 -0.2121
v -0.0000 0.5800 -0.3000
v 0.2121 0.5800 -0.2121
v 0.3000 0.6800 0.0000
v 0.2121 0.6800 0.2121
v 0.0000 0.6800 0.3000
v -0.2121 0.6800 0.2121
v -0.3000 0.6800 0.0000
v -0.2121 0.6800 -0.2121
v -0.0000 0.6800 -0.3000
v 0.2121 0.6800 -0.2121
v 0.2500 0.3000 0.0000
v 0.1768 0.3000 0.1768
v 0.0000 0.3000 0.2500
v -0.1768 0.3000 0.1768
v -0.2500 0.3000 0.0000
v -0.1768 0.3000 -0.1768
v -0.0000 0.3000 -0.2500
v 0.1768 0.3000 -0.1768
v 0.2500 0.8500 0.0000
v 0.1768 0.8500 0.1768
v 0.0000 0.8500 0.2500
v -0.1768 0.8500 0.1768
v -0.2500 0.8500 0.0000
v -0.1768 0.8500 -0.1768
v -0.0000 0.8500 -0.2500
v 0.1768 0.8500 -0.1768
v 0.0000 0.3000 0.0000
v 0.0000 0.8500 0.0000
v -0.3000 0.8500 0.0000
v -0.3500 0.8500 0.0866
v -0.4500 0.8500 0.0866
v -0.5000 0.8500 0.0000
v -0.4500 0.8500 -0.0866
v -0.3500 0.8500 -0.0866
v -0.3000 1.3500 0.0000
v -0.3500 1.3500 0.0866
v -0.4500 1.3500 0.0866
v -0.5000 1.3500 0.0000
v -0.4500 1.3500 -0.0866
v -0.3500 1.3500 -0.0866
v -0.4000 0.8500 0.0000
v -0.4000 1.3500 0.0000
v 0.5000 0.8500 0.0000
v 0.4500 0.8500 0.0866
v 0.3500 0.8500 0.0866
v 0.3000 0.8500 0.0000
v 0.3500 0.8500 -0.0866
v 0.4500 0.8500 -0.0866
v 0.5000 1.3500 0.0000
v 0.4500 1.3500 0.0866
v 0.3500 1.3500 0.0866
v 0.3000 1.3500 0.0000
v 0.3500 1.3500 -0.0866
v 0.4500 1.3500 -0.0866
v 0.4000 0.8500 0.0000
v 0.4000 1.3500 0.0000
v -0.3100 0.5500 0.0000
v -0.3550 0.5500 0.0779
v -0.4450 0.5500 0.0779
v -0.4900 0.5500 0.0000
v -0.4450 0.5500 -0.0779
v -0.3550 0.5500 -0.0779
v -0.3100 0.9000 0.0000
v -0.3550 0.9000 0.0779
v -0.4450 0.9000 0.0779
v -0.4900 0.9000 0.0000
v -0.4450 0.9000 -0.0779
v -0.3550 0.9000 -0.0779
v -0.4000 0.5500 0.0000
v -0.4000 0.9000 0.0000
v 0.4900 0.5500 0.0000
v 0.4450 0.5500 0.0779
v 0.3550 0.5500 0.0779
v 0.3100 0.5500 0.0000
v 0.3550 0.5500 -0.0779
v 0.4450 0.5500 -0.0779
v 0.4900 0.9000 0.0000
v 0.4450 0.9000 0.0779
v 0.3550 0.9000 0.0779
v 0.3100 0.9000 0.0000
v 0.3550 0.9000 -0.0779
v 0.4450 0.9000 -0.0779
v 0.4000 0.5500 0.0000
v 0.4000 0.9000 0.0000
v -0.4000 0.4300 0.0000
v -0.4000 0.4300 0.0000
v -0.4000 0.4300 0.0000
v -0.4000 0.4300 0.0000
v -0.4000 0.4300 0.0000
v -0.3434 0.4066 0.0000
v -0.3825 0.4066 0.0538
v -0.4458 0.4066 0.0333
v -0.4458 0.4066 -0.0333
v -0.3825 0.4066 -0.0538
v -0.3200 0.3500 0.0000
v -0.3753 0.3500 0.0761
v -0.4647 0.3500 0.0470
v -0.4647 0.3500 -0.0470
v -0.3753 0.3500 -0.0761
v -0.3434 0.2934 0.0000
v -0.3825 0.2934 0.0538
v -0.4458 0.2934 0.0333
v -0.4458 0.2934 -0.0333
v -0.3825 0.2934 -0.0538
v -0.4000 0.2700 0.0000
v -0.4000 0.2700 0.0000
v -0.4000 0.2700 0.0000
v -0.4000 0.2700 -0.0000
v -0.4000 0.2700 -0.0000
v 0.4000 0.4300 0.0000
v 0.4000 0.4300 0.0000
v 0.4000 0.4300 0.0000
v 0.4000 0.4300 0.0000
v 0.4000 0.4300 0.0000
v 0.4566 0.4066 0.0000
v 0.4175 0.4066 0.0538
v 0.3542 0.4066 0.0333
v 0.3542 0.4066 -0.0333
v 0.4175 0.4066 -0.0538
v 0.4800 0.3500 0.0000
v 0.4247 0.3500 0.0761
v 0.3353 0.3500 0.0470
v 0.3353 0.3500 -0.0470
v 0.4247 0.3500 -0.0761
v 0.4566 0.2934 0.0000
v 0.4175 0.2934 0.0538
v 0.3542 0.2934 0.0333
v 0.3542 0.2934 -0.0333
v 0.4175 0.2934 -0.0538
v 0.4000 0.2700 0.0000
v 0.4000 0.2700 0.0000
v 0.4000 0.2700 0.0000
v 0.4000 0.2700 -0.0000
v 0.4000 0.2700 -0.0000
v -0.1900 0.0000 -0.1000
v -0.0500 0.0000 -0.1000
v -0.0500 0.1000 -0.1000
v -0.1900 0.1000 -0.1000
v -0.1900 0.0000 0.1400
v -0.0500 0.0000 0.1400
v -0.0500 0.1000 0.1400
v -0.1900 0.1000 0.1400
v 0.0500 0.0000 -0.1000
v 0.1900 0.0000 -0.1000
v 0.1900 0.1000 -0.1000
v 0.0500 0.1000 -0.1000
v 0.0500 0.0000 0.1400
v 0.1900 0.0000 0.1400
v 0.1900 0.1000 0.1400
v 0.0500 0.1000 0.1400

f 1 10 9
f 2 11 10
f 3 12 11
f 4 13 12
f 5 14 13
f 6 15 14
f 7 16 15
f 8 9 16
f 9 10 18
f 9 18 17
f 10 11 19
f 10 19 18
f 11 12 20
f 11 20 19
f 12 13 21
f 12 21 20
f 13 14 22
f 13 22 21
f 14 15 23
f 14 23 22
f 15 16 24
f 15 24 23
f 16 9 17
f 16 17 24
f 17 18 26
f 17 26 25
f 18 19 27
f 18 27 26
f 19 20 28
f 19 28 27
f 20 21 29
f 20 29 28
f 21 22 30
f 21 30 29
f 22 23 31
f 22 31 30
f 23 24 32
f 23 32 31
f 24 17 25
f 24 25 32
f 25 26 34
f 25 34 33
f 26 27 35
f 26 35 34
f 27 28 36
f 27 36 35
f 28 29 37
f 28 37 36
f 29 30 38
f 29 38 37
f 30 31 39
f 30 39 38
f 31 32 40
f 31 40 39
f 32 25 33
f 32 33 40
f 33 34 42
f 33 42 41
f 34 35 43
f 34 43 42
f 35 36 44
f 35 44 43
f 36 37 45
f 36 45 44
f 37 38 46
f 37 46 45
f 38 39 47
f 38 47 46
f 39 40 48
f 39 48 47
f 40 33 41
f 40 41 48
f 41 42 50
f 42 43 51
f 43 44 52
f 44 45 53
f 45 46 54
f 46 47 55
f 47 48 56
f 48 41 49
f 1 8 7
f 2 9 8
f 3 10 9
f 4 11 10
f 5 12 11
f 6 7 12
f 7 8 14
f 7 14 13
f 8 9 15
f 8 15 14
f 9 10 16
f 9 16 15
f 10 11 17
f 10 17 16
f 11 12 18
f 11 18 17
f 12 7 13
f 12 13 18
f 13 14 20
f 13 20 19
f 14 15 21
f 14 21 20
f 15 16 22
f 15 22 21
f 16 17 23
f 16 23 22
f 17 18 24
f 17 24 23
f 18 13 19
f 18 19 24
f 19 20 26
f 20 21 27
f 21 22 28
f 22 23 29
f 23 24 30
f 24 19 25
f 87 88 96
f 87 96 95
f 88 89 97
f 88 97 96
f 89 90 98
f 89 98 97
f 90 91 99
f 90 99 98
f 91 92 100
f 91 100 99
f 92 93 101
f 92 101 100
f 93 94 102
f 93 102 101
f 94 87 95
f 94 95 102
f 103 88 87
f 103 89 88
f 103 90 89
f 103 91 90
f 103 92 91
f 103 93 92
f 103 94 93
f 103 87 94
f 104 95 96
f 104 96 97
f 104 97 98
f 104 98 99
f 104 99 100
f 104 100 101
f 104 101 102
f 104 102 95
f 105 106 114
f 105 114 113
f 106 107 115
f 106 115 114
f 107 108 116
f 107 116 115
f 108 109 117
f 108 117 116
f 109 110 118
f 109 118 117
f 110 111 119
f 110 119 118
f 111 112 120
f 111 120 119
f 112 105 113
f 112 113 120
f 121 106 105
f 121 107 106
f 121 108 107
f 121 109 108
f 121 110 109
f 121 111 110
f 121 112 111
f 121 105 112
f 122 113 114
f 122 114 115
f 122 115 116
f 122 116 117
f 122 117 118
f 122 118 119
f 122 119 120
f 122 120 113
f 123 124 132
f 123 132 131
f 124 125 133
f 124 133 132
f 125 126 134
f 125 134 133
f 126 127 135
f 126 135 134
f 127 128 136
f 127 136 135
f 128 129 137
f 128 137 136
f 129 130 138
f 129 138 137
f 130 123 131
f 130 131 138
f 139 140 148
f 139 148 147
f 140 141 149
f 140 149 148
f 141 142 150
f 141 150 149
f 142 143 151
f 142 151 150
f 143 144 152
f 143 152 151
f 144 145 153
f 144 153 152
f 145 146 154
f 145 154 153
f 146 139 147
f 146 147 154
f 155 140 139
f 155 141 140
f 155 142 141
f 155 143 142
f 155 144 143
f 155 145 144
f 155 146 145
f 155 139 146
f 156 147 148
f 156 148 149
f 156 149 150
f 156 150 151
f 156 151 152
f 156 152 153
f 156 153 154
f 156 154 147
f 157 158 164
f 157 164 163
f 158 159 165
f 158 165 164
f 159 160 166
f 159 166 165
f 160 161 167
f 160 167 166
f 161 162 168
f 161 168 167
f 162 157 163
f 162 163 168
f 169 158 157
f 169 159 158
f 169 160 159
f 169 161 160
f 169 162 161
f 169 157 162
f 170 163 164
f 170 164 165
f 170 165 166
f 170 166 167
f 170 167 168
f 170 168 163
f 171 172 178
f 171 178 177
f 172 173 179
f 172 179 178
f 173 174 180
f 173 180 179
f 174 175 181
f 174 181 180
f 175 176 182
f 175 182 181
f 176 171 177
f 176 177 182
f 183 172 171
f 183 173 172
f 183 174 173
f 183 175 174
f 183 176 175
f 183 171 176
f 184 177 178
f 184 178 179
f 184 179 180
f 184 180 181
f 184 181 182
f 184 182 177
f 185 186 192
f 185 192 191
f 186 187 193
f 186 193 192
f 187 188 194
f 187 194 193
f 188 189 195
f 188 195 194
f 189 190 196
f 189 196 195
f 190 185 191
f 190 191 196
f 197 186 185
f 197 187 186
f 197 188 187
f 197 189 188
f 197 190 189
f 197 185 190
f 198 191 192
f 198 192 193
f 198 193 194
f 198 194 195
f 198 195 196
f 198 196 191
f 199 200 206
f 199 206 205
f 200 201 207
f 200 207 206
f 201 202 208
f 201 208 207
f 202 203 209
f 202 209 208
f 203 204 210
f 203 210 209
f 204 199 205
f 204 205 210
f 211 200 199
f 211 201 200
f 211 202 201
f 211 203 202
f 211 204 203
f 211 199 204
f 212 205 206
f 212 206 207
f 212 207 208
f 212 208 209
f 212 209 210
f 212 210 205
f 1 7 6
f 2 8 7
f 3 9 8
f 4 10 9
f 5 6 10
f 6 7 12
f 6 12 11
f 7 8 13
f 7 13 12
f 8 9 14
f 8 14 13
f 9 10 15
f 9 15 14
f 10 6 11
f 10 11 15
f 11 12 17
f 11 17 16
f 12 13 18
f 12 18 17
f 13 14 19
f 13 19 18
f 14 15 20
f 14 20 19
f 15 11 16
f 15 16 20
f 16 17 22
f 17 18 23
f 18 19 24
f 19 20 25
f 20 16 21
f 1 7 6
f 2 8 7
f 3 9 8
f 4 10 9
f 5 6 10
f 6 7 12
f 6 12 11
f 7 8 13
f 7 13 12
f 8 9 14
f 8 14 13
f 9 10 15
f 9 15 14
f 10 6 11
f 10 11 15
f 11 12 17
f 11 17 16
f 12 13 18
f 12 18 17
f 13 14 19
f 13 19 18
f 14 15 20
f 14 20 19
f 15 11 16
f 15 16 20
f 16 17 22
f 17 18 23
f 18 19 24
f 19 20 25
f 20 16 21
f 267 268 269
f 267 269 270
f 264 263 266
f 264 266 265
f 263 267 270
f 263 270 266
f 268 264 265
f 268 265 269
f 266 270 269
f 266 269 265
f 263 264 268
f 263 268 267
f 275 276 277
f 275 277 278
f 272 271 274
f 272 274 273
f 271 275 278
f 271 278 274
f 276 272 273
f 276 273 277
f 274 278 277
f 274 277 273
f 271 272 276
f 271 276 275
