# Cultivator Male 男修士
# Xiuxian Character Model

v 0.0000 1.8500 0.0000
v 0.0000 1.8500 0.0000
v 0.0000 1.8500 0.0000
v 0.0000 1.8500 0.0000
v 0.0000 1.8500 0.0000
v 0.0000 1.8500 0.0000
v 0.0000 1.8500 0.0000
v 0.0000 1.8500 0.0000
v 0.1250 1.8165 0.0000
v 0.0884 1.8165 0.0884
v 0.0000 1.8165 0.1250
v -0.0884 1.8165 0.0884
v -0.1250 1.8165 0.0000
v -0.0884 1.8165 -0.0884
v -0.0000 1.8165 -0.1250
v 0.0884 1.8165 -0.0884
v 0.2165 1.7250 0.0000
v 0.1531 1.7250 0.1531
v 0.0000 1.7250 0.2165
v -0.1531 1.7250 0.1531
v -0.2165 1.7250 0.0000
v -0.1531 1.7250 -0.1531
v -0.0000 1.7250 -0.2165
v 0.1531 1.7250 -0.1531
v 0.2500 1.6000 0.0000
v 0.1768 1.6000 0.1768
v 0.0000 1.6000 0.2500
v -0.1768 1.6000 0.1768
v -0.2500 1.6000 0.0000
v -0.1768 1.6000 -0.1768
v -0.0000 1.6000 -0.2500
v 0.1768 1.6000 -0.1768
v 0.2165 1.4750 0.0000
v 0.1531 1.4750 0.1531
v 0.0000 1.4750 0.2165
v -0.1531 1.4750 0.1531
v -0.2165 1.4750 0.0000
v -0.1531 1.4750 -0.1531
v -0.0000 1.4750 -0.2165
v 0.1531 1.4750 -0.1531
v 0.1250 1.3835 0.0000
v 0.0884 1.3835 0.0884
v 0.0000 1.3835 0.1250
v -0.0884 1.3835 0.0884
v -0.1250 1.3835 0.0000
v -0.0884 1.3835 -0.0884
v -0.0000 1.3835 -0.1250
v 0.0884 1.3835 -0.0884
v 0.0000 1.3500 0.0000
v 0.0000 1.3500 0.0000
v 0.0000 1.3500 0.0000
v -0.0000 1.3500 0.0000
v -0.0000 1.3500 0.0000
v -0.0000 1.3500 -0.0000
v -0.0000 1.3500 -0.0000
v 0.0000 1.3500 -0.0000
v 0.1200 1.8500 -0.0500
v 0.0849 1.8500 0.0349
v 0.0000 1.8500 0.0700
v -0.0849 1.8500 0.0349
v -0.1200 1.8500 -0.0500
v -0.0849 1.8500 -0.1349
v -0.0000 1.8500 -0.1700
v 0.0849 1.8500 -0.1349
v 0.1200 2.1500 -0.0500
v 0.0849 2.1500 0.0349
v 0.0000 2.1500 0.0700
v -0.0849 2.1500 0.0349
v -0.1200 2.1500 -0.0500
v -0.0849 2.1500 -0.1349
v -0.0000 2.1500 -0.1700
v 0.0849 2.1500 -0.1349
v 0.0000 1.8500 -0.0500
v 0.0000 2.1500 -0.0500
v 0.0000 2.2300 -0.0500
v 0.0000 2.2300 -0.0500
v 0.0000 2.2300 -0.0500
v 0.0000 2.2300 -0.0500
v 0.0000 2.2300 -0.0500
v 0.0000 2.2300 -0.0500
v 0.0566 2.2066 -0.0500
v 0.0283 2.2066 -0.0010
v -0.0283 2.2066 -0.0010
v -0.0566 2.2066 -0.0500
v -0.0283 2.2066 -0.0990
v 0.0283 2.2066 -0.0990
v 0.0800 2.1500 -0.0500
v 0.0400 2.1500 0.0193
v -0.0400 2.1500 0.0193
v -0.0800 2.1500 -0.0500
v -0.0400 2.1500 -0.1193
v 0.0400 2.1500 -0.1193
v 0.0566 2.0934 -0.0500
v 0.0283 2.0934 -0.0010
v -0.0283 2.0934 -0.0010
v -0.0566 2.0934 -0.0500
v -0.0283 2.0934 -0.0990
v 0.0283 2.0934 -0.0990
v 0.0000 2.0700 -0.0500
v 0.0000 2.0700 -0.0500
v -0.0000 2.0700 -0.0500
v -0.0000 2.0700 -0.0500
v -0.0000 2.0700 -0.0500
v 0.0000 2.0700 -0.0500
v 0.2800 0.9500 0.0000
v 0.1980 0.9500 0.1980
v 0.0000 0.9500 0.2800
v -0.1980 0.9500 0.1980
v -0.2800 0.9500 0.0000
v -0.1980 0.9500 -0.1980
v -0.0000 0.9500 -0.2800
v 0.1980 0.9500 -0.1980
v 0.2800 1.7500 0.0000
v 0.1980 1.7500 0.1980
v 0.0000 1.7500 0.2800
v -0.1980 1.7500 0.1980
v -0.2800 1.7500 0.0000
v -0.1980 1.7500 -0.1980
v -0.0000 1.7500 -0.2800
v 0.1980 1.7500 -0.1980
v 0.0000 0.9500 0.0000
v 0.0000 1.7500 0.0000
v 0.3200 0.3500 0.0000
v 0.2263 0.3500 0.2263
v 0.0000 0.3500 0.3200
v -0.2263 0.3500 0.2263
v -0.3200 0.3500 0.0000
v -0.2263 0.3500 -0.2263
v -0.0000 0.3500 -0.3200
v 0.2263 0.3500 -0.2263
v 0.3200 1.0500 0.0000
v 0.2263 1.0500 0.2263
v 0.0000 1.0500 0.3200
v -0.2263 1.0500 0.2263
v -0.3200 1.0500 0.0000
v -0.2263 1.0500 -0.2263
v -0.0000 1.0500 -0.3200
v 0.2263 1.0500 -0.2263
v 0.0000 0.3500 0.0000
v 0.0000 1.0500 0.0000
v -0.2700 1.0000 0.0000
v -0.3100 1.0000 0.0693
v -0.3900 1.0000 0.0693
v -0.4300 1.0000 0.0000
v -0.3900 1.0000 -0.0693
v -0.3100 1.0000 -0.0693
v -0.2700 1.6000 0.0000
v -0.3100 1.6000 0.0693
v -0.3900 1.6000 0.0693
v -0.4300 1.6000 0.0000
v -0.3900 1.6000 -0.0693
v -0.3100 1.6000 -0.0693
v -0.3500 1.0000 0.0000
v -0.3500 1.6000 0.0000
v 0.4300 1.0000 0.0000
v 0.3900 1.0000 0.0693
v 0.3100 1.0000 0.0693
v 0.2700 1.0000 0.0000
v 0.3100 1.0000 -0.0693
v 0.3900 1.0000 -0.0693
v 0.4300 1.6000 0.0000
v 0.3900 1.6000 0.0693
v 0.3100 1.6000 0.0693
v 0.2700 1.6000 0.0000
v 0.3100 1.6000 -0.0693
v 0.3900 1.6000 -0.0693
v 0.3500 1.0000 0.0000
v 0.3500 1.6000 0.0000
v -0.2800 0.6500 0.0000
v -0.3150 0.6500 0.0606
v -0.3850 0.6500 0.0606
v -0.4200 0.6500 0.0000
v -0.3850 0.6500 -0.0606
v -0.3150 0.6500 -0.0606
v -0.2800 1.0000 0.0000
v -0.3150 1.0000 0.0606
v -0.3850 1.0000 0.0606
v -0.4200 1.0000 0.0000
v -0.3850 1.0000 -0.0606
v -0.3150 1.0000 -0.0606
v -0.3500 0.6500 0.0000
v -0.3500 1.0000 0.0000
v 0.4200 0.6500 0.0000
v 0.3850 0.6500 0.0606
v 0.3150 0.6500 0.0606
v 0.2800 0.6500 0.0000
v 0.3150 0.6500 -0.0606
v 0.3850 0.6500 -0.0606
v 0.4200 1.0000 0.0000
v 0.3850 1.0000 0.0606
v 0.3150 1.0000 0.0606
v 0.2800 1.0000 0.0000
v 0.3150 1.0000 -0.0606
v 0.3850 1.0000 -0.0606
v 0.3500 0.6500 0.0000
v 0.3500 1.0000 0.0000
v -0.3500 0.5100 0.0000
v -0.3500 0.5100 0.0000
v -0.3500 0.5100 0.0000
v -0.3500 0.5100 0.0000
v -0.3500 0.5100 0.0000
v -0.3076 0.4924 0.0000
v -0.3369 0.4924 0.0403
v -0.3843 0.4924 0.0249
v -0.3843 0.4924 -0.0249
v -0.3369 0.4924 -0.0403
v -0.2900 0.4500 0.0000
v -0.3315 0.4500 0.0571
v -0.3985 0.4500 0.0353
v -0.3985 0.4500 -0.0353
v -0.3315 0.4500 -0.0571
v -0.3076 0.4076 0.0000
v -0.3369 0.4076 0.0403
v -0.3843 0.4076 0.0249
v -0.3843 0.4076 -0.0249
v -0.3369 0.4076 -0.0403
v -0.3500 0.3900 0.0000
v -0.3500 0.3900 0.0000
v -0.3500 0.3900 0.0000
v -0.3500 0.3900 -0.0000
v -0.3500 0.3900 -0.0000
v 0.3500 0.5100 0.0000
v 0.3500 0.5100 0.0000
v 0.3500 0.5100 0.0000
v 0.3500 0.5100 0.0000
v 0.3500 0.5100 0.0000
v 0.3924 0.4924 0.0000
v 0.3631 0.4924 0.0403
v 0.3157 0.4924 0.0249
v 0.3157 0.4924 -0.0249
v 0.3631 0.4924 -0.0403
v 0.4100 0.4500 0.0000
v 0.3685 0.4500 0.0571
v 0.3015 0.4500 0.0353
v 0.3015 0.4500 -0.0353
v 0.3685 0.4500 -0.0571
v 0.3924 0.4076 0.0000
v 0.3631 0.4076 0.0403
v 0.3157 0.4076 0.0249
v 0.3157 0.4076 -0.0249
v 0.3631 0.4076 -0.0403
v 0.3500 0.3900 0.0000
v 0.3500 0.3900 0.0000
v 0.3500 0.3900 0.0000
v 0.3500 0.3900 -0.0000
v 0.3500 0.3900 -0.0000
v -0.1800 0.0000 -0.0800
v -0.0600 0.0000 -0.0800
v -0.0600 0.1000 -0.0800
v -0.1800 0.1000 -0.0800
v -0.1800 0.0000 0.1400
v -0.0600 0.0000 0.1400
v -0.0600 0.1000 0.1400
v -0.1800 0.1000 0.1400
v 0.0600 0.0000 -0.0800
v 0.1800 0.0000 -0.0800
v 0.1800 0.1000 -0.0800
v 0.0600 0.1000 -0.0800
v 0.0600 0.0000 0.1400
v 0.1800 0.0000 0.1400
v 0.1800 0.1000 0.1400
v 0.0600 0.1000 0.1400
v 0.1200 0.6000 -0.2100
v 0.1800 0.6000 -0.2100
v 0.1800 1.6000 -0.2100
v 0.1200 1.6000 -0.2100
v 0.1200 0.6000 -0.1900
v 0.1800 0.6000 -0.1900
v 0.1800 1.6000 -0.1900
v 0.1200 1.6000 -0.1900
v 0.1150 1.6100 -0.2150
v 0.1850 1.6100 -0.2150
v 0.1850 1.6900 -0.2150
v 0.1150 1.6900 -0.2150
v 0.1150 1.6100 -0.1850
v 0.1850 1.6100 -0.1850
v 0.1850 1.6900 -0.1850
v 0.1150 1.6900 -0.1850

f 1 10 9
f 2 11 10
f 3 12 11
f 4 13 12
f 5 14 13
f 6 15 14
f 7 16 15
f 8 9 16
f 9 10 18
f 9 18 17
f 10 11 19
f 10 19 18
f 11 12 20
f 11 20 19
f 12 13 21
f 12 21 20
f 13 14 22
f 13 22 21
f 14 15 23
f 14 23 22
f 15 16 24
f 15 24 23
f 16 9 17
f 16 17 24
f 17 18 26
f 17 26 25
f 18 19 27
f 18 27 26
f 19 20 28
f 19 28 27
f 20 21 29
f 20 29 28
f 21 22 30
f 21 30 29
f 22 23 31
f 22 31 30
f 23 24 32
f 23 32 31
f 24 17 25
f 24 25 32
f 25 26 34
f 25 34 33
f 26 27 35
f 26 35 34
f 27 28 36
f 27 36 35
f 28 29 37
f 28 37 36
f 29 30 38
f 29 38 37
f 30 31 39
f 30 39 38
f 31 32 40
f 31 40 39
f 32 25 33
f 32 33 40
f 33 34 42
f 33 42 41
f 34 35 43
f 34 43 42
f 35 36 44
f 35 44 43
f 36 37 45
f 36 45 44
f 37 38 46
f 37 46 45
f 38 39 47
f 38 47 46
f 39 40 48
f 39 48 47
f 40 33 41
f 40 41 48
f 41 42 50
f 42 43 51
f 43 44 52
f 44 45 53
f 45 46 54
f 46 47 55
f 47 48 56
f 48 41 49
f 57 58 66
f 57 66 65
f 58 59 67
f 58 67 66
f 59 60 68
f 59 68 67
f 60 61 69
f 60 69 68
f 61 62 70
f 61 70 69
f 62 63 71
f 62 71 70
f 63 64 72
f 63 72 71
f 64 57 65
f 64 65 72
f 73 58 57
f 73 59 58
f 73 60 59
f 73 61 60
f 73 62 61
f 73 63 62
f 73 64 63
f 73 57 64
f 74 65 66
f 74 66 67
f 74 67 68
f 74 68 69
f 74 69 70
f 74 70 71
f 74 71 72
f 74 72 65
f 1 8 7
f 2 9 8
f 3 10 9
f 4 11 10
f 5 12 11
f 6 7 12
f 7 8 14
f 7 14 13
f 8 9 15
f 8 15 14
f 9 10 16
f 9 16 15
f 10 11 17
f 10 17 16
f 11 12 18
f 11 18 17
f 12 7 13
f 12 13 18
f 13 14 20
f 13 20 19
f 14 15 21
f 14 21 20
f 15 16 22
f 15 22 21
f 16 17 23
f 16 23 22
f 17 18 24
f 17 24 23
f 18 13 19
f 18 19 24
f 19 20 26
f 20 21 27
f 21 22 28
f 22 23 29
f 23 24 30
f 24 19 25
f 105 106 114
f 105 114 113
f 106 107 115
f 106 115 114
f 107 108 116
f 107 116 115
f 108 109 117
f 108 117 116
f 109 110 118
f 109 118 117
f 110 111 119
f 110 119 118
f 111 112 120
f 111 120 119
f 112 105 113
f 112 113 120
f 121 106 105
f 121 107 106
f 121 108 107
f 121 109 108
f 121 110 109
f 121 111 110
f 121 112 111
f 121 105 112
f 122 113 114
f 122 114 115
f 122 115 116
f 122 116 117
f 122 117 118
f 122 118 119
f 122 119 120
f 122 120 113
f 123 124 132
f 123 132 131
f 124 125 133
f 124 133 132
f 125 126 134
f 125 134 133
f 126 127 135
f 126 135 134
f 127 128 136
f 127 136 135
f 128 129 137
f 128 137 136
f 129 130 138
f 129 138 137
f 130 123 131
f 130 131 138
f 139 124 123
f 139 125 124
f 139 126 125
f 139 127 126
f 139 128 127
f 139 129 128
f 139 130 129
f 139 123 130
f 140 131 132
f 140 132 133
f 140 133 134
f 140 134 135
f 140 135 136
f 140 136 137
f 140 137 138
f 140 138 131
f 141 142 148
f 141 148 147
f 142 143 149
f 142 149 148
f 143 144 150
f 143 150 149
f 144 145 151
f 144 151 150
f 145 146 152
f 145 152 151
f 146 141 147
f 146 147 152
f 153 142 141
f 153 143 142
f 153 144 143
f 153 145 144
f 153 146 145
f 153 141 146
f 154 147 148
f 154 148 149
f 154 149 150
f 154 150 151
f 154 151 152
f 154 152 147
f 155 156 162
f 155 162 161
f 156 157 163
f 156 163 162
f 157 158 164
f 157 164 163
f 158 159 165
f 158 165 164
f 159 160 166
f 159 166 165
f 160 155 161
f 160 161 166
f 167 156 155
f 167 157 156
f 167 158 157
f 167 159 158
f 167 160 159
f 167 155 160
f 168 161 162
f 168 162 163
f 168 163 164
f 168 164 165
f 168 165 166
f 168 166 161
f 169 170 176
f 169 176 175
f 170 171 177
f 170 177 176
f 171 172 178
f 171 178 177
f 172 173 179
f 172 179 178
f 173 174 180
f 173 180 179
f 174 169 175
f 174 175 180
f 181 170 169
f 181 171 170
f 181 172 171
f 181 173 172
f 181 174 173
f 181 169 174
f 182 175 176
f 182 176 177
f 182 177 178
f 182 178 179
f 182 179 180
f 182 180 175
f 183 184 190
f 183 190 189
f 184 185 191
f 184 191 190
f 185 186 192
f 185 192 191
f 186 187 193
f 186 193 192
f 187 188 194
f 187 194 193
f 188 183 189
f 188 189 194
f 195 184 183
f 195 185 184
f 195 186 185
f 195 187 186
f 195 188 187
f 195 183 188
f 196 189 190
f 196 190 191
f 196 191 192
f 196 192 193
f 196 193 194
f 196 194 189
f 1 7 6
f 2 8 7
f 3 9 8
f 4 10 9
f 5 6 10
f 6 7 12
f 6 12 11
f 7 8 13
f 7 13 12
f 8 9 14
f 8 14 13
f 9 10 15
f 9 15 14
f 10 6 11
f 10 11 15
f 11 12 17
f 11 17 16
f 12 13 18
f 12 18 17
f 13 14 19
f 13 19 18
f 14 15 20
f 14 20 19
f 15 11 16
f 15 16 20
f 16 17 22
f 17 18 23
f 18 19 24
f 19 20 25
f 20 16 21
f 1 7 6
f 2 8 7
f 3 9 8
f 4 10 9
f 5 6 10
f 6 7 12
f 6 12 11
f 7 8 13
f 7 13 12
f 8 9 14
f 8 14 13
f 9 10 15
f 9 15 14
f 10 6 11
f 10 11 15
f 11 12 17
f 11 17 16
f 12 13 18
f 12 18 17
f 13 14 19
f 13 19 18
f 14 15 20
f 14 20 19
f 15 11 16
f 15 16 20
f 16 17 22
f 17 18 23
f 18 19 24
f 19 20 25
f 20 16 21
f 251 252 253
f 251 253 254
f 248 247 250
f 248 250 249
f 247 251 254
f 247 254 250
f 252 248 249
f 252 249 253
f 250 254 253
f 250 253 249
f 247 248 252
f 247 252 251
f 259 260 261
f 259 261 262
f 256 255 258
f 256 258 257
f 255 259 262
f 255 262 258
f 260 256 257
f 260 257 261
f 258 262 261
f 258 261 257
f 255 256 260
f 255 260 259
f 267 268 269
f 267 269 270
f 264 263 266
f 264 266 265
f 263 267 270
f 263 270 266
f 268 264 265
f 268 265 269
f 266 270 269
f 266 269 265
f 263 264 268
f 263 268 267
f 275 276 277
f 275 277 278
f 272 271 274
f 272 274 273
f 271 275 278
f 271 278 274
f 276 272 273
f 276 273 277
f 274 278 277
f 274 277 273
f 271 272 276
f 271 276 275
