# Cultivator Female 女修士
# Xiuxian Character Model

v 0.0000 1.7200 0.0000
v 0.0000 1.7200 0.0000
v 0.0000 1.7200 0.0000
v 0.0000 1.7200 0.0000
v 0.0000 1.7200 0.0000
v 0.0000 1.7200 0.0000
v 0.0000 1.7200 0.0000
v 0.0000 1.7200 0.0000
v 0.1100 1.6905 0.0000
v 0.0778 1.6905 0.0778
v 0.0000 1.6905 0.1100
v -0.0778 1.6905 0.0778
v -0.1100 1.6905 0.0000
v -0.0778 1.6905 -0.0778
v -0.0000 1.6905 -0.1100
v 0.0778 1.6905 -0.0778
v 0.1905 1.6100 0.0000
v 0.1347 1.6100 0.1347
v 0.0000 1.6100 0.1905
v -0.1347 1.6100 0.1347
v -0.1905 1.6100 0.0000
v -0.1347 1.6100 -0.1347
v -0.0000 1.6100 -0.1905
v 0.1347 1.6100 -0.1347
v 0.2200 1.5000 0.0000
v 0.1556 1.5000 0.1556
v 0.0000 1.5000 0.2200
v -0.1556 1.5000 0.1556
v -0.2200 1.5000 0.0000
v -0.1556 1.5000 -0.1556
v -0.0000 1.5000 -0.2200
v 0.1556 1.5000 -0.1556
v 0.1905 1.3900 0.0000
v 0.1347 1.3900 0.1347
v 0.0000 1.3900 0.1905
v -0.1347 1.3900 0.1347
v -0.1905 1.3900 0.0000
v -0.1347 1.3900 -0.1347
v -0.0000 1.3900 -0.1905
v 0.1347 1.3900 -0.1347
v 0.1100 1.3095 0.0000
v 0.0778 1.3095 0.0778
v 0.0000 1.3095 0.1100
v -0.0778 1.3095 0.0778
v -0.1100 1.3095 0.0000
v -0.0778 1.3095 -0.0778
v -0.0000 1.3095 -0.1100
v 0.0778 1.3095 -0.0778
v 0.0000 1.2800 0.0000
v 0.0000 1.2800 0.0000
v 0.0000 1.2800 0.0000
v -0.0000 1.2800 0.0000
v -0.0000 1.2800 0.0000
v -0.0000 1.2800 -0.0000
v -0.0000 1.2800 -0.0000
v 0.0000 1.2800 -0.0000
v -0.0500 1.5500 -0.0800
v -0.1000 1.5500 0.0066
v -0.2000 1.5500 0.0066
v -0.2500 1.5500 -0.0800
v -0.2000 1.5500 -0.1666
v -0.1000 1.5500 -0.1666
v -0.0500 1.9500 -0.0800
v -0.1000 1.9500 0.0066
v -0.2000 1.9500 0.0066
v -0.2500 1.9500 -0.0800
v -0.2000 1.9500 -0.1666
v -0.1000 1.9500 -0.1666
v -0.1500 1.5500 -0.0800
v 0.2500 1.5500 -0.0800
v 0.2000 1.5500 0.0066
v 0.1000 1.5500 0.0066
v 0.0500 1.5500 -0.0800
v 0.1000 1.5500 -0.1666
v 0.2000 1.5500 -0.1666
v 0.2500 1.9500 -0.0800
v 0.2000 1.9500 0.0066
v 0.1000 1.9500 0.0066
v 0.0500 1.9500 -0.0800
v 0.1000 1.9500 -0.1666
v 0.2000 1.9500 -0.1666
v 0.1500 1.5500 -0.0800
v 0.1800 1.4500 -0.1500
v 0.1273 1.4500 -0.0227
v 0.0000 1.4500 0.0300
v -0.1273 1.4500 -0.0227
v -0.1800 1.4500 -0.1500
v -0.1273 1.4500 -0.2773
v -0.0000 1.4500 -0.3300
v 0.1273 1.4500 -0.2773
v 0.1800 2.0500 -0.1500
v 0.1273 2.0500 -0.0227
v 0.0000 2.0500 0.0300
v -0.1273 2.0500 -0.0227
v -0.1800 2.0500 -0.1500
v -0.1273 2.0500 -0.2773
v -0.0000 2.0500 -0.3300
v 0.1273 2.0500 -0.2773
v 0.0000 1.4500 -0.1500
v 0.2200 0.9500 0.0000
v 0.1556 0.9500 0.1556
v 0.0000 0.9500 0.2200
v -0.1556 0.9500 0.1556
v -0.2200 0.9500 0.0000
v -0.1556 0.9500 -0.1556
v -0.0000 0.9500 -0.2200
v 0.1556 0.9500 -0.1556
v 0.2200 1.5500 0.0000
v 0.1556 1.5500 0.1556
v 0.0000 1.5500 0.2200
v -0.1556 1.5500 0.1556
v -0.2200 1.5500 0.0000
v -0.1556 1.5500 -0.1556
v -0.0000 1.5500 -0.2200
v 0.1556 1.5500 -0.1556
v 0.0000 0.9500 0.0000
v 0.0000 1.5500 0.0000
v 0.2800 0.4000 0.0000
v 0.1980 0.4000 0.1980
v 0.0000 0.4000 0.2800
v -0.1980 0.4000 0.1980
v -0.2800 0.4000 0.0000
v -0.1980 0.4000 -0.1980
v -0.0000 0.4000 -0.2800
v 0.1980 0.4000 -0.1980
v 0.2800 1.3000 0.0000
v 0.1980 1.3000 0.1980
v 0.0000 1.3000 0.2800
v -0.1980 1.3000 0.1980
v -0.2800 1.3000 0.0000
v -0.1980 1.3000 -0.1980
v -0.0000 1.3000 -0.2800
v 0.1980 1.3000 -0.1980
v 0.0000 0.4000 0.0000
v 0.0000 1.3000 0.0000
v -0.2200 0.9500 0.0500
v -0.2700 0.9500 0.1366
v -0.3700 0.9500 0.1366
v -0.4200 0.9500 0.0500
v -0.3700 0.9500 -0.0366
v -0.2700 0.9500 -0.0366
v -0.2200 1.5000 0.0500
v -0.2700 1.5000 0.1366
v -0.3700 1.5000 0.1366
v -0.4200 1.5000 0.0500
v -0.3700 1.5000 -0.0366
v -0.2700 1.5000 -0.0366
v -0.3200 0.9500 0.0500
v -0.3200 1.5000 0.0500
v 0.4200 0.9500 0.0500
v 0.3700 0.9500 0.1366
v 0.2700 0.9500 0.1366
v 0.2200 0.9500 0.0500
v 0.2700 0.9500 -0.0366
v 0.3700 0.9500 -0.0366
v 0.4200 1.5000 0.0500
v 0.3700 1.5000 0.1366
v 0.2700 1.5000 0.1366
v 0.2200 1.5000 0.0500
v 0.2700 1.5000 -0.0366
v 0.3700 1.5000 -0.0366
v 0.3200 0.9500 0.0500
v 0.3200 1.5000 0.0500
v -0.3800 0.6000 0.0800
v -0.3800 0.6000 0.0800
v -0.3800 0.6000 0.0800
v -0.3800 0.6000 0.0800
v -0.3367 0.5750 0.0800
v -0.3800 0.5750 0.1233
v -0.4233 0.5750 0.0800
v -0.3800 0.5750 0.0367
v -0.3367 0.5250 0.0800
v -0.3800 0.5250 0.1233
v -0.4233 0.5250 0.0800
v -0.3800 0.5250 0.0367
v -0.3800 0.5000 0.0800
v -0.3800 0.5000 0.0800
v -0.3800 0.5000 0.0800
v -0.3800 0.5000 0.0800
v 0.3800 0.6000 0.0800
v 0.3800 0.6000 0.0800
v 0.3800 0.6000 0.0800
v 0.3800 0.6000 0.0800
v 0.4233 0.5750 0.0800
v 0.3800 0.5750 0.1233
v 0.3367 0.5750 0.0800
v 0.3800 0.5750 0.0367
v 0.4233 0.5250 0.0800
v 0.3800 0.5250 0.1233
v 0.3367 0.5250 0.0800
v 0.3800 0.5250 0.0367
v 0.3800 0.5000 0.0800
v 0.3800 0.5000 0.0800
v 0.3800 0.5000 0.0800
v 0.3800 0.5000 0.0800
v -0.0900 0.0000 -0.0700
v 0.0900 0.0000 -0.0700
v 0.0900 0.0800 -0.0700
v -0.0900 0.0800 -0.0700
v -0.0900 0.0000 0.1100
v 0.0900 0.0000 0.1100
v 0.0900 0.0800 0.1100
v -0.0900 0.0800 0.1100
v 0.1200 1.7500 -0.0200
v 0.1200 1.7500 -0.0200
v 0.1200 1.7500 -0.0200
v 0.1200 1.7500 -0.0200
v 0.1460 1.7350 -0.0200
v 0.1200 1.7350 0.0060
v 0.0940 1.7350 -0.0200
v 0.1200 1.7350 -0.0460
v 0.1460 1.7050 -0.0200
v 0.1200 1.7050 0.0060
v 0.0940 1.7050 -0.0200
v 0.1200 1.7050 -0.0460
v 0.1200 1.6900 -0.0200
v 0.1200 1.6900 -0.0200
v 0.1200 1.6900 -0.0200
v 0.1200 1.6900 -0.0200

f 1 10 9
f 2 11 10
f 3 12 11
f 4 13 12
f 5 14 13
f 6 15 14
f 7 16 15
f 8 9 16
f 9 10 18
f 9 18 17
f 10 11 19
f 10 19 18
f 11 12 20
f 11 20 19
f 12 13 21
f 12 21 20
f 13 14 22
f 13 22 21
f 14 15 23
f 14 23 22
f 15 16 24
f 15 24 23
f 16 9 17
f 16 17 24
f 17 18 26
f 17 26 25
f 18 19 27
f 18 27 26
f 19 20 28
f 19 28 27
f 20 21 29
f 20 29 28
f 21 22 30
f 21 30 29
f 22 23 31
f 22 31 30
f 23 24 32
f 23 32 31
f 24 17 25
f 24 25 32
f 25 26 34
f 25 34 33
f 26 27 35
f 26 35 34
f 27 28 36
f 27 36 35
f 28 29 37
f 28 37 36
f 29 30 38
f 29 38 37
f 30 31 39
f 30 39 38
f 31 32 40
f 31 40 39
f 32 25 33
f 32 33 40
f 33 34 42
f 33 42 41
f 34 35 43
f 34 43 42
f 35 36 44
f 35 44 43
f 36 37 45
f 36 45 44
f 37 38 46
f 37 46 45
f 38 39 47
f 38 47 46
f 39 40 48
f 39 48 47
f 40 33 41
f 40 41 48
f 41 42 50
f 42 43 51
f 43 44 52
f 44 45 53
f 45 46 54
f 46 47 55
f 47 48 56
f 48 41 49
f 57 58 64
f 57 64 63
f 58 59 65
f 58 65 64
f 59 60 66
f 59 66 65
f 60 61 67
f 60 67 66
f 61 62 68
f 61 68 67
f 62 57 63
f 62 63 68
f 69 58 57
f 69 59 58
f 69 60 59
f 69 61 60
f 69 62 61
f 69 57 62
f 70 71 77
f 70 77 76
f 71 72 78
f 71 78 77
f 72 73 79
f 72 79 78
f 73 74 80
f 73 80 79
f 74 75 81
f 74 81 80
f 75 70 76
f 75 76 81
f 82 71 70
f 82 72 71
f 82 73 72
f 82 74 73
f 82 75 74
f 82 70 75
f 83 84 92
f 83 92 91
f 84 85 93
f 84 93 92
f 85 86 94
f 85 94 93
f 86 87 95
f 86 95 94
f 87 88 96
f 87 96 95
f 88 89 97
f 88 97 96
f 89 90 98
f 89 98 97
f 90 83 91
f 90 91 98
f 99 84 83
f 99 85 84
f 99 86 85
f 99 87 86
f 99 88 87
f 99 89 88
f 99 90 89
f 99 83 90
f 100 101 109
f 100 109 108
f 101 102 110
f 101 110 109
f 102 103 111
f 102 111 110
f 103 104 112
f 103 112 111
f 104 105 113
f 104 113 112
f 105 106 114
f 105 114 113
f 106 107 115
f 106 115 114
f 107 100 108
f 107 108 115
f 116 101 100
f 116 102 101
f 116 103 102
f 116 104 103
f 116 105 104
f 116 106 105
f 116 107 106
f 116 100 107
f 117 108 109
f 117 109 110
f 117 110 111
f 117 111 112
f 117 112 113
f 117 113 114
f 117 114 115
f 117 115 108
f 118 119 127
f 118 127 126
f 119 120 128
f 119 128 127
f 120 121 129
f 120 129 128
f 121 122 130
f 121 130 129
f 122 123 131
f 122 131 130
f 123 124 132
f 123 132 131
f 124 125 133
f 124 133 132
f 125 118 126
f 125 126 133
f 134 119 118
f 134 120 119
f 134 121 120
f 134 122 121
f 134 123 122
f 134 124 123
f 134 125 124
f 134 118 125
f 135 126 127
f 135 127 128
f 135 128 129
f 135 129 130
f 135 130 131
f 135 131 132
f 135 132 133
f 135 133 126
f 136 137 143
f 136 143 142
f 137 138 144
f 137 144 143
f 138 139 145
f 138 145 144
f 139 140 146
f 139 146 145
f 140 141 147
f 140 147 146
f 141 136 142
f 141 142 147
f 148 137 136
f 148 138 137
f 148 139 138
f 148 140 139
f 148 141 140
f 148 136 141
f 149 142 143
f 149 143 144
f 149 144 145
f 149 145 146
f 149 146 147
f 149 147 142
f 150 151 157
f 150 157 156
f 151 152 158
f 151 158 157
f 152 153 159
f 152 159 158
f 153 154 160
f 153 160 159
f 154 155 161
f 154 161 160
f 155 150 156
f 155 156 161
f 162 151 150
f 162 152 151
f 162 153 152
f 162 154 153
f 162 155 154
f 162 150 155
f 163 156 157
f 163 157 158
f 163 158 159
f 163 159 160
f 163 160 161
f 163 161 156
f 1 6 5
f 2 7 6
f 3 8 7
f 4 5 8
f 5 6 10
f 5 10 9
f 6 7 11
f 6 11 10
f 7 8 12
f 7 12 11
f 8 5 9
f 8 9 12
f 9 10 14
f 10 11 15
f 11 12 16
f 12 9 13
f 1 6 5
f 2 7 6
f 3 8 7
f 4 5 8
f 5 6 10
f 5 10 9
f 6 7 11
f 6 11 10
f 7 8 12
f 7 12 11
f 8 5 9
f 8 9 12
f 9 10 14
f 10 11 15
f 11 12 16
f 12 9 13
f 200 201 202
f 200 202 203
f 197 196 199
f 197 199 198
f 196 200 203
f 196 203 199
f 201 197 198
f 201 198 202
f 199 203 202
f 199 202 198
f 196 197 201
f 196 201 200
f 1 6 5
f 2 7 6
f 3 8 7
f 4 5 8
f 5 6 10
f 5 10 9
f 6 7 11
f 6 11 10
f 7 8 12
f 7 12 11
f 8 5 9
f 8 9 12
f 9 10 14
f 10 11 15
f 11 12 16
f 12 9 13
