# Elder 长老
# Xiuxian Character Model

v 0.0000 1.8900 0.0000
v 0.0000 1.8900 0.0000
v 0.0000 1.8900 0.0000
v 0.0000 1.8900 0.0000
v 0.0000 1.8900 0.0000
v 0.0000 1.8900 0.0000
v 0.0000 1.8900 0.0000
v 0.0000 1.8900 0.0000
v 0.1200 1.8578 0.0000
v 0.0849 1.8578 0.0849
v 0.0000 1.8578 0.1200
v -0.0849 1.8578 0.0849
v -0.1200 1.8578 0.0000
v -0.0849 1.8578 -0.0849
v -0.0000 1.8578 -0.1200
v 0.0849 1.8578 -0.0849
v 0.2078 1.7700 0.0000
v 0.1470 1.7700 0.1470
v 0.0000 1.7700 0.2078
v -0.1470 1.7700 0.1470
v -0.2078 1.7700 0.0000
v -0.1470 1.7700 -0.1470
v -0.0000 1.7700 -0.2078
v 0.1470 1.7700 -0.1470
v 0.2400 1.6500 0.0000
v 0.1697 1.6500 0.1697
v 0.0000 1.6500 0.2400
v -0.1697 1.6500 0.1697
v -0.2400 1.6500 0.0000
v -0.1697 1.6500 -0.1697
v -0.0000 1.6500 -0.2400
v 0.1697 1.6500 -0.1697
v 0.2078 1.5300 0.0000
v 0.1470 1.5300 0.1470
v 0.0000 1.5300 0.2078
v -0.1470 1.5300 0.1470
v -0.2078 1.5300 0.0000
v -0.1470 1.5300 -0.1470
v -0.0000 1.5300 -0.2078
v 0.1470 1.5300 -0.1470
v 0.1200 1.4422 0.0000
v 0.0849 1.4422 0.0849
v 0.0000 1.4422 0.1200
v -0.0849 1.4422 0.0849
v -0.1200 1.4422 0.0000
v -0.0849 1.4422 -0.0849
v -0.0000 1.4422 -0.1200
v 0.0849 1.4422 -0.0849
v 0.0000 1.4100 0.0000
v 0.0000 1.4100 0.0000
v 0.0000 1.4100 0.0000
v -0.0000 1.4100 0.0000
v -0.0000 1.4100 0.0000
v -0.0000 1.4100 -0.0000
v -0.0000 1.4100 -0.0000
v 0.0000 1.4100 -0.0000
v 0.0800 1.4500 0.1200
v 0.0247 1.4500 0.1961
v -0.0647 1.4500 0.1670
v -0.0647 1.4500 0.0730
v 0.0247 1.4500 0.0439
v 0.0800 1.9500 0.1200
v 0.0247 1.9500 0.1961
v -0.0647 1.9500 0.1670
v -0.0647 1.9500 0.0730
v 0.0247 1.9500 0.0439
v 0.0000 1.4500 0.1200
v 0.1000 1.3500 0.1800
v 0.0309 1.3500 0.2751
v -0.0809 1.3500 0.2388
v -0.0809 1.3500 0.1212
v 0.0309 1.3500 0.0849
v 0.0000 1.7000 0.1800
v 0.0000 1.3500 0.1800
v 0.1500 1.7000 -0.0800
v 0.1061 1.7000 0.0261
v 0.0000 1.7000 0.0700
v -0.1061 1.7000 0.0261
v -0.1500 1.7000 -0.0800
v -0.1061 1.7000 -0.1861
v -0.0000 1.7000 -0.2300
v 0.1061 1.7000 -0.1861
v 0.1500 2.1500 -0.0800
v 0.1061 2.1500 0.0261
v 0.0000 2.1500 0.0700
v -0.1061 2.1500 0.0261
v -0.1500 2.1500 -0.0800
v -0.1061 2.1500 -0.1861
v -0.0000 2.1500 -0.2300
v 0.1061 2.1500 -0.1861
v 0.0000 1.7000 -0.0800
v -0.0400 1.6500 -0.1000
v -0.0800 1.6500 -0.0307
v -0.1600 1.6500 -0.0307
v -0.2000 1.6500 -0.1000
v -0.1600 1.6500 -0.1693
v -0.0800 1.6500 -0.1693
v -0.0400 2.1500 -0.1000
v -0.0800 2.1500 -0.0307
v -0.1600 2.1500 -0.0307
v -0.2000 2.1500 -0.1000
v -0.1600 2.1500 -0.1693
v -0.0800 2.1500 -0.1693
v -0.1200 1.6500 -0.1000
v 0.2000 1.6500 -0.1000
v 0.1600 1.6500 -0.0307
v 0.0800 1.6500 -0.0307
v 0.0400 1.6500 -0.1000
v 0.0800 1.6500 -0.1693
v 0.1600 1.6500 -0.1693
v 0.2000 2.1500 -0.1000
v 0.1600 2.1500 -0.0307
v 0.0800 2.1500 -0.0307
v 0.0400 2.1500 -0.1000
v 0.0800 2.1500 -0.1693
v 0.1600 2.1500 -0.1693
v 0.1200 1.6500 -0.1000
v 0.2800 1.0000 0.0000
v 0.1980 1.0000 0.1980
v 0.0000 1.0000 0.2800
v -0.1980 1.0000 0.1980
v -0.2800 1.0000 0.0000
v -0.1980 1.0000 -0.1980
v -0.0000 1.0000 -0.2800
v 0.1980 1.0000 -0.1980
v 0.2800 1.7500 0.0000
v 0.1980 1.7500 0.1980
v 0.0000 1.7500 0.2800
v -0.1980 1.7500 0.1980
v -0.2800 1.7500 0.0000
v -0.1980 1.7500 -0.1980
v -0.0000 1.7500 -0.2800
v 0.1980 1.7500 -0.1980
v 0.0000 1.0000 0.0000
v 0.0000 1.7500 0.0000
v 0.3500 0.4000 0.0000
v 0.2475 0.4000 0.2475
v 0.0000 0.4000 0.3500
v -0.2475 0.4000 0.2475
v -0.3500 0.4000 0.0000
v -0.2475 0.4000 -0.2475
v -0.0000 0.4000 -0.3500
v 0.2475 0.4000 -0.2475
v 0.3500 1.3500 0.0000
v 0.2475 1.3500 0.2475
v 0.0000 1.3500 0.3500
v -0.2475 1.3500 0.2475
v -0.3500 1.3500 0.0000
v -0.2475 1.3500 -0.2475
v -0.0000 1.3500 -0.3500
v 0.2475 1.3500 -0.2475
v 0.0000 0.4000 0.0000
v 0.0000 1.3500 0.0000
v -0.2600 1.0000 0.0500
v -0.3200 1.0000 0.1539
v -0.4400 1.0000 0.1539
v -0.5000 1.0000 0.0500
v -0.4400 1.0000 -0.0539
v -0.3200 1.0000 -0.0539
v -0.2600 1.7000 0.0500
v -0.3200 1.7000 0.1539
v -0.4400 1.7000 0.1539
v -0.5000 1.7000 0.0500
v -0.4400 1.7000 -0.0539
v -0.3200 1.7000 -0.0539
v -0.3800 1.0000 0.0500
v -0.3800 1.7000 0.0500
v 0.5000 1.0000 0.0500
v 0.4400 1.0000 0.1539
v 0.3200 1.0000 0.1539
v 0.2600 1.0000 0.0500
v 0.3200 1.0000 -0.0539
v 0.4400 1.0000 -0.0539
v 0.5000 1.7000 0.0500
v 0.4400 1.7000 0.1539
v 0.3200 1.7000 0.1539
v 0.2600 1.7000 0.0500
v 0.3200 1.7000 -0.0539
v 0.4400 1.7000 -0.0539
v 0.3800 1.0000 0.0500
v 0.3800 1.7000 0.0500
v -0.3200 0.5400 0.0800
v -0.3200 0.5400 0.0800
v -0.3200 0.5400 0.0800
v -0.3200 0.5400 0.0800
v -0.2854 0.5200 0.0800
v -0.3200 0.5200 0.1146
v -0.3546 0.5200 0.0800
v -0.3200 0.5200 0.0454
v -0.2854 0.4800 0.0800
v -0.3200 0.4800 0.1146
v -0.3546 0.4800 0.0800
v -0.3200 0.4800 0.0454
v -0.3200 0.4600 0.0800
v -0.3200 0.4600 0.0800
v -0.3200 0.4600 0.0800
v -0.3200 0.4600 0.0800
v 0.3200 0.5400 0.0800
v 0.3200 0.5400 0.0800
v 0.3200 0.5400 0.0800
v 0.3200 0.5400 0.0800
v 0.3546 0.5200 0.0800
v 0.3200 0.5200 0.1146
v 0.2854 0.5200 0.0800
v 0.3200 0.5200 0.0454
v 0.3546 0.4800 0.0800
v 0.3200 0.4800 0.1146
v 0.2854 0.4800 0.0800
v 0.3200 0.4800 0.0454
v 0.3200 0.4600 0.0800
v 0.3200 0.4600 0.0800
v 0.3200 0.4600 0.0800
v 0.3200 0.4600 0.0800
v -0.3200 0.9500 0.2000
v -0.3350 0.9500 0.2260
v -0.3650 0.9500 0.2260
v -0.3800 0.9500 0.2000
v -0.3650 0.9500 0.1740
v -0.3350 0.9500 0.1740
v -0.3200 2.4500 0.2000
v -0.3350 2.4500 0.2260
v -0.3650 2.4500 0.2260
v -0.3800 2.4500 0.2000
v -0.3650 2.4500 0.1740
v -0.3350 2.4500 0.1740
v -0.3500 0.9500 0.2000
v -0.3500 2.4500 0.2000
v -0.3500 1.7600 0.2000
v -0.3500 1.7600 0.2000
v -0.3500 1.7600 0.2000
v -0.3500 1.7600 0.2000
v -0.3500 1.7600 0.2000
v -0.3500 1.7600 0.2000
v -0.3076 1.7424 0.2000
v -0.3288 1.7424 0.2367
v -0.3712 1.7424 0.2367
v -0.3924 1.7424 0.2000
v -0.3712 1.7424 0.1633
v -0.3288 1.7424 0.1633
v -0.2900 1.7000 0.2000
v -0.3200 1.7000 0.2520
v -0.3800 1.7000 0.2520
v -0.4100 1.7000 0.2000
v -0.3800 1.7000 0.1480
v -0.3200 1.7000 0.1480
v -0.3076 1.6576 0.2000
v -0.3288 1.6576 0.2367
v -0.3712 1.6576 0.2367
v -0.3924 1.6576 0.2000
v -0.3712 1.6576 0.1633
v -0.3288 1.6576 0.1633
v -0.3500 1.6400 0.2000
v -0.3500 1.6400 0.2000
v -0.3500 1.6400 0.2000
v -0.3500 1.6400 0.2000
v -0.3500 1.6400 0.2000
v -0.3500 1.6400 0.2000

f 1 10 9
f 2 11 10
f 3 12 11
f 4 13 12
f 5 14 13
f 6 15 14
f 7 16 15
f 8 9 16
f 9 10 18
f 9 18 17
f 10 11 19
f 10 19 18
f 11 12 20
f 11 20 19
f 12 13 21
f 12 21 20
f 13 14 22
f 13 22 21
f 14 15 23
f 14 23 22
f 15 16 24
f 15 24 23
f 16 9 17
f 16 17 24
f 17 18 26
f 17 26 25
f 18 19 27
f 18 27 26
f 19 20 28
f 19 28 27
f 20 21 29
f 20 29 28
f 21 22 30
f 21 30 29
f 22 23 31
f 22 31 30
f 23 24 32
f 23 32 31
f 24 17 25
f 24 25 32
f 25 26 34
f 25 34 33
f 26 27 35
f 26 35 34
f 27 28 36
f 27 36 35
f 28 29 37
f 28 37 36
f 29 30 38
f 29 38 37
f 30 31 39
f 30 39 38
f 31 32 40
f 31 40 39
f 32 25 33
f 32 33 40
f 33 34 42
f 33 42 41
f 34 35 43
f 34 43 42
f 35 36 44
f 35 44 43
f 36 37 45
f 36 45 44
f 37 38 46
f 37 46 45
f 38 39 47
f 38 47 46
f 39 40 48
f 39 48 47
f 40 33 41
f 40 41 48
f 41 42 50
f 42 43 51
f 43 44 52
f 44 45 53
f 45 46 54
f 46 47 55
f 47 48 56
f 48 41 49
f 57 58 63
f 57 63 62
f 58 59 64
f 58 64 63
f 59 60 65
f 59 65 64
f 60 61 66
f 60 66 65
f 61 57 62
f 61 62 66
f 67 58 57
f 67 59 58
f 67 60 59
f 67 61 60
f 67 57 61
f 68 69 73
f 69 70 73
f 70 71 73
f 71 72 73
f 72 68 73
f 74 69 68
f 74 70 69
f 74 71 70
f 74 72 71
f 74 68 72
f 75 76 84
f 75 84 83
f 76 77 85
f 76 85 84
f 77 78 86
f 77 86 85
f 78 79 87
f 78 87 86
f 79 80 88
f 79 88 87
f 80 81 89
f 80 89 88
f 81 82 90
f 81 90 89
f 82 75 83
f 82 83 90
f 91 76 75
f 91 77 76
f 91 78 77
f 91 79 78
f 91 80 79
f 91 81 80
f 91 82 81
f 91 75 82
f 92 93 99
f 92 99 98
f 93 94 100
f 93 100 99
f 94 95 101
f 94 101 100
f 95 96 102
f 95 102 101
f 96 97 103
f 96 103 102
f 97 92 98
f 97 98 103
f 104 93 92
f 104 94 93
f 104 95 94
f 104 96 95
f 104 97 96
f 104 92 97
f 105 106 112
f 105 112 111
f 106 107 113
f 106 113 112
f 107 108 114
f 107 114 113
f 108 109 115
f 108 115 114
f 109 110 116
f 109 116 115
f 110 105 111
f 110 111 116
f 117 106 105
f 117 107 106
f 117 108 107
f 117 109 108
f 117 110 109
f 117 105 110
f 118 119 127
f 118 127 126
f 119 120 128
f 119 128 127
f 120 121 129
f 120 129 128
f 121 122 130
f 121 130 129
f 122 123 131
f 122 131 130
f 123 124 132
f 123 132 131
f 124 125 133
f 124 133 132
f 125 118 126
f 125 126 133
f 134 119 118
f 134 120 119
f 134 121 120
f 134 122 121
f 134 123 122
f 134 124 123
f 134 125 124
f 134 118 125
f 135 126 127
f 135 127 128
f 135 128 129
f 135 129 130
f 135 130 131
f 135 131 132
f 135 132 133
f 135 133 126
f 136 137 145
f 136 145 144
f 137 138 146
f 137 146 145
f 138 139 147
f 138 147 146
f 139 140 148
f 139 148 147
f 140 141 149
f 140 149 148
f 141 142 150
f 141 150 149
f 142 143 151
f 142 151 150
f 143 136 144
f 143 144 151
f 152 137 136
f 152 138 137
f 152 139 138
f 152 140 139
f 152 141 140
f 152 142 141
f 152 143 142
f 152 136 143
f 153 144 145
f 153 145 146
f 153 146 147
f 153 147 148
f 153 148 149
f 153 149 150
f 153 150 151
f 153 151 144
f 154 155 161
f 154 161 160
f 155 156 162
f 155 162 161
f 156 157 163
f 156 163 162
f 157 158 164
f 157 164 163
f 158 159 165
f 158 165 164
f 159 154 160
f 159 160 165
f 166 155 154
f 166 156 155
f 166 157 156
f 166 158 157
f 166 159 158
f 166 154 159
f 167 160 161
f 167 161 162
f 167 162 163
f 167 163 164
f 167 164 165
f 167 165 160
f 168 169 175
f 168 175 174
f 169 170 176
f 169 176 175
f 170 171 177
f 170 177 176
f 171 172 178
f 171 178 177
f 172 173 179
f 172 179 178
f 173 168 174
f 173 174 179
f 180 169 168
f 180 170 169
f 180 171 170
f 180 172 171
f 180 173 172
f 180 168 173
f 181 174 175
f 181 175 176
f 181 176 177
f 181 177 178
f 181 178 179
f 181 179 174
f 1 6 5
f 2 7 6
f 3 8 7
f 4 5 8
f 5 6 10
f 5 10 9
f 6 7 11
f 6 11 10
f 7 8 12
f 7 12 11
f 8 5 9
f 8 9 12
f 9 10 14
f 10 11 15
f 11 12 16
f 12 9 13
f 1 6 5
f 2 7 6
f 3 8 7
f 4 5 8
f 5 6 10
f 5 10 9
f 6 7 11
f 6 11 10
f 7 8 12
f 7 12 11
f 8 5 9
f 8 9 12
f 9 10 14
f 10 11 15
f 11 12 16
f 12 9 13
f 214 215 221
f 214 221 220
f 215 216 222
f 215 222 221
f 216 217 223
f 216 223 222
f 217 218 224
f 217 224 223
f 218 219 225
f 218 225 224
f 219 214 220
f 219 220 225
f 226 215 214
f 226 216 215
f 226 217 216
f 226 218 217
f 226 219 218
f 226 214 219
f 227 220 221
f 227 221 222
f 227 222 223
f 227 223 224
f 227 224 225
f 227 225 220
f 1 8 7
f 2 9 8
f 3 10 9
f 4 11 10
f 5 12 11
f 6 7 12
f 7 8 14
f 7 14 13
f 8 9 15
f 8 15 14
f 9 10 16
f 9 16 15
f 10 11 17
f 10 17 16
f 11 12 18
f 11 18 17
f 12 7 13
f 12 13 18
f 13 14 20
f 13 20 19
f 14 15 21
f 14 21 20
f 15 16 22
f 15 22 21
f 16 17 23
f 16 23 22
f 17 18 24
f 17 24 23
f 18 13 19
f 18 19 24
f 19 20 26
f 20 21 27
f 21 22 28
f 22 23 29
f 23 24 30
f 24 19 25
