# Fenghuang 凤凰
# Xiuxian Character Model

v 0.0000 0.8500 0.0000
v 0.0000 0.8500 0.0000
v 0.0000 0.8500 0.0000
v 0.0000 0.8500 0.0000
v 0.0000 0.8500 0.0000
v 0.0000 0.8500 0.0000
v 0.1763 0.7927 0.0000
v 0.0882 0.7927 0.1527
v -0.0882 0.7927 0.1527
v -0.1763 0.7927 0.0000
v -0.0882 0.7927 -0.1527
v 0.0882 0.7927 -0.1527
v 0.2853 0.6427 0.0000
v 0.1427 0.6427 0.2471
v -0.1427 0.6427 0.2471
v -0.2853 0.6427 0.0000
v -0.1427 0.6427 -0.2471
v 0.1427 0.6427 -0.2471
v 0.2853 0.4573 0.0000
v 0.1427 0.4573 0.2471
v -0.1427 0.4573 0.2471
v -0.2853 0.4573 0.0000
v -0.1427 0.4573 -0.2471
v 0.1427 0.4573 -0.2471
v 0.1763 0.3073 0.0000
v 0.0882 0.3073 0.1527
v -0.0882 0.3073 0.1527
v -0.1763 0.3073 0.0000
v -0.0882 0.3073 -0.1527
v 0.0882 0.3073 -0.1527
v 0.0000 0.2500 0.0000
v 0.0000 0.2500 0.0000
v -0.0000 0.2500 0.0000
v -0.0000 0.2500 0.0000
v -0.0000 0.2500 -0.0000
v 0.0000 0.2500 -0.0000
v -0.0500 0.5000 0.0000
v -0.1500 0.5000 0.1732
v -0.3500 0.5000 0.1732
v -0.4500 0.5000 0.0000
v -0.3500 0.5000 -0.1732
v -0.1500 0.5000 -0.1732
v -0.0500 0.8500 0.0000
v -0.1500 0.8500 0.1732
v -0.3500 0.8500 0.1732
v -0.4500 0.8500 0.0000
v -0.3500 0.8500 -0.1732
v -0.1500 0.8500 -0.1732
v -0.2500 0.5000 0.0000
v -0.2500 0.8500 0.0000
v 0.3500 0.6500 0.0000
v 0.3000 0.6500 0.0866
v 0.2000 0.6500 0.0866
v 0.1500 0.6500 0.0000
v 0.2000 0.6500 -0.0866
v 0.3000 0.6500 -0.0866
v 0.3500 1.0000 0.0000
v 0.3000 1.0000 0.0866
v 0.2000 1.0000 0.0866
v 0.1500 1.0000 0.0000
v 0.2000 1.0000 -0.0866
v 0.3000 1.0000 -0.0866
v 0.2500 0.6500 0.0000
v 0.2500 1.0000 0.0000
v 0.3500 1.0800 0.0000
v 0.3500 1.0800 0.0000
v 0.3500 1.0800 0.0000
v 0.3500 1.0800 0.0000
v 0.3500 1.0800 0.0000
v 0.3500 1.0800 0.0000
v 0.4264 1.0552 0.0000
v 0.3882 1.0552 0.0662
v 0.3118 1.0552 0.0662
v 0.2736 1.0552 0.0000
v 0.3118 1.0552 -0.0662
v 0.3882 1.0552 -0.0662
v 0.4736 0.9902 0.0000
v 0.4118 0.9902 0.1071
v 0.2882 0.9902 0.1071
v 0.2264 0.9902 0.0000
v 0.2882 0.9902 -0.1071
v 0.4118 0.9902 -0.1071
v 0.4736 0.9098 0.0000
v 0.4118 0.9098 0.1071
v 0.2882 0.9098 0.1071
v 0.2264 0.9098 0.0000
v 0.2882 0.9098 -0.1071
v 0.4118 0.9098 -0.1071
v 0.4264 0.8448 0.0000
v 0.3882 0.8448 0.0662
v 0.3118 0.8448 0.0662
v 0.2736 0.8448 0.0000
v 0.3118 0.8448 -0.0662
v 0.3882 0.8448 -0.0662
v 0.3500 0.8200 0.0000
v 0.3500 0.8200 0.0000
v 0.3500 0.8200 0.0000
v 0.3500 0.8200 0.0000
v 0.3500 0.8200 -0.0000
v 0.3500 0.8200 -0.0000
v 0.4800 0.9500 0.0000
v 0.4500 0.9500 0.0300
v 0.4200 0.9500 0.0000
v 0.4500 0.9500 -0.0300
v 0.4500 1.1000 0.0000
v 0.4500 0.9500 0.0000
v 0.3500 1.1000 0.0000
v 0.3200 1.1000 0.0300
v 0.2900 1.1000 0.0000
v 0.3200 1.1000 -0.0300
v 0.3200 1.2800 0.0000
v 0.3200 1.1000 0.0000
v 0.4050 1.0800 0.0000
v 0.3800 1.0800 0.0250
v 0.3550 1.0800 0.0000
v 0.3800 1.0800 -0.0250
v 0.3800 1.2000 0.0000
v 0.3800 1.0800 0.0000
v -0.0900 0.5500 -0.3500
v -0.1315 0.5500 -0.2929
v -0.1985 0.5500 -0.3147
v -0.1985 0.5500 -0.3853
v -0.1315 0.5500 -0.4071
v -0.0900 1.2500 -0.3500
v -0.1315 1.2500 -0.2929
v -0.1985 1.2500 -0.3147
v -0.1985 1.2500 -0.3853
v -0.1315 1.2500 -0.4071
v -0.1500 0.5500 -0.3500
v -0.0900 0.5500 0.3500
v -0.1315 0.5500 0.4071
v -0.1985 0.5500 0.3853
v -0.1985 0.5500 0.3147
v -0.1315 0.5500 0.2929
v -0.0900 1.2500 0.3500
v -0.1315 1.2500 0.4071
v -0.1985 1.2500 0.3853
v -0.1985 1.2500 0.3147
v -0.1315 1.2500 0.2929
v -0.1500 0.5500 0.3500
v -0.1500 0.6800 -0.7000
v -0.1500 0.6800 -0.7000
v -0.1500 0.6800 -0.7000
v -0.1500 0.6800 -0.7000
v -0.0934 0.6566 -0.7000
v -0.1500 0.6566 -0.6434
v -0.2066 0.6566 -0.7000
v -0.1500 0.6566 -0.7566
v -0.0700 0.6000 -0.7000
v -0.1500 0.6000 -0.6200
v -0.2300 0.6000 -0.7000
v -0.1500 0.6000 -0.7800
v -0.0934 0.5434 -0.7000
v -0.1500 0.5434 -0.6434
v -0.2066 0.5434 -0.7000
v -0.1500 0.5434 -0.7566
v -0.1500 0.5200 -0.7000
v -0.1500 0.5200 -0.7000
v -0.1500 0.5200 -0.7000
v -0.1500 0.5200 -0.7000
v -0.1500 0.6800 0.7000
v -0.1500 0.6800 0.7000
v -0.1500 0.6800 0.7000
v -0.1500 0.6800 0.7000
v -0.0934 0.6566 0.7000
v -0.1500 0.6566 0.7566
v -0.2066 0.6566 0.7000
v -0.1500 0.6566 0.6434
v -0.0700 0.6000 0.7000
v -0.1500 0.6000 0.7800
v -0.2300 0.6000 0.7000
v -0.1500 0.6000 0.6200
v -0.0934 0.5434 0.7000
v -0.1500 0.5434 0.7566
v -0.2066 0.5434 0.7000
v -0.1500 0.5434 0.6434
v -0.1500 0.5200 0.7000
v -0.1500 0.5200 0.7000
v -0.1500 0.5200 0.7000
v -0.1500 0.5200 0.7000
v -0.4250 0.5500 -0.3000
v -0.4500 0.5500 -0.2750
v -0.4750 0.5500 -0.3000
v -0.4500 0.5500 -0.3250
v -0.4250 1.7500 -0.3000
v -0.4500 1.7500 -0.2750
v -0.4750 1.7500 -0.3000
v -0.4500 1.7500 -0.3250
v -0.4500 0.5500 -0.3000
v -0.5450 0.5700 -0.1500
v -0.5700 0.5700 -0.1250
v -0.5950 0.5700 -0.1500
v -0.5700 0.5700 -0.1750
v -0.5450 1.6700 -0.1500
v -0.5700 1.6700 -0.1250
v -0.5950 1.6700 -0.1500
v -0.5700 1.6700 -0.1750
v -0.5700 0.5700 -0.1500
v -0.6650 0.5900 0.0000
v -0.6900 0.5900 0.0250
v -0.7150 0.5900 0.0000
v -0.6900 0.5900 -0.0250
v -0.6650 1.5900 0.0000
v -0.6900 1.5900 0.0250
v -0.7150 1.5900 0.0000
v -0.6900 1.5900 -0.0250
v -0.6900 0.5900 0.0000
v -0.7850 0.6100 0.1500
v -0.8100 0.6100 0.1750
v -0.8350 0.6100 0.1500
v -0.8100 0.6100 0.1250
v -0.7850 1.5100 0.1500
v -0.8100 1.5100 0.1750
v -0.8350 1.5100 0.1500
v -0.8100 1.5100 0.1250
v -0.8100 0.6100 0.1500
v -0.9050 0.6300 0.3000
v -0.9300 0.6300 0.3250
v -0.9550 0.6300 0.3000
v -0.9300 0.6300 0.2750
v -0.9050 1.4300 0.3000
v -0.9300 1.4300 0.3250
v -0.9550 1.4300 0.3000
v -0.9300 1.4300 0.2750
v -0.9300 0.6300 0.3000
v -0.0600 0.2000 -0.0500
v -0.1000 0.2000 -0.0100
v -0.1400 0.2000 -0.0500
v -0.1000 0.2000 -0.0900
v -0.0600 0.6000 -0.0500
v -0.1000 0.6000 -0.0100
v -0.1400 0.6000 -0.0500
v -0.1000 0.6000 -0.0900
v -0.1000 0.2000 -0.0500
v -0.1000 0.6000 -0.0500
v 0.1400 0.2000 0.0500
v 0.1000 0.2000 0.0900
v 0.0600 0.2000 0.0500
v 0.1000 0.2000 0.0100
v 0.1400 0.6000 0.0500
v 0.1000 0.6000 0.0900
v 0.0600 0.6000 0.0500
v 0.1000 0.6000 0.0100
v 0.1000 0.2000 0.0500
v 0.1000 0.6000 0.0500
v -0.1000 0.0500 -0.0500
v -0.1000 0.0500 -0.0500
v -0.1000 0.0500 -0.0500
v -0.1000 0.0500 -0.0500
v -0.0567 0.0250 -0.0500
v -0.1000 0.0250 -0.0067
v -0.1433 0.0250 -0.0500
v -0.1000 0.0250 -0.0933
v -0.0567 -0.0250 -0.0500
v -0.1000 -0.0250 -0.0067
v -0.1433 -0.0250 -0.0500
v -0.1000 -0.0250 -0.0933
v -0.1000 -0.0500 -0.0500
v -0.1000 -0.0500 -0.0500
v -0.1000 -0.0500 -0.0500
v -0.1000 -0.0500 -0.0500
v 0.1000 0.0500 0.0500
v 0.1000 0.0500 0.0500
v 0.1000 0.0500 0.0500
v 0.1000 0.0500 0.0500
v 0.1433 0.0250 0.0500
v 0.1000 0.0250 0.0933
v 0.0567 0.0250 0.0500
v 0.1000 0.0250 0.0067
v 0.1433 -0.0250 0.0500
v 0.1000 -0.0250 0.0933
v 0.0567 -0.0250 0.0500
v 0.1000 -0.0250 0.0067
v 0.1000 -0.0500 0.0500
v 0.1000 -0.0500 0.0500
v 0.1000 -0.0500 0.0500
v 0.1000 -0.0500 0.0500

f 1 8 7
f 2 9 8
f 3 10 9
f 4 11 10
f 5 12 11
f 6 7 12
f 7 8 14
f 7 14 13
f 8 9 15
f 8 15 14
f 9 10 16
f 9 16 15
f 10 11 17
f 10 17 16
f 11 12 18
f 11 18 17
f 12 7 13
f 12 13 18
f 13 14 20
f 13 20 19
f 14 15 21
f 14 21 20
f 15 16 22
f 15 22 21
f 16 17 23
f 16 23 22
f 17 18 24
f 17 24 23
f 18 13 19
f 18 19 24
f 19 20 26
f 19 26 25
f 20 21 27
f 20 27 26
f 21 22 28
f 21 28 27
f 22 23 29
f 22 29 28
f 23 24 30
f 23 30 29
f 24 19 25
f 24 25 30
f 25 26 32
f 26 27 33
f 27 28 34
f 28 29 35
f 29 30 36
f 30 25 31
f 37 38 44
f 37 44 43
f 38 39 45
f 38 45 44
f 39 40 46
f 39 46 45
f 40 41 47
f 40 47 46
f 41 42 48
f 41 48 47
f 42 37 43
f 42 43 48
f 49 38 37
f 49 39 38
f 49 40 39
f 49 41 40
f 49 42 41
f 49 37 42
f 50 43 44
f 50 44 45
f 50 45 46
f 50 46 47
f 50 47 48
f 50 48 43
f 51 52 58
f 51 58 57
f 52 53 59
f 52 59 58
f 53 54 60
f 53 60 59
f 54 55 61
f 54 61 60
f 55 56 62
f 55 62 61
f 56 51 57
f 56 57 62
f 63 52 51
f 63 53 52
f 63 54 53
f 63 55 54
f 63 56 55
f 63 51 56
f 64 57 58
f 64 58 59
f 64 59 60
f 64 60 61
f 64 61 62
f 64 62 57
f 1 8 7
f 2 9 8
f 3 10 9
f 4 11 10
f 5 12 11
f 6 7 12
f 7 8 14
f 7 14 13
f 8 9 15
f 8 15 14
f 9 10 16
f 9 16 15
f 10 11 17
f 10 17 16
f 11 12 18
f 11 18 17
f 12 7 13
f 12 13 18
f 13 14 20
f 13 20 19
f 14 15 21
f 14 21 20
f 15 16 22
f 15 22 21
f 16 17 23
f 16 23 22
f 17 18 24
f 17 24 23
f 18 13 19
f 18 19 24
f 19 20 26
f 19 26 25
f 20 21 27
f 20 27 26
f 21 22 28
f 21 28 27
f 22 23 29
f 22 29 28
f 23 24 30
f 23 30 29
f 24 19 25
f 24 25 30
f 25 26 32
f 26 27 33
f 27 28 34
f 28 29 35
f 29 30 36
f 30 25 31
f 101 102 105
f 102 103 105
f 103 104 105
f 104 101 105
f 106 102 101
f 106 103 102
f 106 104 103
f 106 101 104
f 107 108 111
f 108 109 111
f 109 110 111
f 110 107 111
f 112 108 107
f 112 109 108
f 112 110 109
f 112 107 110
f 113 114 117
f 114 115 117
f 115 116 117
f 116 113 117
f 118 114 113
f 118 115 114
f 118 116 115
f 118 113 116
f 119 120 125
f 119 125 124
f 120 121 126
f 120 126 125
f 121 122 127
f 121 127 126
f 122 123 128
f 122 128 127
f 123 119 124
f 123 124 128
f 129 120 119
f 129 121 120
f 129 122 121
f 129 123 122
f 129 119 123
f 130 131 136
f 130 136 135
f 131 132 137
f 131 137 136
f 132 133 138
f 132 138 137
f 133 134 139
f 133 139 138
f 134 130 135
f 134 135 139
f 140 131 130
f 140 132 131
f 140 133 132
f 140 134 133
f 140 130 134
f 1 6 5
f 2 7 6
f 3 8 7
f 4 5 8
f 5 6 10
f 5 10 9
f 6 7 11
f 6 11 10
f 7 8 12
f 7 12 11
f 8 5 9
f 8 9 12
f 9 10 14
f 9 14 13
f 10 11 15
f 10 15 14
f 11 12 16
f 11 16 15
f 12 9 13
f 12 13 16
f 13 14 18
f 14 15 19
f 15 16 20
f 16 13 17
f 1 6 5
f 2 7 6
f 3 8 7
f 4 5 8
f 5 6 10
f 5 10 9
f 6 7 11
f 6 11 10
f 7 8 12
f 7 12 11
f 8 5 9
f 8 9 12
f 9 10 14
f 9 14 13
f 10 11 15
f 10 15 14
f 11 12 16
f 11 16 15
f 12 9 13
f 12 13 16
f 13 14 18
f 14 15 19
f 15 16 20
f 16 13 17
f 181 182 186
f 181 186 185
f 182 183 187
f 182 187 186
f 183 184 188
f 183 188 187
f 184 181 185
f 184 185 188
f 189 182 181
f 189 183 182
f 189 184 183
f 189 181 184
f 190 191 195
f 190 195 194
f 191 192 196
f 191 196 195
f 192 193 197
f 192 197 196
f 193 190 194
f 193 194 197
f 198 191 190
f 198 192 191
f 198 193 192
f 198 190 193
f 199 200 204
f 199 204 203
f 200 201 205
f 200 205 204
f 201 202 206
f 201 206 205
f 202 199 203
f 202 203 206
f 207 200 199
f 207 201 200
f 207 202 201
f 207 199 202
f 208 209 213
f 208 213 212
f 209 210 214
f 209 214 213
f 210 211 215
f 210 215 214
f 211 208 212
f 211 212 215
f 216 209 208
f 216 210 209
f 216 211 210
f 216 208 211
f 217 218 222
f 217 222 221
f 218 219 223
f 218 223 222
f 219 220 224
f 219 224 223
f 220 217 221
f 220 221 224
f 225 218 217
f 225 219 218
f 225 220 219
f 225 217 220
f 226 227 231
f 226 231 230
f 227 228 232
f 227 232 231
f 228 229 233
f 228 233 232
f 229 226 230
f 229 230 233
f 234 227 226
f 234 228 227
f 234 229 228
f 234 226 229
f 235 230 231
f 235 231 232
f 235 232 233
f 235 233 230
f 236 237 241
f 236 241 240
f 237 238 242
f 237 242 241
f 238 239 243
f 238 243 242
f 239 236 240
f 239 240 243
f 244 237 236
f 244 238 237
f 244 239 238
f 244 236 239
f 245 240 241
f 245 241 242
f 245 242 243
f 245 243 240
f 1 6 5
f 2 7 6
f 3 8 7
f 4 5 8
f 5 6 10
f 5 10 9
f 6 7 11
f 6 11 10
f 7 8 12
f 7 12 11
f 8 5 9
f 8 9 12
f 9 10 14
f 10 11 15
f 11 12 16
f 12 9 13
f 1 6 5
f 2 7 6
f 3 8 7
f 4 5 8
f 5 6 10
f 5 10 9
f 6 7 11
f 6 11 10
f 7 8 12
f 7 12 11
f 8 5 9
f 8 9 12
f 9 10 14
f 10 11 15
f 11 12 16
f 12 9 13
