# Qilin 麒麟
# Xiuxian Character Model

v 0.0000 0.9500 0.0000
v 0.0000 0.9500 0.0000
v 0.0000 0.9500 0.0000
v 0.0000 0.9500 0.0000
v 0.0000 0.9500 0.0000
v 0.0000 0.9500 0.0000
v 0.0000 0.9500 0.0000
v 0.0000 0.9500 0.0000
v 0.2250 0.8897 0.0000
v 0.1591 0.8897 0.1591
v 0.0000 0.8897 0.2250
v -0.1591 0.8897 0.1591
v -0.2250 0.8897 0.0000
v -0.1591 0.8897 -0.1591
v -0.0000 0.8897 -0.2250
v 0.1591 0.8897 -0.1591
v 0.3897 0.7250 0.0000
v 0.2756 0.7250 0.2756
v 0.0000 0.7250 0.3897
v -0.2756 0.7250 0.2756
v -0.3897 0.7250 0.0000
v -0.2756 0.7250 -0.2756
v -0.0000 0.7250 -0.3897
v 0.2756 0.7250 -0.2756
v 0.4500 0.5000 0.0000
v 0.3182 0.5000 0.3182
v 0.0000 0.5000 0.4500
v -0.3182 0.5000 0.3182
v -0.4500 0.5000 0.0000
v -0.3182 0.5000 -0.3182
v -0.0000 0.5000 -0.4500
v 0.3182 0.5000 -0.3182
v 0.3897 0.2750 0.0000
v 0.2756 0.2750 0.2756
v 0.0000 0.2750 0.3897
v -0.2756 0.2750 0.2756
v -0.3897 0.2750 0.0000
v -0.2756 0.2750 -0.2756
v -0.0000 0.2750 -0.3897
v 0.2756 0.2750 -0.2756
v 0.2250 0.1103 0.0000
v 0.1591 0.1103 0.1591
v 0.0000 0.1103 0.2250
v -0.1591 0.1103 0.1591
v -0.2250 0.1103 0.0000
v -0.1591 0.1103 -0.1591
v -0.0000 0.1103 -0.2250
v 0.1591 0.1103 -0.1591
v 0.0000 0.0500 0.0000
v 0.0000 0.0500 0.0000
v 0.0000 0.0500 0.0000
v -0.0000 0.0500 0.0000
v -0.0000 0.0500 0.0000
v -0.0000 0.0500 -0.0000
v -0.0000 0.0500 -0.0000
v 0.0000 0.0500 -0.0000
v 0.0500 0.4500 0.0000
v -0.0525 0.4500 0.2475
v -0.3000 0.4500 0.3500
v -0.5475 0.4500 0.2475
v -0.6500 0.4500 0.0000
v -0.5475 0.4500 -0.2475
v -0.3000 0.4500 -0.3500
v -0.0525 0.4500 -0.2475
v 0.0500 1.0500 0.0000
v -0.0525 1.0500 0.2475
v -0.3000 1.0500 0.3500
v -0.5475 1.0500 0.2475
v -0.6500 1.0500 0.0000
v -0.5475 1.0500 -0.2475
v -0.3000 1.0500 -0.3500
v -0.0525 1.0500 -0.2475
v -0.3000 0.4500 0.0000
v -0.3000 1.0500 0.0000
v 0.5800 0.6500 0.0000
v 0.4900 0.6500 0.1559
v 0.3100 0.6500 0.1559
v 0.2200 0.6500 0.0000
v 0.3100 0.6500 -0.1559
v 0.4900 0.6500 -0.1559
v 0.5800 1.0000 0.0000
v 0.4900 1.0000 0.1559
v 0.3100 1.0000 0.1559
v 0.2200 1.0000 0.0000
v 0.3100 1.0000 -0.1559
v 0.4900 1.0000 -0.1559
v 0.4000 0.6500 0.0000
v 0.4000 1.0000 0.0000
v 0.5500 1.1200 0.0000
v 0.5500 1.1200 0.0000
v 0.5500 1.1200 0.0000
v 0.5500 1.1200 0.0000
v 0.5500 1.1200 0.0000
v 0.5500 1.1200 0.0000
v 0.6793 1.0780 0.0000
v 0.6147 1.0780 0.1120
v 0.4853 1.0780 0.1120
v 0.4207 1.0780 0.0000
v 0.4853 1.0780 -0.1120
v 0.6147 1.0780 -0.1120
v 0.7592 0.9680 0.0000
v 0.6546 0.9680 0.1812
v 0.4454 0.9680 0.1812
v 0.3408 0.9680 0.0000
v 0.4454 0.9680 -0.1812
v 0.6546 0.9680 -0.1812
v 0.7592 0.8320 0.0000
v 0.6546 0.8320 0.1812
v 0.4454 0.8320 0.1812
v 0.3408 0.8320 0.0000
v 0.4454 0.8320 -0.1812
v 0.6546 0.8320 -0.1812
v 0.6793 0.7220 0.0000
v 0.6147 0.7220 0.1120
v 0.4853 0.7220 0.1120
v 0.4207 0.7220 0.0000
v 0.4853 0.7220 -0.1120
v 0.6147 0.7220 -0.1120
v 0.5500 0.6800 0.0000
v 0.5500 0.6800 0.0000
v 0.5500 0.6800 0.0000
v 0.5500 0.6800 0.0000
v 0.5500 0.6800 -0.0000
v 0.5500 0.6800 -0.0000
v 0.5500 1.1500 0.0000
v 0.5155 1.1500 0.0476
v 0.4595 1.1500 0.0294
v 0.4595 1.1500 -0.0294
v 0.5155 1.1500 -0.0476
v 0.5000 1.4500 0.0000
v 0.5000 1.1500 0.0000
v 0.6500 1.1500 0.0000
v 0.6155 1.1500 0.0476
v 0.5595 1.1500 0.0294
v 0.5595 1.1500 -0.0294
v 0.6155 1.1500 -0.0476
v 0.6000 1.4000 0.0000
v 0.6000 1.1500 0.0000
v 0.4300 0.7500 -0.0800
v 0.3747 0.7500 -0.0039
v 0.2853 0.7500 -0.0330
v 0.2853 0.7500 -0.1270
v 0.3747 0.7500 -0.1561
v 0.4300 1.0000 -0.0800
v 0.3747 1.0000 -0.0039
v 0.2853 1.0000 -0.0330
v 0.2853 1.0000 -0.1270
v 0.3747 1.0000 -0.1561
v 0.3500 0.7500 -0.0800
v 0.3100 0.7000 -0.1000
v 0.2685 0.7000 -0.0429
v 0.2015 0.7000 -0.0647
v 0.2015 0.7000 -0.1353
v 0.2685 0.7000 -0.1571
v 0.3100 0.9000 -0.1000
v 0.2685 0.9000 -0.0429
v 0.2015 0.9000 -0.0647
v 0.2015 0.9000 -0.1353
v 0.2685 0.9000 -0.1571
v 0.2500 0.7000 -0.1000
v -0.1700 0.2000 -0.2000
v -0.2253 0.2000 -0.1239
v -0.3147 0.2000 -0.1530
v -0.3147 0.2000 -0.2470
v -0.2253 0.2000 -0.2761
v -0.1700 0.6000 -0.2000
v -0.2253 0.6000 -0.1239
v -0.3147 0.6000 -0.1530
v -0.3147 0.6000 -0.2470
v -0.2253 0.6000 -0.2761
v -0.2500 0.2000 -0.2000
v -0.2500 0.6000 -0.2000
v -0.2500 0.1000 -0.2000
v -0.2500 0.1000 -0.2000
v -0.2500 0.1000 -0.2000
v -0.2500 0.1000 -0.2000
v -0.1634 0.0500 -0.2000
v -0.2500 0.0500 -0.1134
v -0.3366 0.0500 -0.2000
v -0.2500 0.0500 -0.2866
v -0.1634 -0.0500 -0.2000
v -0.2500 -0.0500 -0.1134
v -0.3366 -0.0500 -0.2000
v -0.2500 -0.0500 -0.2866
v -0.2500 -0.1000 -0.2000
v -0.2500 -0.1000 -0.2000
v -0.2500 -0.1000 -0.2000
v -0.2500 -0.1000 -0.2000
v -0.1700 0.2000 0.2000
v -0.2253 0.2000 0.2761
v -0.3147 0.2000 0.2470
v -0.3147 0.2000 0.1530
v -0.2253 0.2000 0.1239
v -0.1700 0.6000 0.2000
v -0.2253 0.6000 0.2761
v -0.3147 0.6000 0.2470
v -0.3147 0.6000 0.1530
v -0.2253 0.6000 0.1239
v -0.2500 0.2000 0.2000
v -0.2500 0.6000 0.2000
v -0.2500 0.1000 0.2000
v -0.2500 0.1000 0.2000
v -0.2500 0.1000 0.2000
v -0.2500 0.1000 0.2000
v -0.1634 0.0500 0.2000
v -0.2500 0.0500 0.2866
v -0.3366 0.0500 0.2000
v -0.2500 0.0500 0.1134
v -0.1634 -0.0500 0.2000
v -0.2500 -0.0500 0.2866
v -0.3366 -0.0500 0.2000
v -0.2500 -0.0500 0.1134
v -0.2500 -0.1000 0.2000
v -0.2500 -0.1000 0.2000
v -0.2500 -0.1000 0.2000
v -0.2500 -0.1000 0.2000
v 0.3300 0.2000 -0.2000
v 0.2747 0.2000 -0.1239
v 0.1853 0.2000 -0.1530
v 0.1853 0.2000 -0.2470
v 0.2747 0.2000 -0.2761
v 0.3300 0.6000 -0.2000
v 0.2747 0.6000 -0.1239
v 0.1853 0.6000 -0.1530
v 0.1853 0.6000 -0.2470
v 0.2747 0.6000 -0.2761
v 0.2500 0.2000 -0.2000
v 0.2500 0.6000 -0.2000
v 0.2500 0.1000 -0.2000
v 0.2500 0.1000 -0.2000
v 0.2500 0.1000 -0.2000
v 0.2500 0.1000 -0.2000
v 0.3366 0.0500 -0.2000
v 0.2500 0.0500 -0.1134
v 0.1634 0.0500 -0.2000
v 0.2500 0.0500 -0.2866
v 0.3366 -0.0500 -0.2000
v 0.2500 -0.0500 -0.1134
v 0.1634 -0.0500 -0.2000
v 0.2500 -0.0500 -0.2866
v 0.2500 -0.1000 -0.2000
v 0.2500 -0.1000 -0.2000
v 0.2500 -0.1000 -0.2000
v 0.2500 -0.1000 -0.2000
v 0.3300 0.2000 0.2000
v 0.2747 0.2000 0.2761
v 0.1853 0.2000 0.2470
v 0.1853 0.2000 0.1530
v 0.2747 0.2000 0.1239
v 0.3300 0.6000 0.2000
v 0.2747 0.6000 0.2761
v 0.1853 0.6000 0.2470
v 0.1853 0.6000 0.1530
v 0.2747 0.6000 0.1239
v 0.2500 0.2000 0.2000
v 0.2500 0.6000 0.2000
v 0.2500 0.1000 0.2000
v 0.2500 0.1000 0.2000
v 0.2500 0.1000 0.2000
v 0.2500 0.1000 0.2000
v 0.3366 0.0500 0.2000
v 0.2500 0.0500 0.2866
v 0.1634 0.0500 0.2000
v 0.2500 0.0500 0.1134
v 0.3366 -0.0500 0.2000
v 0.2500 -0.0500 0.2866
v 0.1634 -0.0500 0.2000
v 0.2500 -0.0500 0.1134
v 0.2500 -0.1000 0.2000
v 0.2500 -0.1000 0.2000
v 0.2500 -0.1000 0.2000
v 0.2500 -0.1000 0.2000
v -0.6000 0.5500 0.0000
v -0.6345 0.5500 0.0476
v -0.6905 0.5500 0.0294
v -0.6905 0.5500 -0.0294
v -0.6345 0.5500 -0.0476
v -0.6000 0.9500 0.0000
v -0.6345 0.9500 0.0476
v -0.6905 0.9500 0.0294
v -0.6905 0.9500 -0.0294
v -0.6345 0.9500 -0.0476
v -0.6500 0.5500 0.0000
v -0.6700 0.6500 0.0000
v -0.7253 0.6500 0.0761
v -0.8147 0.6500 0.0470
v -0.8147 0.6500 -0.0470
v -0.7253 0.6500 -0.0761
v -0.7500 0.8500 0.0000
v -0.7500 0.6500 0.0000
v -0.2400 0.9500 0.0000
v -0.3000 0.9500 0.0600
v -0.3600 0.9500 0.0000
v -0.3000 0.9500 -0.0600
v -0.3000 1.1000 0.0000
v -0.3000 0.9500 0.0000
v -0.0400 0.9500 0.0000
v -0.1000 0.9500 0.0600
v -0.1600 0.9500 0.0000
v -0.1000 0.9500 -0.0600
v -0.1000 1.1000 0.0000
v -0.1000 0.9500 0.0000
v 0.1600 0.9500 0.0000
v 0.1000 0.9500 0.0600
v 0.0400 0.9500 0.0000
v 0.1000 0.9500 -0.0600
v 0.1000 1.1000 0.0000
v 0.1000 0.9500 0.0000
v 0.3600 0.9500 0.0000
v 0.3000 0.9500 0.0600
v 0.2400 0.9500 0.0000
v 0.3000 0.9500 -0.0600
v 0.3000 1.1000 0.0000
v 0.3000 0.9500 0.0000

f 1 10 9
f 2 11 10
f 3 12 11
f 4 13 12
f 5 14 13
f 6 15 14
f 7 16 15
f 8 9 16
f 9 10 18
f 9 18 17
f 10 11 19
f 10 19 18
f 11 12 20
f 11 20 19
f 12 13 21
f 12 21 20
f 13 14 22
f 13 22 21
f 14 15 23
f 14 23 22
f 15 16 24
f 15 24 23
f 16 9 17
f 16 17 24
f 17 18 26
f 17 26 25
f 18 19 27
f 18 27 26
f 19 20 28
f 19 28 27
f 20 21 29
f 20 29 28
f 21 22 30
f 21 30 29
f 22 23 31
f 22 31 30
f 23 24 32
f 23 32 31
f 24 17 25
f 24 25 32
f 25 26 34
f 25 34 33
f 26 27 35
f 26 35 34
f 27 28 36
f 27 36 35
f 28 29 37
f 28 37 36
f 29 30 38
f 29 38 37
f 30 31 39
f 30 39 38
f 31 32 40
f 31 40 39
f 32 25 33
f 32 33 40
f 33 34 42
f 33 42 41
f 34 35 43
f 34 43 42
f 35 36 44
f 35 44 43
f 36 37 45
f 36 45 44
f 37 38 46
f 37 46 45
f 38 39 47
f 38 47 46
f 39 40 48
f 39 48 47
f 40 33 41
f 40 41 48
f 41 42 50
f 42 43 51
f 43 44 52
f 44 45 53
f 45 46 54
f 46 47 55
f 47 48 56
f 48 41 49
f 57 58 66
f 57 66 65
f 58 59 67
f 58 67 66
f 59 60 68
f 59 68 67
f 60 61 69
f 60 69 68
f 61 62 70
f 61 70 69
f 62 63 71
f 62 71 70
f 63 64 72
f 63 72 71
f 64 57 65
f 64 65 72
f 73 58 57
f 73 59 58
f 73 60 59
f 73 61 60
f 73 62 61
f 73 63 62
f 73 64 63
f 73 57 64
f 74 65 66
f 74 66 67
f 74 67 68
f 74 68 69
f 74 69 70
f 74 70 71
f 74 71 72
f 74 72 65
f 75 76 82
f 75 82 81
f 76 77 83
f 76 83 82
f 77 78 84
f 77 84 83
f 78 79 85
f 78 85 84
f 79 80 86
f 79 86 85
f 80 75 81
f 80 81 86
f 87 76 75
f 87 77 76
f 87 78 77
f 87 79 78
f 87 80 79
f 87 75 80
f 88 81 82
f 88 82 83
f 88 83 84
f 88 84 85
f 88 85 86
f 88 86 81
f 1 8 7
f 2 9 8
f 3 10 9
f 4 11 10
f 5 12 11
f 6 7 12
f 7 8 14
f 7 14 13
f 8 9 15
f 8 15 14
f 9 10 16
f 9 16 15
f 10 11 17
f 10 17 16
f 11 12 18
f 11 18 17
f 12 7 13
f 12 13 18
f 13 14 20
f 13 20 19
f 14 15 21
f 14 21 20
f 15 16 22
f 15 22 21
f 16 17 23
f 16 23 22
f 17 18 24
f 17 24 23
f 18 13 19
f 18 19 24
f 19 20 26
f 19 26 25
f 20 21 27
f 20 27 26
f 21 22 28
f 21 28 27
f 22 23 29
f 22 29 28
f 23 24 30
f 23 30 29
f 24 19 25
f 24 25 30
f 25 26 32
f 26 27 33
f 27 28 34
f 28 29 35
f 29 30 36
f 30 25 31
f 125 126 130
f 126 127 130
f 127 128 130
f 128 129 130
f 129 125 130
f 131 126 125
f 131 127 126
f 131 128 127
f 131 129 128
f 131 125 129
f 132 133 137
f 133 134 137
f 134 135 137
f 135 136 137
f 136 132 137
f 138 133 132
f 138 134 133
f 138 135 134
f 138 136 135
f 138 132 136
f 139 140 145
f 139 145 144
f 140 141 146
f 140 146 145
f 141 142 147
f 141 147 146
f 142 143 148
f 142 148 147
f 143 139 144
f 143 144 148
f 149 140 139
f 149 141 140
f 149 142 141
f 149 143 142
f 149 139 143
f 150 151 156
f 150 156 155
f 151 152 157
f 151 157 156
f 152 153 158
f 152 158 157
f 153 154 159
f 153 159 158
f 154 150 155
f 154 155 159
f 160 151 150
f 160 152 151
f 160 153 152
f 160 154 153
f 160 150 154
f 161 162 167
f 161 167 166
f 162 163 168
f 162 168 167
f 163 164 169
f 163 169 168
f 164 165 170
f 164 170 169
f 165 161 166
f 165 166 170
f 171 162 161
f 171 163 162
f 171 164 163
f 171 165 164
f 171 161 165
f 172 166 167
f 172 167 168
f 172 168 169
f 172 169 170
f 172 170 166
f 1 6 5
f 2 7 6
f 3 8 7
f 4 5 8
f 5 6 10
f 5 10 9
f 6 7 11
f 6 11 10
f 7 8 12
f 7 12 11
f 8 5 9
f 8 9 12
f 9 10 14
f 10 11 15
f 11 12 16
f 12 9 13
f 189 190 195
f 189 195 194
f 190 191 196
f 190 196 195
f 191 192 197
f 191 197 196
f 192 193 198
f 192 198 197
f 193 189 194
f 193 194 198
f 199 190 189
f 199 191 190
f 199 192 191
f 199 193 192
f 199 189 193
f 200 194 195
f 200 195 196
f 200 196 197
f 200 197 198
f 200 198 194
f 1 6 5
f 2 7 6
f 3 8 7
f 4 5 8
f 5 6 10
f 5 10 9
f 6 7 11
f 6 11 10
f 7 8 12
f 7 12 11
f 8 5 9
f 8 9 12
f 9 10 14
f 10 11 15
f 11 12 16
f 12 9 13
f 217 218 223
f 217 223 222
f 218 219 224
f 218 224 223
f 219 220 225
f 219 225 224
f 220 221 226
f 220 226 225
f 221 217 222
f 221 222 226
f 227 218 217
f 227 219 218
f 227 220 219
f 227 221 220
f 227 217 221
f 228 222 223
f 228 223 224
f 228 224 225
f 228 225 226
f 228 226 222
f 1 6 5
f 2 7 6
f 3 8 7
f 4 5 8
f 5 6 10
f 5 10 9
f 6 7 11
f 6 11 10
f 7 8 12
f 7 12 11
f 8 5 9
f 8 9 12
f 9 10 14
f 10 11 15
f 11 12 16
f 12 9 13
f 245 246 251
f 245 251 250
f 246 247 252
f 246 252 251
f 247 248 253
f 247 253 252
f 248 249 254
f 248 254 253
f 249 245 250
f 249 250 254
f 255 246 245
f 255 247 246
f 255 248 247
f 255 249 248
f 255 245 249
f 256 250 251
f 256 251 252
f 256 252 253
f 256 253 254
f 256 254 250
f 1 6 5
f 2 7 6
f 3 8 7
f 4 5 8
f 5 6 10
f 5 10 9
f 6 7 11
f 6 11 10
f 7 8 12
f 7 12 11
f 8 5 9
f 8 9 12
f 9 10 14
f 10 11 15
f 11 12 16
f 12 9 13
f 273 274 279
f 273 279 278
f 274 275 280
f 274 280 279
f 275 276 281
f 275 281 280
f 276 277 282
f 276 282 281
f 277 273 278
f 277 278 282
f 283 274 273
f 283 275 274
f 283 276 275
f 283 277 276
f 283 273 277
f 284 285 289
f 285 286 289
f 286 287 289
f 287 288 289
f 288 284 289
f 290 285 284
f 290 286 285
f 290 287 286
f 290 288 287
f 290 284 288
f 291 292 295
f 292 293 295
f 293 294 295
f 294 291 295
f 296 292 291
f 296 293 292
f 296 294 293
f 296 291 294
f 297 298 301
f 298 299 301
f 299 300 301
f 300 297 301
f 302 298 297
f 302 299 298
f 302 300 299
f 302 297 300
f 303 304 307
f 304 305 307
f 305 306 307
f 306 303 307
f 308 304 303
f 308 305 304
f 308 306 305
f 308 303 306
f 309 310 313
f 310 311 313
f 311 312 313
f 312 309 313
f 314 310 309
f 314 311 310
f 314 312 311
f 314 309 312
