# Spirit Crane 仙鹤
# Xiuxian Character Model

v 0.0000 0.6200 0.0000
v 0.0000 0.6200 0.0000
v 0.0000 0.6200 0.0000
v 0.0000 0.6200 0.0000
v 0.0000 0.6200 0.0000
v 0.0000 0.6200 0.0000
v 0.1293 0.5780 0.0000
v 0.0647 0.5780 0.1120
v -0.0647 0.5780 0.1120
v -0.1293 0.5780 0.0000
v -0.0647 0.5780 -0.1120
v 0.0647 0.5780 -0.1120
v 0.2092 0.4680 0.0000
v 0.1046 0.4680 0.1812
v -0.1046 0.4680 0.1812
v -0.2092 0.4680 0.0000
v -0.1046 0.4680 -0.1812
v 0.1046 0.4680 -0.1812
v 0.2092 0.3320 0.0000
v 0.1046 0.3320 0.1812
v -0.1046 0.3320 0.1812
v -0.2092 0.3320 0.0000
v -0.1046 0.3320 -0.1812
v 0.1046 0.3320 -0.1812
v 0.1293 0.2220 0.0000
v 0.0647 0.2220 0.1120
v -0.0647 0.2220 0.1120
v -0.1293 0.2220 0.0000
v -0.0647 0.2220 -0.1120
v 0.0647 0.2220 -0.1120
v 0.0000 0.1800 0.0000
v 0.0000 0.1800 0.0000
v -0.0000 0.1800 0.0000
v -0.0000 0.1800 0.0000
v -0.0000 0.1800 -0.0000
v 0.0000 0.1800 -0.0000
v 0.1000 0.5800 0.0000
v 0.1000 0.5800 0.0000
v 0.1000 0.5800 0.0000
v 0.1000 0.5800 0.0000
v 0.1000 0.5800 0.0000
v 0.1566 0.5566 0.0000
v 0.1175 0.5566 0.0538
v 0.0542 0.5566 0.0333
v 0.0542 0.5566 -0.0333
v 0.1175 0.5566 -0.0538
v 0.1800 0.5000 0.0000
v 0.1247 0.5000 0.0761
v 0.0353 0.5000 0.0470
v 0.0353 0.5000 -0.0470
v 0.1247 0.5000 -0.0761
v 0.1566 0.4434 0.0000
v 0.1175 0.4434 0.0538
v 0.0542 0.4434 0.0333
v 0.0542 0.4434 -0.0333
v 0.1175 0.4434 -0.0538
v 0.1000 0.4200 0.0000
v 0.1000 0.4200 0.0000
v 0.1000 0.4200 0.0000
v 0.1000 0.4200 -0.0000
v 0.1000 0.4200 -0.0000
v 0.1500 0.7300 0.0000
v 0.1500 0.7300 0.0000
v 0.1500 0.7300 0.0000
v 0.1500 0.7300 0.0000
v 0.1500 0.7300 0.0000
v 0.2066 0.7066 0.0000
v 0.1675 0.7066 0.0538
v 0.1042 0.7066 0.0333
v 0.1042 0.7066 -0.0333
v 0.1675 0.7066 -0.0538
v 0.2300 0.6500 0.0000
v 0.1747 0.6500 0.0761
v 0.0853 0.6500 0.0470
v 0.0853 0.6500 -0.0470
v 0.1747 0.6500 -0.0761
v 0.2066 0.5934 0.0000
v 0.1675 0.5934 0.0538
v 0.1042 0.5934 0.0333
v 0.1042 0.5934 -0.0333
v 0.1675 0.5934 -0.0538
v 0.1500 0.5700 0.0000
v 0.1500 0.5700 0.0000
v 0.1500 0.5700 0.0000
v 0.1500 0.5700 -0.0000
v 0.1500 0.5700 -0.0000
v 0.2000 0.8800 0.0000
v 0.2000 0.8800 0.0000
v 0.2000 0.8800 0.0000
v 0.2000 0.8800 0.0000
v 0.2000 0.8800 0.0000
v 0.2566 0.8566 0.0000
v 0.2175 0.8566 0.0538
v 0.1542 0.8566 0.0333
v 0.1542 0.8566 -0.0333
v 0.2175 0.8566 -0.0538
v 0.2800 0.8000 0.0000
v 0.2247 0.8000 0.0761
v 0.1353 0.8000 0.0470
v 0.1353 0.8000 -0.0470
v 0.2247 0.8000 -0.0761
v 0.2566 0.7434 0.0000
v 0.2175 0.7434 0.0538
v 0.1542 0.7434 0.0333
v 0.1542 0.7434 -0.0333
v 0.2175 0.7434 -0.0538
v 0.2000 0.7200 0.0000
v 0.2000 0.7200 0.0000
v 0.2000 0.7200 0.0000
v 0.2000 0.7200 -0.0000
v 0.2000 0.7200 -0.0000
v 0.2200 1.0300 0.0000
v 0.2200 1.0300 0.0000
v 0.2200 1.0300 0.0000
v 0.2200 1.0300 0.0000
v 0.2200 1.0300 0.0000
v 0.2766 1.0066 0.0000
v 0.2375 1.0066 0.0538
v 0.1742 1.0066 0.0333
v 0.1742 1.0066 -0.0333
v 0.2375 1.0066 -0.0538
v 0.3000 0.9500 0.0000
v 0.2447 0.9500 0.0761
v 0.1553 0.9500 0.0470
v 0.1553 0.9500 -0.0470
v 0.2447 0.9500 -0.0761
v 0.2766 0.8934 0.0000
v 0.2375 0.8934 0.0538
v 0.1742 0.8934 0.0333
v 0.1742 0.8934 -0.0333
v 0.2375 0.8934 -0.0538
v 0.2200 0.8700 0.0000
v 0.2200 0.8700 0.0000
v 0.2200 0.8700 0.0000
v 0.2200 0.8700 -0.0000
v 0.2200 0.8700 -0.0000
v 0.2000 1.1800 0.0000
v 0.2000 1.1800 0.0000
v 0.2000 1.1800 0.0000
v 0.2000 1.1800 0.0000
v 0.2000 1.1800 0.0000
v 0.2566 1.1566 0.0000
v 0.2175 1.1566 0.0538
v 0.1542 1.1566 0.0333
v 0.1542 1.1566 -0.0333
v 0.2175 1.1566 -0.0538
v 0.2800 1.1000 0.0000
v 0.2247 1.1000 0.0761
v 0.1353 1.1000 0.0470
v 0.1353 1.1000 -0.0470
v 0.2247 1.1000 -0.0761
v 0.2566 1.0434 0.0000
v 0.2175 1.0434 0.0538
v 0.1542 1.0434 0.0333
v 0.1542 1.0434 -0.0333
v 0.2175 1.0434 -0.0538
v 0.2000 1.0200 0.0000
v 0.2000 1.0200 0.0000
v 0.2000 1.0200 0.0000
v 0.2000 1.0200 -0.0000
v 0.2000 1.0200 -0.0000
v 0.1800 1.3000 0.0000
v 0.1800 1.3000 0.0000
v 0.1800 1.3000 0.0000
v 0.1800 1.3000 0.0000
v 0.1800 1.3000 0.0000
v 0.2507 1.2707 0.0000
v 0.2019 1.2707 0.0672
v 0.1228 1.2707 0.0416
v 0.1228 1.2707 -0.0416
v 0.2019 1.2707 -0.0672
v 0.2800 1.2000 0.0000
v 0.2109 1.2000 0.0951
v 0.0991 1.2000 0.0588
v 0.0991 1.2000 -0.0588
v 0.2109 1.2000 -0.0951
v 0.2507 1.1293 0.0000
v 0.2019 1.1293 0.0672
v 0.1228 1.1293 0.0416
v 0.1228 1.1293 -0.0416
v 0.2019 1.1293 -0.0672
v 0.1800 1.1000 0.0000
v 0.1800 1.1000 0.0000
v 0.1800 1.1000 0.0000
v 0.1800 1.1000 -0.0000
v 0.1800 1.1000 -0.0000
v 0.3000 1.2000 0.0000
v 0.2800 1.2000 0.0200
v 0.2600 1.2000 0.0000
v 0.2800 1.2000 -0.0200
v 0.2800 1.3500 0.0000
v 0.2800 1.2000 0.0000
v 0.1600 1.3400 0.0000
v 0.1600 1.3400 0.0000
v 0.1600 1.3400 0.0000
v 0.1600 1.3400 0.0000
v 0.1946 1.3200 0.0000
v 0.1600 1.3200 0.0346
v 0.1254 1.3200 0.0000
v 0.1600 1.3200 -0.0346
v 0.1946 1.2800 0.0000
v 0.1600 1.2800 0.0346
v 0.1254 1.2800 0.0000
v 0.1600 1.2800 -0.0346
v 0.1600 1.2600 0.0000
v 0.1600 1.2600 0.0000
v 0.1600 1.2600 0.0000
v 0.1600 1.2600 -0.0000
v 0.0000 0.4000 -0.3000
v -0.0345 0.4000 -0.2524
v -0.0905 0.4000 -0.2706
v -0.0905 0.4000 -0.3294
v -0.0345 0.4000 -0.3476
v 0.0000 0.9000 -0.3000
v -0.0345 0.9000 -0.2524
v -0.0905 0.9000 -0.2706
v -0.0905 0.9000 -0.3294
v -0.0345 0.9000 -0.3476
v -0.0500 0.4000 -0.3000
v 0.0000 0.4000 0.3000
v -0.0345 0.4000 0.3476
v -0.0905 0.4000 0.3294
v -0.0905 0.4000 0.2706
v -0.0345 0.4000 0.2524
v 0.0000 0.9000 0.3000
v -0.0345 0.9000 0.3476
v -0.0905 0.9000 0.3294
v -0.0905 0.9000 0.2706
v -0.0345 0.9000 0.2524
v -0.0500 0.4000 0.3000
v -0.1800 0.3800 0.0000
v -0.2000 0.3800 0.0200
v -0.2200 0.3800 0.0000
v -0.2000 0.3800 -0.0200
v -0.1800 0.7300 0.0000
v -0.2000 0.7300 0.0200
v -0.2200 0.7300 0.0000
v -0.2000 0.7300 -0.0200
v -0.2000 0.3800 0.0000
v -0.2600 0.3800 0.0000
v -0.2800 0.3800 0.0200
v -0.3000 0.3800 0.0000
v -0.2800 0.3800 -0.0200
v -0.2600 0.6800 0.0000
v -0.2800 0.6800 0.0200
v -0.3000 0.6800 0.0000
v -0.2800 0.6800 -0.0200
v -0.2800 0.3800 0.0000
v -0.3400 0.3800 0.0000
v -0.3600 0.3800 0.0200
v -0.3800 0.3800 0.0000
v -0.3600 0.3800 -0.0200
v -0.3400 0.6300 0.0000
v -0.3600 0.6300 0.0200
v -0.3800 0.6300 0.0000
v -0.3600 0.6300 -0.0200
v -0.3600 0.3800 0.0000
v -0.4200 0.3800 0.0000
v -0.4400 0.3800 0.0200
v -0.4600 0.3800 0.0000
v -0.4400 0.3800 -0.0200
v -0.4200 0.5800 0.0000
v -0.4400 0.5800 0.0200
v -0.4600 0.5800 0.0000
v -0.4400 0.5800 -0.0200
v -0.4400 0.3800 0.0000
v -0.0300 0.1500 -0.0500
v -0.0500 0.1500 -0.0300
v -0.0700 0.1500 -0.0500
v -0.0500 0.1500 -0.0700
v -0.0300 0.5000 -0.0500
v -0.0500 0.5000 -0.0300
v -0.0700 0.5000 -0.0500
v -0.0500 0.5000 -0.0700
v -0.0500 0.1500 -0.0500
v -0.0500 0.5000 -0.0500
v 0.0700 0.1500 0.0500
v 0.0500 0.1500 0.0700
v 0.0300 0.1500 0.0500
v 0.0500 0.1500 0.0300
v 0.0700 0.5000 0.0500
v 0.0500 0.5000 0.0700
v 0.0300 0.5000 0.0500
v 0.0500 0.5000 0.0300
v 0.0500 0.1500 0.0500
v 0.0500 0.5000 0.0500
v -0.0500 -0.1600 -0.0500
v -0.0500 -0.1600 -0.0500
v -0.0500 -0.1600 -0.0500
v -0.0500 -0.1600 -0.0500
v -0.0154 -0.1800 -0.0500
v -0.0500 -0.1800 -0.0154
v -0.0846 -0.1800 -0.0500
v -0.0500 -0.1800 -0.0846
v -0.0154 -0.2200 -0.0500
v -0.0500 -0.2200 -0.0154
v -0.0846 -0.2200 -0.0500
v -0.0500 -0.2200 -0.0846
v -0.0500 -0.2400 -0.0500
v -0.0500 -0.2400 -0.0500
v -0.0500 -0.2400 -0.0500
v -0.0500 -0.2400 -0.0500
v 0.0500 -0.1600 0.0500
v 0.0500 -0.1600 0.0500
v 0.0500 -0.1600 0.0500
v 0.0500 -0.1600 0.0500
v 0.0846 -0.1800 0.0500
v 0.0500 -0.1800 0.0846
v 0.0154 -0.1800 0.0500
v 0.0500 -0.1800 0.0154
v 0.0846 -0.2200 0.0500
v 0.0500 -0.2200 0.0846
v 0.0154 -0.2200 0.0500
v 0.0500 -0.2200 0.0154
v 0.0500 -0.2400 0.0500
v 0.0500 -0.2400 0.0500
v 0.0500 -0.2400 0.0500
v 0.0500 -0.2400 0.0500

f 1 8 7
f 2 9 8
f 3 10 9
f 4 11 10
f 5 12 11
f 6 7 12
f 7 8 14
f 7 14 13
f 8 9 15
f 8 15 14
f 9 10 16
f 9 16 15
f 10 11 17
f 10 17 16
f 11 12 18
f 11 18 17
f 12 7 13
f 12 13 18
f 13 14 20
f 13 20 19
f 14 15 21
f 14 21 20
f 15 16 22
f 15 22 21
f 16 17 23
f 16 23 22
f 17 18 24
f 17 24 23
f 18 13 19
f 18 19 24
f 19 20 26
f 19 26 25
f 20 21 27
f 20 27 26
f 21 22 28
f 21 28 27
f 22 23 29
f 22 29 28
f 23 24 30
f 23 30 29
f 24 19 25
f 24 25 30
f 25 26 32
f 26 27 33
f 27 28 34
f 28 29 35
f 29 30 36
f 30 25 31
f 1 7 6
f 2 8 7
f 3 9 8
f 4 10 9
f 5 6 10
f 6 7 12
f 6 12 11
f 7 8 13
f 7 13 12
f 8 9 14
f 8 14 13
f 9 10 15
f 9 15 14
f 10 6 11
f 10 11 15
f 11 12 17
f 11 17 16
f 12 13 18
f 12 18 17
f 13 14 19
f 13 19 18
f 14 15 20
f 14 20 19
f 15 11 16
f 15 16 20
f 16 17 22
f 17 18 23
f 18 19 24
f 19 20 25
f 20 16 21
f 1 7 6
f 2 8 7
f 3 9 8
f 4 10 9
f 5 6 10
f 6 7 12
f 6 12 11
f 7 8 13
f 7 13 12
f 8 9 14
f 8 14 13
f 9 10 15
f 9 15 14
f 10 6 11
f 10 11 15
f 11 12 17
f 11 17 16
f 12 13 18
f 12 18 17
f 13 14 19
f 13 19 18
f 14 15 20
f 14 20 19
f 15 11 16
f 15 16 20
f 16 17 22
f 17 18 23
f 18 19 24
f 19 20 25
f 20 16 21
f 1 7 6
f 2 8 7
f 3 9 8
f 4 10 9
f 5 6 10
f 6 7 12
f 6 12 11
f 7 8 13
f 7 13 12
f 8 9 14
f 8 14 13
f 9 10 15
f 9 15 14
f 10 6 11
f 10 11 15
f 11 12 17
f 11 17 16
f 12 13 18
f 12 18 17
f 13 14 19
f 13 19 18
f 14 15 20
f 14 20 19
f 15 11 16
f 15 16 20
f 16 17 22
f 17 18 23
f 18 19 24
f 19 20 25
f 20 16 21
f 1 7 6
f 2 8 7
f 3 9 8
f 4 10 9
f 5 6 10
f 6 7 12
f 6 12 11
f 7 8 13
f 7 13 12
f 8 9 14
f 8 14 13
f 9 10 15
f 9 15 14
f 10 6 11
f 10 11 15
f 11 12 17
f 11 17 16
f 12 13 18
f 12 18 17
f 13 14 19
f 13 19 18
f 14 15 20
f 14 20 19
f 15 11 16
f 15 16 20
f 16 17 22
f 17 18 23
f 18 19 24
f 19 20 25
f 20 16 21
f 1 7 6
f 2 8 7
f 3 9 8
f 4 10 9
f 5 6 10
f 6 7 12
f 6 12 11
f 7 8 13
f 7 13 12
f 8 9 14
f 8 14 13
f 9 10 15
f 9 15 14
f 10 6 11
f 10 11 15
f 11 12 17
f 11 17 16
f 12 13 18
f 12 18 17
f 13 14 19
f 13 19 18
f 14 15 20
f 14 20 19
f 15 11 16
f 15 16 20
f 16 17 22
f 17 18 23
f 18 19 24
f 19 20 25
f 20 16 21
f 1 7 6
f 2 8 7
f 3 9 8
f 4 10 9
f 5 6 10
f 6 7 12
f 6 12 11
f 7 8 13
f 7 13 12
f 8 9 14
f 8 14 13
f 9 10 15
f 9 15 14
f 10 6 11
f 10 11 15
f 11 12 17
f 11 17 16
f 12 13 18
f 12 18 17
f 13 14 19
f 13 19 18
f 14 15 20
f 14 20 19
f 15 11 16
f 15 16 20
f 16 17 22
f 17 18 23
f 18 19 24
f 19 20 25
f 20 16 21
f 187 188 191
f 188 189 191
f 189 190 191
f 190 187 191
f 192 188 187
f 192 189 188
f 192 190 189
f 192 187 190
f 1 6 5
f 2 7 6
f 3 8 7
f 4 5 8
f 5 6 10
f 5 10 9
f 6 7 11
f 6 11 10
f 7 8 12
f 7 12 11
f 8 5 9
f 8 9 12
f 9 10 14
f 10 11 15
f 11 12 16
f 12 9 13
f 209 210 215
f 209 215 214
f 210 211 216
f 210 216 215
f 211 212 217
f 211 217 216
f 212 213 218
f 212 218 217
f 213 209 214
f 213 214 218
f 219 210 209
f 219 211 210
f 219 212 211
f 219 213 212
f 219 209 213
f 220 221 226
f 220 226 225
f 221 222 227
f 221 227 226
f 222 223 228
f 222 228 227
f 223 224 229
f 223 229 228
f 224 220 225
f 224 225 229
f 230 221 220
f 230 222 221
f 230 223 222
f 230 224 223
f 230 220 224
f 231 232 236
f 231 236 235
f 232 233 237
f 232 237 236
f 233 234 238
f 233 238 237
f 234 231 235
f 234 235 238
f 239 232 231
f 239 233 232
f 239 234 233
f 239 231 234
f 240 241 245
f 240 245 244
f 241 242 246
f 241 246 245
f 242 243 247
f 242 247 246
f 243 240 244
f 243 244 247
f 248 241 240
f 248 242 241
f 248 243 242
f 248 240 243
f 249 250 254
f 249 254 253
f 250 251 255
f 250 255 254
f 251 252 256
f 251 256 255
f 252 249 253
f 252 253 256
f 257 250 249
f 257 251 250
f 257 252 251
f 257 249 252
f 258 259 263
f 258 263 262
f 259 260 264
f 259 264 263
f 260 261 265
f 260 265 264
f 261 258 262
f 261 262 265
f 266 259 258
f 266 260 259
f 266 261 260
f 266 258 261
f 267 268 272
f 267 272 271
f 268 269 273
f 268 273 272
f 269 270 274
f 269 274 273
f 270 267 271
f 270 271 274
f 275 268 267
f 275 269 268
f 275 270 269
f 275 267 270
f 276 271 272
f 276 272 273
f 276 273 274
f 276 274 271
f 277 278 282
f 277 282 281
f 278 279 283
f 278 283 282
f 279 280 284
f 279 284 283
f 280 277 281
f 280 281 284
f 285 278 277
f 285 279 278
f 285 280 279
f 285 277 280
f 286 281 282
f 286 282 283
f 286 283 284
f 286 284 281
f 1 6 5
f 2 7 6
f 3 8 7
f 4 5 8
f 5 6 10
f 5 10 9
f 6 7 11
f 6 11 10
f 7 8 12
f 7 12 11
f 8 5 9
f 8 9 12
f 9 10 14
f 10 11 15
f 11 12 16
f 12 9 13
f 1 6 5
f 2 7 6
f 3 8 7
f 4 5 8
f 5 6 10
f 5 10 9
f 6 7 11
f 6 11 10
f 7 8 12
f 7 12 11
f 8 5 9
f 8 9 12
f 9 10 14
f 10 11 15
f 11 12 16
f 12 9 13
