# Spirit Tiger 灵虎
# Xiuxian Character Model

v 0.3500 0.4000 0.0000
v 0.2475 0.4000 0.2475
v 0.0000 0.4000 0.3500
v -0.2475 0.4000 0.2475
v -0.3500 0.4000 0.0000
v -0.2475 0.4000 -0.2475
v -0.0000 0.4000 -0.3500
v 0.2475 0.4000 -0.2475
v 0.3500 1.4000 0.0000
v 0.2475 1.4000 0.2475
v 0.0000 1.4000 0.3500
v -0.2475 1.4000 0.2475
v -0.3500 1.4000 0.0000
v -0.2475 1.4000 -0.2475
v -0.0000 1.4000 -0.3500
v 0.2475 1.4000 -0.2475
v 0.0000 0.4000 0.0000
v 0.0000 1.4000 0.0000
v -0.3500 0.6800 0.0000
v -0.3500 0.6800 0.0000
v -0.3500 0.6800 0.0000
v -0.3500 0.6800 0.0000
v -0.3500 0.6800 0.0000
v -0.3500 0.6800 0.0000
v -0.1854 0.6265 0.0000
v -0.2677 0.6265 0.1425
v -0.4323 0.6265 0.1425
v -0.5146 0.6265 0.0000
v -0.4323 0.6265 -0.1425
v -0.2677 0.6265 -0.1425
v -0.0837 0.4865 0.0000
v -0.2169 0.4865 0.2306
v -0.4831 0.4865 0.2306
v -0.6163 0.4865 0.0000
v -0.4831 0.4865 -0.2306
v -0.2169 0.4865 -0.2306
v -0.0837 0.3135 0.0000
v -0.2169 0.3135 0.2306
v -0.4831 0.3135 0.2306
v -0.6163 0.3135 0.0000
v -0.4831 0.3135 -0.2306
v -0.2169 0.3135 -0.2306
v -0.1854 0.1735 0.0000
v -0.2677 0.1735 0.1425
v -0.4323 0.1735 0.1425
v -0.5146 0.1735 0.0000
v -0.4323 0.1735 -0.1425
v -0.2677 0.1735 -0.1425
v -0.3500 0.1200 0.0000
v -0.3500 0.1200 0.0000
v -0.3500 0.1200 0.0000
v -0.3500 0.1200 0.0000
v -0.3500 0.1200 -0.0000
v -0.3500 0.1200 -0.0000
v 0.5000 0.8000 0.0000
v 0.5000 0.8000 0.0000
v 0.5000 0.8000 0.0000
v 0.5000 0.8000 0.0000
v 0.5000 0.8000 0.0000
v 0.5000 0.8000 0.0000
v 0.7057 0.7332 0.0000
v 0.6029 0.7332 0.1782
v 0.3971 0.7332 0.1782
v 0.2943 0.7332 0.0000
v 0.3971 0.7332 -0.1782
v 0.6029 0.7332 -0.1782
v 0.8329 0.5582 0.0000
v 0.6664 0.5582 0.2883
v 0.3336 0.5582 0.2883
v 0.1671 0.5582 0.0000
v 0.3336 0.5582 -0.2883
v 0.6664 0.5582 -0.2883
v 0.8329 0.3418 0.0000
v 0.6664 0.3418 0.2883
v 0.3336 0.3418 0.2883
v 0.1671 0.3418 0.0000
v 0.3336 0.3418 -0.2883
v 0.6664 0.3418 -0.2883
v 0.7057 0.1668 0.0000
v 0.6029 0.1668 0.1782
v 0.3971 0.1668 0.1782
v 0.2943 0.1668 0.0000
v 0.3971 0.1668 -0.1782
v 0.6029 0.1668 -0.1782
v 0.5000 0.1000 0.0000
v 0.5000 0.1000 0.0000
v 0.5000 0.1000 0.0000
v 0.5000 0.1000 0.0000
v 0.5000 0.1000 -0.0000
v 0.5000 0.1000 -0.0000
v 0.7500 0.8500 0.0000
v 0.7500 0.8500 0.0000
v 0.7500 0.8500 0.0000
v 0.7500 0.8500 0.0000
v 0.7500 0.8500 0.0000
v 0.7500 0.8500 0.0000
v 0.8969 0.8023 0.0000
v 0.8235 0.8023 0.1273
v 0.6765 0.8023 0.1273
v 0.6031 0.8023 0.0000
v 0.6765 0.8023 -0.1273
v 0.8235 0.8023 -0.1273
v 0.9878 0.6773 0.0000
v 0.8689 0.6773 0.2059
v 0.6311 0.6773 0.2059
v 0.5122 0.6773 0.0000
v 0.6311 0.6773 -0.2059
v 0.8689 0.6773 -0.2059
v 0.9878 0.5227 0.0000
v 0.8689 0.5227 0.2059
v 0.6311 0.5227 0.2059
v 0.5122 0.5227 0.0000
v 0.6311 0.5227 -0.2059
v 0.8689 0.5227 -0.2059
v 0.8969 0.3977 0.0000
v 0.8235 0.3977 0.1273
v 0.6765 0.3977 0.1273
v 0.6031 0.3977 0.0000
v 0.6765 0.3977 -0.1273
v 0.8235 0.3977 -0.1273
v 0.7500 0.3500 0.0000
v 0.7500 0.3500 0.0000
v 0.7500 0.3500 0.0000
v 0.7500 0.3500 0.0000
v 0.7500 0.3500 -0.0000
v 0.7500 0.3500 -0.0000
v 0.7200 0.9300 -0.1000
v 0.7200 0.9300 -0.1000
v 0.7200 0.9300 -0.1000
v 0.7200 0.9300 -0.1000
v 0.7893 0.8900 -0.1000
v 0.7200 0.8900 -0.0307
v 0.6507 0.8900 -0.1000
v 0.7200 0.8900 -0.1693
v 0.7893 0.8100 -0.1000
v 0.7200 0.8100 -0.0307
v 0.6507 0.8100 -0.1000
v 0.7200 0.8100 -0.1693
v 0.7200 0.7700 -0.1000
v 0.7200 0.7700 -0.1000
v 0.7200 0.7700 -0.1000
v 0.7200 0.7700 -0.1000
v 0.7200 0.9300 0.1000
v 0.7200 0.9300 0.1000
v 0.7200 0.9300 0.1000
v 0.7200 0.9300 0.1000
v 0.7893 0.8900 0.1000
v 0.7200 0.8900 0.1693
v 0.6507 0.8900 0.1000
v 0.7200 0.8900 0.0307
v 0.7893 0.8100 0.1000
v 0.7200 0.8100 0.1693
v 0.6507 0.8100 0.1000
v 0.7200 0.8100 0.0307
v 0.7200 0.7700 0.1000
v 0.7200 0.7700 0.1000
v 0.7200 0.7700 0.1000
v 0.7200 0.7700 0.1000
v 1.0200 0.5500 0.0000
v 0.9600 0.5500 0.1039
v 0.8400 0.5500 0.1039
v 0.7800 0.5500 0.0000
v 0.8400 0.5500 -0.1039
v 0.9600 0.5500 -0.1039
v 1.0200 0.7500 0.0000
v 0.9600 0.7500 0.1039
v 0.8400 0.7500 0.1039
v 0.7800 0.7500 0.0000
v 0.8400 0.7500 -0.1039
v 0.9600 0.7500 -0.1039
v 0.9000 0.5500 0.0000
v 0.9000 0.7500 0.0000
v -0.2200 0.1500 -0.1800
v -0.2753 0.1500 -0.1039
v -0.3647 0.1500 -0.1330
v -0.3647 0.1500 -0.2270
v -0.2753 0.1500 -0.2561
v -0.2200 0.4500 -0.1800
v -0.2753 0.4500 -0.1039
v -0.3647 0.4500 -0.1330
v -0.3647 0.4500 -0.2270
v -0.2753 0.4500 -0.2561
v -0.3000 0.1500 -0.1800
v -0.3000 0.4500 -0.1800
v -0.3000 0.0800 -0.1800
v -0.3000 0.0800 -0.1800
v -0.3000 0.0800 -0.1800
v -0.3000 0.0800 -0.1800
v -0.2134 0.0300 -0.1800
v -0.3000 0.0300 -0.0934
v -0.3866 0.0300 -0.1800
v -0.3000 0.0300 -0.2666
v -0.2134 -0.0700 -0.1800
v -0.3000 -0.0700 -0.0934
v -0.3866 -0.0700 -0.1800
v -0.3000 -0.0700 -0.2666
v -0.3000 -0.1200 -0.1800
v -0.3000 -0.1200 -0.1800
v -0.3000 -0.1200 -0.1800
v -0.3000 -0.1200 -0.1800
v -0.2200 0.1500 0.1800
v -0.2753 0.1500 0.2561
v -0.3647 0.1500 0.2270
v -0.3647 0.1500 0.1330
v -0.2753 0.1500 0.1039
v -0.2200 0.4500 0.1800
v -0.2753 0.4500 0.2561
v -0.3647 0.4500 0.2270
v -0.3647 0.4500 0.1330
v -0.2753 0.4500 0.1039
v -0.3000 0.1500 0.1800
v -0.3000 0.4500 0.1800
v -0.3000 0.0800 0.1800
v -0.3000 0.0800 0.1800
v -0.3000 0.0800 0.1800
v -0.3000 0.0800 0.1800
v -0.2134 0.0300 0.1800
v -0.3000 0.0300 0.2666
v -0.3866 0.0300 0.1800
v -0.3000 0.0300 0.0934
v -0.2134 -0.0700 0.1800
v -0.3000 -0.0700 0.2666
v -0.3866 -0.0700 0.1800
v -0.3000 -0.0700 0.0934
v -0.3000 -0.1200 0.1800
v -0.3000 -0.1200 0.1800
v -0.3000 -0.1200 0.1800
v -0.3000 -0.1200 0.1800
v 0.2800 0.1500 -0.1800
v 0.2247 0.1500 -0.1039
v 0.1353 0.1500 -0.1330
v 0.1353 0.1500 -0.2270
v 0.2247 0.1500 -0.2561
v 0.2800 0.4500 -0.1800
v 0.2247 0.4500 -0.1039
v 0.1353 0.4500 -0.1330
v 0.1353 0.4500 -0.2270
v 0.2247 0.4500 -0.2561
v 0.2000 0.1500 -0.1800
v 0.2000 0.4500 -0.1800
v 0.2000 0.0800 -0.1800
v 0.2000 0.0800 -0.1800
v 0.2000 0.0800 -0.1800
v 0.2000 0.0800 -0.1800
v 0.2866 0.0300 -0.1800
v 0.2000 0.0300 -0.0934
v 0.1134 0.0300 -0.1800
v 0.2000 0.0300 -0.2666
v 0.2866 -0.0700 -0.1800
v 0.2000 -0.0700 -0.0934
v 0.1134 -0.0700 -0.1800
v 0.2000 -0.0700 -0.2666
v 0.2000 -0.1200 -0.1800
v 0.2000 -0.1200 -0.1800
v 0.2000 -0.1200 -0.1800
v 0.2000 -0.1200 -0.1800
v 0.2800 0.1500 0.1800
v 0.2247 0.1500 0.2561
v 0.1353 0.1500 0.2270
v 0.1353 0.1500 0.1330
v 0.2247 0.1500 0.1039
v 0.2800 0.4500 0.1800
v 0.2247 0.4500 0.2561
v 0.1353 0.4500 0.2270
v 0.1353 0.4500 0.1330
v 0.2247 0.4500 0.1039
v 0.2000 0.1500 0.1800
v 0.2000 0.4500 0.1800
v 0.2000 0.0800 0.1800
v 0.2000 0.0800 0.1800
v 0.2000 0.0800 0.1800
v 0.2000 0.0800 0.1800
v 0.2866 0.0300 0.1800
v 0.2000 0.0300 0.2666
v 0.1134 0.0300 0.1800
v 0.2000 0.0300 0.0934
v 0.2866 -0.0700 0.1800
v 0.2000 -0.0700 0.2666
v 0.1134 -0.0700 0.1800
v 0.2000 -0.0700 0.0934
v 0.2000 -0.1200 0.1800
v 0.2000 -0.1200 0.1800
v 0.2000 -0.1200 0.1800
v 0.2000 -0.1200 0.1800
v -0.5400 0.4500 0.0000
v -0.5815 0.4500 0.0571
v -0.6485 0.4500 0.0353
v -0.6485 0.4500 -0.0353
v -0.5815 0.4500 -0.0571
v -0.5400 1.0500 0.0000
v -0.5815 1.0500 0.0571
v -0.6485 1.0500 0.0353
v -0.6485 1.0500 -0.0353
v -0.5815 1.0500 -0.0571
v -0.6000 0.4500 0.0000
v 0.1000 0.6600 -0.2000
v 0.1000 0.6600 -0.2000
v 0.1000 0.6600 -0.2000
v 0.1000 0.6600 -0.2000
v 0.1520 0.6300 -0.2000
v 0.1000 0.6300 -0.1480
v 0.0480 0.6300 -0.2000
v 0.1000 0.6300 -0.2520
v 0.1520 0.5700 -0.2000
v 0.1000 0.5700 -0.1480
v 0.0480 0.5700 -0.2000
v 0.1000 0.5700 -0.2520
v 0.1000 0.5400 -0.2000
v 0.1000 0.5400 -0.2000
v 0.1000 0.5400 -0.2000
v 0.1000 0.5400 -0.2000
v 0.1000 0.6600 0.2000
v 0.1000 0.6600 0.2000
v 0.1000 0.6600 0.2000
v 0.1000 0.6600 0.2000
v 0.1520 0.6300 0.2000
v 0.1000 0.6300 0.2520
v 0.0480 0.6300 0.2000
v 0.1000 0.6300 0.1480
v 0.1520 0.5700 0.2000
v 0.1000 0.5700 0.2520
v 0.0480 0.5700 0.2000
v 0.1000 0.5700 0.1480
v 0.1000 0.5400 0.2000
v 0.1000 0.5400 0.2000
v 0.1000 0.5400 0.2000
v 0.1000 0.5400 0.2000
v -0.1500 0.6000 -0.1800
v -0.1500 0.6000 -0.1800
v -0.1500 0.6000 -0.1800
v -0.1500 0.6000 -0.1800
v -0.1067 0.5750 -0.1800
v -0.1500 0.5750 -0.1367
v -0.1933 0.5750 -0.1800
v -0.1500 0.5750 -0.2233
v -0.1067 0.5250 -0.1800
v -0.1500 0.5250 -0.1367
v -0.1933 0.5250 -0.1800
v -0.1500 0.5250 -0.2233
v -0.1500 0.5000 -0.1800
v -0.1500 0.5000 -0.1800
v -0.1500 0.5000 -0.1800
v -0.1500 0.5000 -0.1800
v -0.1500 0.6000 0.1800
v -0.1500 0.6000 0.1800
v -0.1500 0.6000 0.1800
v -0.1500 0.6000 0.1800
v -0.1067 0.5750 0.1800
v -0.1500 0.5750 0.2233
v -0.1933 0.5750 0.1800
v -0.1500 0.5750 0.1367
v -0.1067 0.5250 0.1800
v -0.1500 0.5250 0.2233
v -0.1933 0.5250 0.1800
v -0.1500 0.5250 0.1367
v -0.1500 0.5000 0.1800
v -0.1500 0.5000 0.1800
v -0.1500 0.5000 0.1800
v -0.1500 0.5000 0.1800

f 1 2 10
f 1 10 9
f 2 3 11
f 2 11 10
f 3 4 12
f 3 12 11
f 4 5 13
f 4 13 12
f 5 6 14
f 5 14 13
f 6 7 15
f 6 15 14
f 7 8 16
f 7 16 15
f 8 1 9
f 8 9 16
f 17 2 1
f 17 3 2
f 17 4 3
f 17 5 4
f 17 6 5
f 17 7 6
f 17 8 7
f 17 1 8
f 18 9 10
f 18 10 11
f 18 11 12
f 18 12 13
f 18 13 14
f 18 14 15
f 18 15 16
f 18 16 9
f 1 8 7
f 2 9 8
f 3 10 9
f 4 11 10
f 5 12 11
f 6 7 12
f 7 8 14
f 7 14 13
f 8 9 15
f 8 15 14
f 9 10 16
f 9 16 15
f 10 11 17
f 10 17 16
f 11 12 18
f 11 18 17
f 12 7 13
f 12 13 18
f 13 14 20
f 13 20 19
f 14 15 21
f 14 21 20
f 15 16 22
f 15 22 21
f 16 17 23
f 16 23 22
f 17 18 24
f 17 24 23
f 18 13 19
f 18 19 24
f 19 20 26
f 19 26 25
f 20 21 27
f 20 27 26
f 21 22 28
f 21 28 27
f 22 23 29
f 22 29 28
f 23 24 30
f 23 30 29
f 24 19 25
f 24 25 30
f 25 26 32
f 26 27 33
f 27 28 34
f 28 29 35
f 29 30 36
f 30 25 31
f 1 8 7
f 2 9 8
f 3 10 9
f 4 11 10
f 5 12 11
f 6 7 12
f 7 8 14
f 7 14 13
f 8 9 15
f 8 15 14
f 9 10 16
f 9 16 15
f 10 11 17
f 10 17 16
f 11 12 18
f 11 18 17
f 12 7 13
f 12 13 18
f 13 14 20
f 13 20 19
f 14 15 21
f 14 21 20
f 15 16 22
f 15 22 21
f 16 17 23
f 16 23 22
f 17 18 24
f 17 24 23
f 18 13 19
f 18 19 24
f 19 20 26
f 19 26 25
f 20 21 27
f 20 27 26
f 21 22 28
f 21 28 27
f 22 23 29
f 22 29 28
f 23 24 30
f 23 30 29
f 24 19 25
f 24 25 30
f 25 26 32
f 26 27 33
f 27 28 34
f 28 29 35
f 29 30 36
f 30 25 31
f 1 8 7
f 2 9 8
f 3 10 9
f 4 11 10
f 5 12 11
f 6 7 12
f 7 8 14
f 7 14 13
f 8 9 15
f 8 15 14
f 9 10 16
f 9 16 15
f 10 11 17
f 10 17 16
f 11 12 18
f 11 18 17
f 12 7 13
f 12 13 18
f 13 14 20
f 13 20 19
f 14 15 21
f 14 21 20
f 15 16 22
f 15 22 21
f 16 17 23
f 16 23 22
f 17 18 24
f 17 24 23
f 18 13 19
f 18 19 24
f 19 20 26
f 19 26 25
f 20 21 27
f 20 27 26
f 21 22 28
f 21 28 27
f 22 23 29
f 22 29 28
f 23 24 30
f 23 30 29
f 24 19 25
f 24 25 30
f 25 26 32
f 26 27 33
f 27 28 34
f 28 29 35
f 29 30 36
f 30 25 31
f 1 6 5
f 2 7 6
f 3 8 7
f 4 5 8
f 5 6 10
f 5 10 9
f 6 7 11
f 6 11 10
f 7 8 12
f 7 12 11
f 8 5 9
f 8 9 12
f 9 10 14
f 10 11 15
f 11 12 16
f 12 9 13
f 1 6 5
f 2 7 6
f 3 8 7
f 4 5 8
f 5 6 10
f 5 10 9
f 6 7 11
f 6 11 10
f 7 8 12
f 7 12 11
f 8 5 9
f 8 9 12
f 9 10 14
f 10 11 15
f 11 12 16
f 12 9 13
f 159 160 166
f 159 166 165
f 160 161 167
f 160 167 166
f 161 162 168
f 161 168 167
f 162 163 169
f 162 169 168
f 163 164 170
f 163 170 169
f 164 159 165
f 164 165 170
f 171 160 159
f 171 161 160
f 171 162 161
f 171 163 162
f 171 164 163
f 171 159 164
f 172 165 166
f 172 166 167
f 172 167 168
f 172 168 169
f 172 169 170
f 172 170 165
f 173 174 179
f 173 179 178
f 174 175 180
f 174 180 179
f 175 176 181
f 175 181 180
f 176 177 182
f 176 182 181
f 177 173 178
f 177 178 182
f 183 174 173
f 183 175 174
f 183 176 175
f 183 177 176
f 183 173 177
f 184 178 179
f 184 179 180
f 184 180 181
f 184 181 182
f 184 182 178
f 1 6 5
f 2 7 6
f 3 8 7
f 4 5 8
f 5 6 10
f 5 10 9
f 6 7 11
f 6 11 10
f 7 8 12
f 7 12 11
f 8 5 9
f 8 9 12
f 9 10 14
f 10 11 15
f 11 12 16
f 12 9 13
f 201 202 207
f 201 207 206
f 202 203 208
f 202 208 207
f 203 204 209
f 203 209 208
f 204 205 210
f 204 210 209
f 205 201 206
f 205 206 210
f 211 202 201
f 211 203 202
f 211 204 203
f 211 205 204
f 211 201 205
f 212 206 207
f 212 207 208
f 212 208 209
f 212 209 210
f 212 210 206
f 1 6 5
f 2 7 6
f 3 8 7
f 4 5 8
f 5 6 10
f 5 10 9
f 6 7 11
f 6 11 10
f 7 8 12
f 7 12 11
f 8 5 9
f 8 9 12
f 9 10 14
f 10 11 15
f 11 12 16
f 12 9 13
f 229 230 235
f 229 235 234
f 230 231 236
f 230 236 235
f 231 232 237
f 231 237 236
f 232 233 238
f 232 238 237
f 233 229 234
f 233 234 238
f 239 230 229
f 239 231 230
f 239 232 231
f 239 233 232
f 239 229 233
f 240 234 235
f 240 235 236
f 240 236 237
f 240 237 238
f 240 238 234
f 1 6 5
f 2 7 6
f 3 8 7
f 4 5 8
f 5 6 10
f 5 10 9
f 6 7 11
f 6 11 10
f 7 8 12
f 7 12 11
f 8 5 9
f 8 9 12
f 9 10 14
f 10 11 15
f 11 12 16
f 12 9 13
f 257 258 263
f 257 263 262
f 258 259 264
f 258 264 263
f 259 260 265
f 259 265 264
f 260 261 266
f 260 266 265
f 261 257 262
f 261 262 266
f 267 258 257
f 267 259 258
f 267 260 259
f 267 261 260
f 267 257 261
f 268 262 263
f 268 263 264
f 268 264 265
f 268 265 266
f 268 266 262
f 1 6 5
f 2 7 6
f 3 8 7
f 4 5 8
f 5 6 10
f 5 10 9
f 6 7 11
f 6 11 10
f 7 8 12
f 7 12 11
f 8 5 9
f 8 9 12
f 9 10 14
f 10 11 15
f 11 12 16
f 12 9 13
f 285 286 291
f 285 291 290
f 286 287 292
f 286 292 291
f 287 288 293
f 287 293 292
f 288 289 294
f 288 294 293
f 289 285 290
f 289 290 294
f 295 286 285
f 295 287 286
f 295 288 287
f 295 289 288
f 295 285 289
f 1 6 5
f 2 7 6
f 3 8 7
f 4 5 8
f 5 6 10
f 5 10 9
f 6 7 11
f 6 11 10
f 7 8 12
f 7 12 11
f 8 5 9
f 8 9 12
f 9 10 14
f 10 11 15
f 11 12 16
f 12 9 13
f 1 6 5
f 2 7 6
f 3 8 7
f 4 5 8
f 5 6 10
f 5 10 9
f 6 7 11
f 6 11 10
f 7 8 12
f 7 12 11
f 8 5 9
f 8 9 12
f 9 10 14
f 10 11 15
f 11 12 16
f 12 9 13
f 1 6 5
f 2 7 6
f 3 8 7
f 4 5 8
f 5 6 10
f 5 10 9
f 6 7 11
f 6 11 10
f 7 8 12
f 7 12 11
f 8 5 9
f 8 9 12
f 9 10 14
f 10 11 15
f 11 12 16
f 12 9 13
f 1 6 5
f 2 7 6
f 3 8 7
f 4 5 8
f 5 6 10
f 5 10 9
f 6 7 11
f 6 11 10
f 7 8 12
f 7 12 11
f 8 5 9
f 8 9 12
f 9 10 14
f 10 11 15
f 11 12 16
f 12 9 13
