# Sword Cultivator 剑修
# Xiuxian Character Model

v 0.0000 1.7800 0.0000
v 0.0000 1.7800 0.0000
v 0.0000 1.7800 0.0000
v 0.0000 1.7800 0.0000
v 0.0000 1.7800 0.0000
v 0.0000 1.7800 0.0000
v 0.0000 1.7800 0.0000
v 0.0000 1.7800 0.0000
v 0.1150 1.7492 0.0000
v 0.0813 1.7492 0.0813
v 0.0000 1.7492 0.1150
v -0.0813 1.7492 0.0813
v -0.1150 1.7492 0.0000
v -0.0813 1.7492 -0.0813
v -0.0000 1.7492 -0.1150
v 0.0813 1.7492 -0.0813
v 0.1992 1.6650 0.0000
v 0.1408 1.6650 0.1408
v 0.0000 1.6650 0.1992
v -0.1408 1.6650 0.1408
v -0.1992 1.6650 0.0000
v -0.1408 1.6650 -0.1408
v -0.0000 1.6650 -0.1992
v 0.1408 1.6650 -0.1408
v 0.2300 1.5500 0.0000
v 0.1626 1.5500 0.1626
v 0.0000 1.5500 0.2300
v -0.1626 1.5500 0.1626
v -0.2300 1.5500 0.0000
v -0.1626 1.5500 -0.1626
v -0.0000 1.5500 -0.2300
v 0.1626 1.5500 -0.1626
v 0.1992 1.4350 0.0000
v 0.1408 1.4350 0.1408
v 0.0000 1.4350 0.1992
v -0.1408 1.4350 0.1408
v -0.1992 1.4350 0.0000
v -0.1408 1.4350 -0.1408
v -0.0000 1.4350 -0.1992
v 0.1408 1.4350 -0.1408
v 0.1150 1.3508 0.0000
v 0.0813 1.3508 0.0813
v 0.0000 1.3508 0.1150
v -0.0813 1.3508 0.0813
v -0.1150 1.3508 0.0000
v -0.0813 1.3508 -0.0813
v -0.0000 1.3508 -0.1150
v 0.0813 1.3508 -0.0813
v 0.0000 1.3200 0.0000
v 0.0000 1.3200 0.0000
v 0.0000 1.3200 0.0000
v -0.0000 1.3200 0.0000
v -0.0000 1.3200 0.0000
v -0.0000 1.3200 -0.0000
v -0.0000 1.3200 -0.0000
v 0.0000 1.3200 -0.0000
v 0.1000 1.7800 -0.0500
v 0.0623 1.7800 0.0282
v -0.0223 1.7800 0.0475
v -0.0901 1.7800 -0.0066
v -0.0901 1.7800 -0.0934
v -0.0223 1.7800 -0.1475
v 0.0623 1.7800 -0.1282
v 0.1000 2.0300 -0.0500
v 0.0623 2.0300 0.0282
v -0.0223 2.0300 0.0475
v -0.0901 2.0300 -0.0066
v -0.0901 2.0300 -0.0934
v -0.0223 2.0300 -0.1475
v 0.0623 2.0300 -0.1282
v 0.0000 1.7800 -0.0500
v 0.0000 2.0300 -0.0500
v 0.0800 2.0300 -0.0500
v 0.0400 2.0300 0.0193
v -0.0400 2.0300 0.0193
v -0.0800 2.0300 -0.0500
v -0.0400 2.0300 -0.1193
v 0.0400 2.0300 -0.1193
v 0.0000 2.1800 -0.0500
v 0.0000 2.0300 -0.0500
v 0.2500 0.9500 0.0000
v 0.1768 0.9500 0.1768
v 0.0000 0.9500 0.2500
v -0.1768 0.9500 0.1768
v -0.2500 0.9500 0.0000
v -0.1768 0.9500 -0.1768
v -0.0000 0.9500 -0.2500
v 0.1768 0.9500 -0.1768
v 0.2500 1.6500 0.0000
v 0.1768 1.6500 0.1768
v 0.0000 1.6500 0.2500
v -0.1768 1.6500 0.1768
v -0.2500 1.6500 0.0000
v -0.1768 1.6500 -0.1768
v -0.0000 1.6500 -0.2500
v 0.1768 1.6500 -0.1768
v 0.0000 0.9500 0.0000
v 0.0000 1.6500 0.0000
v 0.2600 0.4000 0.0000
v 0.1838 0.4000 0.1838
v 0.0000 0.4000 0.2600
v -0.1838 0.4000 0.1838
v -0.2600 0.4000 0.0000
v -0.1838 0.4000 -0.1838
v -0.0000 0.4000 -0.2600
v 0.1838 0.4000 -0.1838
v 0.2600 1.2000 0.0000
v 0.1838 1.2000 0.1838
v 0.0000 1.2000 0.2600
v -0.1838 1.2000 0.1838
v -0.2600 1.2000 0.0000
v -0.1838 1.2000 -0.1838
v -0.0000 1.2000 -0.2600
v 0.1838 1.2000 -0.1838
v 0.0000 0.4000 0.0000
v 0.0000 1.2000 0.0000
v -0.2800 1.0000 0.1000
v -0.3150 1.0000 0.1606
v -0.3850 1.0000 0.1606
v -0.4200 1.0000 0.1000
v -0.3850 1.0000 0.0394
v -0.3150 1.0000 0.0394
v -0.2800 1.5000 0.1000
v -0.3150 1.5000 0.1606
v -0.3850 1.5000 0.1606
v -0.4200 1.5000 0.1000
v -0.3850 1.5000 0.0394
v -0.3150 1.5000 0.0394
v -0.3500 1.0000 0.1000
v -0.3500 1.5000 0.1000
v 0.4200 1.0000 0.1000
v 0.3850 1.0000 0.1606
v 0.3150 1.0000 0.1606
v 0.2800 1.0000 0.1000
v 0.3150 1.0000 0.0394
v 0.3850 1.0000 0.0394
v 0.4200 1.5000 0.1000
v 0.3850 1.5000 0.1606
v 0.3150 1.5000 0.1606
v 0.2800 1.5000 0.1000
v 0.3150 1.5000 0.0394
v 0.3850 1.5000 0.0394
v 0.3500 1.0000 0.1000
v 0.3500 1.5000 0.1000
v -0.3500 0.8000 0.1200
v -0.3500 0.8000 0.1200
v -0.3500 0.8000 0.1200
v -0.3500 0.8000 0.1200
v -0.3500 0.8000 0.1200
v -0.3146 0.7854 0.1200
v -0.3391 0.7854 0.1536
v -0.3786 0.7854 0.1408
v -0.3786 0.7854 0.0992
v -0.3391 0.7854 0.0864
v -0.3000 0.7500 0.1200
v -0.3345 0.7500 0.1676
v -0.3905 0.7500 0.1494
v -0.3905 0.7500 0.0906
v -0.3345 0.7500 0.0724
v -0.3146 0.7146 0.1200
v -0.3391 0.7146 0.1536
v -0.3786 0.7146 0.1408
v -0.3786 0.7146 0.0992
v -0.3391 0.7146 0.0864
v -0.3500 0.7000 0.1200
v -0.3500 0.7000 0.1200
v -0.3500 0.7000 0.1200
v -0.3500 0.7000 0.1200
v -0.3500 0.7000 0.1200
v 0.3500 0.8000 0.1200
v 0.3500 0.8000 0.1200
v 0.3500 0.8000 0.1200
v 0.3500 0.8000 0.1200
v 0.3500 0.8000 0.1200
v 0.3854 0.7854 0.1200
v 0.3609 0.7854 0.1536
v 0.3214 0.7854 0.1408
v 0.3214 0.7854 0.0992
v 0.3609 0.7854 0.0864
v 0.4000 0.7500 0.1200
v 0.3655 0.7500 0.1676
v 0.3095 0.7500 0.1494
v 0.3095 0.7500 0.0906
v 0.3655 0.7500 0.0724
v 0.3854 0.7146 0.1200
v 0.3609 0.7146 0.1536
v 0.3214 0.7146 0.1408
v 0.3214 0.7146 0.0992
v 0.3609 0.7146 0.0864
v 0.3500 0.7000 0.1200
v 0.3500 0.7000 0.1200
v 0.3500 0.7000 0.1200
v 0.3500 0.7000 0.1200
v 0.3500 0.7000 0.1200
v -0.0200 0.2500 0.3450
v 0.0200 0.2500 0.3450
v 0.0200 1.4500 0.3450
v -0.0200 1.4500 0.3450
v -0.0200 0.2500 0.3550
v 0.0200 0.2500 0.3550
v 0.0200 1.4500 0.3550
v -0.0200 1.4500 0.3550
v -0.0300 0.3200 0.3400
v 0.0300 0.3200 0.3400
v 0.0300 0.4400 0.3400
v -0.0300 0.4400 0.3400
v -0.0300 0.3200 0.3600
v 0.0300 0.3200 0.3600
v 0.0300 0.4400 0.3600
v -0.0300 0.4400 0.3600
v 0.0300 0.3000 0.3500
v 0.0150 0.3000 0.3760
v -0.0150 0.3000 0.3760
v -0.0300 0.3000 0.3500
v -0.0150 0.3000 0.3240
v 0.0150 0.3000 0.3240
v 0.0300 0.3800 0.3500
v 0.0150 0.3800 0.3760
v -0.0150 0.3800 0.3760
v -0.0300 0.3800 0.3500
v -0.0150 0.3800 0.3240
v 0.0150 0.3800 0.3240
v 0.0000 0.3000 0.3500
v 0.0000 0.3800 0.3500
v -0.2500 1.4850 -0.4100
v 0.2500 1.4850 -0.4100
v 0.2500 1.5150 -0.4100
v -0.2500 1.5150 -0.4100
v -0.2500 1.4850 -0.3900
v 0.2500 1.4850 -0.3900
v 0.2500 1.5150 -0.3900
v -0.2500 1.5150 -0.3900
v -0.1750 1.1850 -0.4100
v 0.1750 1.1850 -0.4100
v 0.1750 1.2150 -0.4100
v -0.1750 1.2150 -0.4100
v -0.1750 1.1850 -0.3900
v 0.1750 1.1850 -0.3900
v 0.1750 1.2150 -0.3900
v -0.1750 1.2150 -0.3900
v 0.2800 0.9500 0.0000
v 0.1980 0.9500 0.1980
v 0.0000 0.9500 0.2800
v -0.1980 0.9500 0.1980
v -0.2800 0.9500 0.0000
v -0.1980 0.9500 -0.1980
v -0.0000 0.9500 -0.2800
v 0.1980 0.9500 -0.1980
v 0.2800 1.0300 0.0000
v 0.1980 1.0300 0.1980
v 0.0000 1.0300 0.2800
v -0.1980 1.0300 0.1980
v -0.2800 1.0300 0.0000
v -0.1980 1.0300 -0.1980
v -0.0000 1.0300 -0.2800
v 0.1980 1.0300 -0.1980
v -0.1600 0.0000 -0.0800
v -0.0400 0.0000 -0.0800
v -0.0400 0.0800 -0.0800
v -0.1600 0.0800 -0.0800
v -0.1600 0.0000 0.1200
v -0.0400 0.0000 0.1200
v -0.0400 0.0800 0.1200
v -0.1600 0.0800 0.1200
v 0.0400 0.0000 -0.0800
v 0.1600 0.0000 -0.0800
v 0.1600 0.0800 -0.0800
v 0.0400 0.0800 -0.0800
v 0.0400 0.0000 0.1200
v 0.1600 0.0000 0.1200
v 0.1600 0.0800 0.1200
v 0.0400 0.0800 0.1200

f 1 10 9
f 2 11 10
f 3 12 11
f 4 13 12
f 5 14 13
f 6 15 14
f 7 16 15
f 8 9 16
f 9 10 18
f 9 18 17
f 10 11 19
f 10 19 18
f 11 12 20
f 11 20 19
f 12 13 21
f 12 21 20
f 13 14 22
f 13 22 21
f 14 15 23
f 14 23 22
f 15 16 24
f 15 24 23
f 16 9 17
f 16 17 24
f 17 18 26
f 17 26 25
f 18 19 27
f 18 27 26
f 19 20 28
f 19 28 27
f 20 21 29
f 20 29 28
f 21 22 30
f 21 30 29
f 22 23 31
f 22 31 30
f 23 24 32
f 23 32 31
f 24 17 25
f 24 25 32
f 25 26 34
f 25 34 33
f 26 27 35
f 26 35 34
f 27 28 36
f 27 36 35
f 28 29 37
f 28 37 36
f 29 30 38
f 29 38 37
f 30 31 39
f 30 39 38
f 31 32 40
f 31 40 39
f 32 25 33
f 32 33 40
f 33 34 42
f 33 42 41
f 34 35 43
f 34 43 42
f 35 36 44
f 35 44 43
f 36 37 45
f 36 45 44
f 37 38 46
f 37 46 45
f 38 39 47
f 38 47 46
f 39 40 48
f 39 48 47
f 40 33 41
f 40 41 48
f 41 42 50
f 42 43 51
f 43 44 52
f 44 45 53
f 45 46 54
f 46 47 55
f 47 48 56
f 48 41 49
f 57 58 65
f 57 65 64
f 58 59 66
f 58 66 65
f 59 60 67
f 59 67 66
f 60 61 68
f 60 68 67
f 61 62 69
f 61 69 68
f 62 63 70
f 62 70 69
f 63 57 64
f 63 64 70
f 71 58 57
f 71 59 58
f 71 60 59
f 71 61 60
f 71 62 61
f 71 63 62
f 71 57 63
f 72 64 65
f 72 65 66
f 72 66 67
f 72 67 68
f 72 68 69
f 72 69 70
f 72 70 64
f 73 74 79
f 74 75 79
f 75 76 79
f 76 77 79
f 77 78 79
f 78 73 79
f 80 74 73
f 80 75 74
f 80 76 75
f 80 77 76
f 80 78 77
f 80 73 78
f 81 82 90
f 81 90 89
f 82 83 91
f 82 91 90
f 83 84 92
f 83 92 91
f 84 85 93
f 84 93 92
f 85 86 94
f 85 94 93
f 86 87 95
f 86 95 94
f 87 88 96
f 87 96 95
f 88 81 89
f 88 89 96
f 97 82 81
f 97 83 82
f 97 84 83
f 97 85 84
f 97 86 85
f 97 87 86
f 97 88 87
f 97 81 88
f 98 89 90
f 98 90 91
f 98 91 92
f 98 92 93
f 98 93 94
f 98 94 95
f 98 95 96
f 98 96 89
f 99 100 108
f 99 108 107
f 100 101 109
f 100 109 108
f 101 102 110
f 101 110 109
f 102 103 111
f 102 111 110
f 103 104 112
f 103 112 111
f 104 105 113
f 104 113 112
f 105 106 114
f 105 114 113
f 106 99 107
f 106 107 114
f 115 100 99
f 115 101 100
f 115 102 101
f 115 103 102
f 115 104 103
f 115 105 104
f 115 106 105
f 115 99 106
f 116 107 108
f 116 108 109
f 116 109 110
f 116 110 111
f 116 111 112
f 116 112 113
f 116 113 114
f 116 114 107
f 117 118 124
f 117 124 123
f 118 119 125
f 118 125 124
f 119 120 126
f 119 126 125
f 120 121 127
f 120 127 126
f 121 122 128
f 121 128 127
f 122 117 123
f 122 123 128
f 129 118 117
f 129 119 118
f 129 120 119
f 129 121 120
f 129 122 121
f 129 117 122
f 130 123 124
f 130 124 125
f 130 125 126
f 130 126 127
f 130 127 128
f 130 128 123
f 131 132 138
f 131 138 137
f 132 133 139
f 132 139 138
f 133 134 140
f 133 140 139
f 134 135 141
f 134 141 140
f 135 136 142
f 135 142 141
f 136 131 137
f 136 137 142
f 143 132 131
f 143 133 132
f 143 134 133
f 143 135 134
f 143 136 135
f 143 131 136
f 144 137 138
f 144 138 139
f 144 139 140
f 144 140 141
f 144 141 142
f 144 142 137
f 1 7 6
f 2 8 7
f 3 9 8
f 4 10 9
f 5 6 10
f 6 7 12
f 6 12 11
f 7 8 13
f 7 13 12
f 8 9 14
f 8 14 13
f 9 10 15
f 9 15 14
f 10 6 11
f 10 11 15
f 11 12 17
f 11 17 16
f 12 13 18
f 12 18 17
f 13 14 19
f 13 19 18
f 14 15 20
f 14 20 19
f 15 11 16
f 15 16 20
f 16 17 22
f 17 18 23
f 18 19 24
f 19 20 25
f 20 16 21
f 1 7 6
f 2 8 7
f 3 9 8
f 4 10 9
f 5 6 10
f 6 7 12
f 6 12 11
f 7 8 13
f 7 13 12
f 8 9 14
f 8 14 13
f 9 10 15
f 9 15 14
f 10 6 11
f 10 11 15
f 11 12 17
f 11 17 16
f 12 13 18
f 12 18 17
f 13 14 19
f 13 19 18
f 14 15 20
f 14 20 19
f 15 11 16
f 15 16 20
f 16 17 22
f 17 18 23
f 18 19 24
f 19 20 25
f 20 16 21
f 199 200 201
f 199 201 202
f 196 195 198
f 196 198 197
f 195 199 202
f 195 202 198
f 200 196 197
f 200 197 201
f 198 202 201
f 198 201 197
f 195 196 200
f 195 200 199
f 207 208 209
f 207 209 210
f 204 203 206
f 204 206 205
f 203 207 210
f 203 210 206
f 208 204 205
f 208 205 209
f 206 210 209
f 206 209 205
f 203 204 208
f 203 208 207
f 211 212 218
f 211 218 217
f 212 213 219
f 212 219 218
f 213 214 220
f 213 220 219
f 214 215 221
f 214 221 220
f 215 216 222
f 215 222 221
f 216 211 217
f 216 217 222
f 223 212 211
f 223 213 212
f 223 214 213
f 223 215 214
f 223 216 215
f 223 211 216
f 224 217 218
f 224 218 219
f 224 219 220
f 224 220 221
f 224 221 222
f 224 222 217
f 229 230 231
f 229 231 232
f 226 225 228
f 226 228 227
f 225 229 232
f 225 232 228
f 230 226 227
f 230 227 231
f 228 232 231
f 228 231 227
f 225 226 230
f 225 230 229
f 237 238 239
f 237 239 240
f 234 233 236
f 234 236 235
f 233 237 240
f 233 240 236
f 238 234 235
f 238 235 239
f 236 240 239
f 236 239 235
f 233 234 238
f 233 238 237
f 241 242 250
f 241 250 249
f 242 243 251
f 242 251 250
f 243 244 252
f 243 252 251
f 244 245 253
f 244 253 252
f 245 246 254
f 245 254 253
f 246 247 255
f 246 255 254
f 247 248 256
f 247 256 255
f 248 241 249
f 248 249 256
f 261 262 263
f 261 263 264
f 258 257 260
f 258 260 259
f 257 261 264
f 257 264 260
f 262 258 259
f 262 259 263
f 260 264 263
f 260 263 259
f 257 258 262
f 257 262 261
f 269 270 271
f 269 271 272
f 266 265 268
f 266 268 267
f 265 269 272
f 265 272 268
f 270 266 267
f 270 267 271
f 268 272 271
f 268 271 267
f 265 266 270
f 265 270 269
