# Alchemy Pavilion 炼丹阁
# Xiuxian Custom Model

v -2.0000 0.0000 -2.0000
v 2.0000 0.0000 -2.0000
v 2.0000 0.3000 -2.0000
v -2.0000 0.3000 -2.0000
v -2.0000 0.0000 2.0000
v 2.0000 0.0000 2.0000
v 2.0000 0.3000 2.0000
v -2.0000 0.3000 2.0000
v -1.7500 0.3000 1.6500
v 1.7500 0.3000 1.6500
v 1.7500 2.3000 1.6500
v -1.7500 2.3000 1.6500
v -1.7500 0.3000 1.8500
v 1.7500 0.3000 1.8500
v 1.7500 2.3000 1.8500
v -1.7500 2.3000 1.8500
v -1.8500 0.3000 -1.7500
v -1.6500 0.3000 -1.7500
v -1.6500 2.3000 -1.7500
v -1.8500 2.3000 -1.7500
v -1.8500 0.3000 1.7500
v -1.6500 0.3000 1.7500
v -1.6500 2.3000 1.7500
v -1.8500 2.3000 1.7500
v 1.6500 0.3000 -1.7500
v 1.8500 0.3000 -1.7500
v 1.8500 2.3000 -1.7500
v 1.6500 2.3000 -1.7500
v 1.6500 0.3000 1.7500
v 1.8500 0.3000 1.7500
v 1.8500 2.3000 1.7500
v 1.6500 2.3000 1.7500
v 0.1500 2.3000 1.2500
v 0.1061 2.3000 1.3561
v 0.0000 2.3000 1.4000
v -0.1061 2.3000 1.3561
v -0.1500 2.3000 1.2500
v -0.1061 2.3000 1.1439
v -0.0000 2.3000 1.1000
v 0.1061 2.3000 1.1439
v 0.1500 3.5000 1.2500
v 0.1061 3.5000 1.3561
v 0.0000 3.5000 1.4000
v -0.1061 3.5000 1.3561
v -0.1500 3.5000 1.2500
v -0.1061 3.5000 1.1439
v -0.0000 3.5000 1.1000
v 0.1061 3.5000 1.1439
v 0.0000 2.3000 1.2500
v 0.0000 3.5000 1.2500
v 0.4500 0.6000 0.0000
v 0.3641 0.6000 0.2645
v 0.1391 0.6000 0.4280
v -0.1391 0.6000 0.4280
v -0.3641 0.6000 0.2645
v -0.4500 0.6000 0.0000
v -0.3641 0.6000 -0.2645
v -0.1391 0.6000 -0.4280
v 0.1391 0.6000 -0.4280
v 0.3641 0.6000 -0.2645
v 0.4500 1.5000 0.0000
v 0.3641 1.5000 0.2645
v 0.1391 1.5000 0.4280
v -0.1391 1.5000 0.4280
v -0.3641 1.5000 0.2645
v -0.4500 1.5000 0.0000
v -0.3641 1.5000 -0.2645
v -0.1391 1.5000 -0.4280
v 0.1391 1.5000 -0.4280
v 0.3641 1.5000 -0.2645
v 0.0000 0.6000 0.0000
v 0.0000 1.5000 0.0000
v 0.5000 1.5000 0.0000
v 0.4045 1.5000 0.2939
v 0.1545 1.5000 0.4755
v -0.1545 1.5000 0.4755
v -0.4045 1.5000 0.2939
v -0.5000 1.5000 0.0000
v -0.4045 1.5000 -0.2939
v -0.1545 1.5000 -0.4755
v 0.1545 1.5000 -0.4755
v 0.4045 1.5000 -0.2939
v 0.0000 1.8500 0.0000
v 0.0000 1.5000 0.0000
v 0.3800 0.2000 0.0000
v 0.3500 0.2000 0.0520
v 0.2900 0.2000 0.0520
v 0.2600 0.2000 0.0000
v 0.2900 0.2000 -0.0520
v 0.3500 0.2000 -0.0520
v 0.3800 0.5000 0.0000
v 0.3500 0.5000 0.0520
v 0.2900 0.5000 0.0520
v 0.2600 0.5000 0.0000
v 0.2900 0.5000 -0.0520
v 0.3500 0.5000 -0.0520
v 0.3200 0.2000 0.0000
v 0.3200 0.5000 0.0000
v -0.1000 0.2000 0.2771
v -0.1300 0.2000 0.3291
v -0.1900 0.2000 0.3291
v -0.2200 0.2000 0.2771
v -0.1900 0.2000 0.2252
v -0.1300 0.2000 0.2252
v -0.1000 0.5000 0.2771
v -0.1300 0.5000 0.3291
v -0.1900 0.5000 0.3291
v -0.2200 0.5000 0.2771
v -0.1900 0.5000 0.2252
v -0.1300 0.5000 0.2252
v -0.1600 0.2000 0.2771
v -0.1600 0.5000 0.2771
v -0.1000 0.2000 -0.2771
v -0.1300 0.2000 -0.2252
v -0.1900 0.2000 -0.2252
v -0.2200 0.2000 -0.2771
v -0.1900 0.2000 -0.3291
v -0.1300 0.2000 -0.3291
v -0.1000 0.5000 -0.2771
v -0.1300 0.5000 -0.2252
v -0.1900 0.5000 -0.2252
v -0.2200 0.5000 -0.2771
v -0.1900 0.5000 -0.3291
v -0.1300 0.5000 -0.3291
v -0.1600 0.2000 -0.2771
v -0.1600 0.5000 -0.2771
v 0.3500 0.3000 0.0000
v 0.2475 0.3000 0.2475
v 0.0000 0.3000 0.3500
v -0.2475 0.3000 0.2475
v -0.3500 0.3000 0.0000
v -0.2475 0.3000 -0.2475
v -0.0000 0.3000 -0.3500
v 0.2475 0.3000 -0.2475
v 0.3500 0.4000 0.0000
v 0.2475 0.4000 0.2475
v 0.0000 0.4000 0.3500
v -0.2475 0.4000 0.2475
v -0.3500 0.4000 0.0000
v -0.2475 0.4000 -0.2475
v -0.0000 0.4000 -0.3500
v 0.2475 0.4000 -0.2475
v 0.0000 0.3000 0.0000
v 0.0000 0.4000 0.0000
v -2.0500 2.3000 -2.0500
v 2.0500 2.3000 -2.0500
v 2.0500 2.4000 -2.0500
v -2.0500 2.4000 -2.0500
v -2.0500 2.3000 2.0500
v 2.0500 2.3000 2.0500
v 2.0500 2.4000 2.0500
v -2.0500 2.4000 2.0500
v -2.5500 2.4500 -2.0500
v 2.5500 2.4500 -2.0500
v 2.5500 2.4500 2.0500
v -2.5500 2.4500 2.0500
v 0.0000 3.5500 -2.0500
v 0.0000 3.5500 2.0500
v -1.5500 0.4800 1.3250
v -0.9500 0.4800 1.3250
v -0.9500 0.5200 1.3250
v -1.5500 0.5200 1.3250
v -1.5500 0.4800 1.5750
v -0.9500 0.4800 1.5750
v -0.9500 0.5200 1.5750
v -1.5500 0.5200 1.5750
v 0.9500 0.4800 1.3250
v 1.5500 0.4800 1.3250
v 1.5500 0.5200 1.3250
v 0.9500 0.5200 1.3250
v 0.9500 0.4800 1.5750
v 1.5500 0.4800 1.5750
v 1.5500 0.5200 1.5750
v 0.9500 0.5200 1.5750
v -1.5500 0.9800 1.3250
v -0.9500 0.9800 1.3250
v -0.9500 1.0200 1.3250
v -1.5500 1.0200 1.3250
v -1.5500 0.9800 1.5750
v -0.9500 0.9800 1.5750
v -0.9500 1.0200 1.5750
v -1.5500 1.0200 1.5750
v 0.9500 0.9800 1.3250
v 1.5500 0.9800 1.3250
v 1.5500 1.0200 1.3250
v 0.9500 1.0200 1.3250
v 0.9500 0.9800 1.5750
v 1.5500 0.9800 1.5750
v 1.5500 1.0200 1.5750
v 0.9500 1.0200 1.5750

f 5 6 7
f 5 7 8
f 2 1 4
f 2 4 3
f 1 5 8
f 1 8 4
f 6 2 3
f 6 3 7
f 4 8 7
f 4 7 3
f 1 2 6
f 1 6 5
f 13 14 15
f 13 15 16
f 10 9 12
f 10 12 11
f 9 13 16
f 9 16 12
f 14 10 11
f 14 11 15
f 12 16 15
f 12 15 11
f 9 10 14
f 9 14 13
f 21 22 23
f 21 23 24
f 18 17 20
f 18 20 19
f 17 21 24
f 17 24 20
f 22 18 19
f 22 19 23
f 20 24 23
f 20 23 19
f 17 18 22
f 17 22 21
f 29 30 31
f 29 31 32
f 26 25 28
f 26 28 27
f 25 29 32
f 25 32 28
f 30 26 27
f 30 27 31
f 28 32 31
f 28 31 27
f 25 26 30
f 25 30 29
f 33 34 42
f 33 42 41
f 34 35 43
f 34 43 42
f 35 36 44
f 35 44 43
f 36 37 45
f 36 45 44
f 37 38 46
f 37 46 45
f 38 39 47
f 38 47 46
f 39 40 48
f 39 48 47
f 40 33 41
f 40 41 48
f 49 34 33
f 50 41 42
f 49 35 34
f 50 42 43
f 49 36 35
f 50 43 44
f 49 37 36
f 50 44 45
f 49 38 37
f 50 45 46
f 49 39 38
f 50 46 47
f 49 40 39
f 50 47 48
f 49 33 40
f 50 48 41
f 51 52 62
f 51 62 61
f 52 53 63
f 52 63 62
f 53 54 64
f 53 64 63
f 54 55 65
f 54 65 64
f 55 56 66
f 55 66 65
f 56 57 67
f 56 67 66
f 57 58 68
f 57 68 67
f 58 59 69
f 58 69 68
f 59 60 70
f 59 70 69
f 60 51 61
f 60 61 70
f 71 52 51
f 72 61 62
f 71 53 52
f 72 62 63
f 71 54 53
f 72 63 64
f 71 55 54
f 72 64 65
f 71 56 55
f 72 65 66
f 71 57 56
f 72 66 67
f 71 58 57
f 72 67 68
f 71 59 58
f 72 68 69
f 71 60 59
f 72 69 70
f 71 51 60
f 72 70 61
f 73 74 83
f 74 75 83
f 75 76 83
f 76 77 83
f 77 78 83
f 78 79 83
f 79 80 83
f 80 81 83
f 81 82 83
f 82 73 83
f 84 74 73
f 84 75 74
f 84 76 75
f 84 77 76
f 84 78 77
f 84 79 78
f 84 80 79
f 84 81 80
f 84 82 81
f 84 73 82
f 85 86 92
f 85 92 91
f 86 87 93
f 86 93 92
f 87 88 94
f 87 94 93
f 88 89 95
f 88 95 94
f 89 90 96
f 89 96 95
f 90 85 91
f 90 91 96
f 97 86 85
f 98 91 92
f 97 87 86
f 98 92 93
f 97 88 87
f 98 93 94
f 97 89 88
f 98 94 95
f 97 90 89
f 98 95 96
f 97 85 90
f 98 96 91
f 99 100 106
f 99 106 105
f 100 101 107
f 100 107 106
f 101 102 108
f 101 108 107
f 102 103 109
f 102 109 108
f 103 104 110
f 103 110 109
f 104 99 105
f 104 105 110
f 111 100 99
f 112 105 106
f 111 101 100
f 112 106 107
f 111 102 101
f 112 107 108
f 111 103 102
f 112 108 109
f 111 104 103
f 112 109 110
f 111 99 104
f 112 110 105
f 113 114 120
f 113 120 119
f 114 115 121
f 114 121 120
f 115 116 122
f 115 122 121
f 116 117 123
f 116 123 122
f 117 118 124
f 117 124 123
f 118 113 119
f 118 119 124
f 125 114 113
f 126 119 120
f 125 115 114
f 126 120 121
f 125 116 115
f 126 121 122
f 125 117 116
f 126 122 123
f 125 118 117
f 126 123 124
f 125 113 118
f 126 124 119
f 127 128 136
f 127 136 135
f 128 129 137
f 128 137 136
f 129 130 138
f 129 138 137
f 130 131 139
f 130 139 138
f 131 132 140
f 131 140 139
f 132 133 141
f 132 141 140
f 133 134 142
f 133 142 141
f 134 127 135
f 134 135 142
f 143 128 127
f 144 135 136
f 143 129 128
f 144 136 137
f 143 130 129
f 144 137 138
f 143 131 130
f 144 138 139
f 143 132 131
f 144 139 140
f 143 133 132
f 144 140 141
f 143 134 133
f 144 141 142
f 143 127 134
f 144 142 135
f 149 150 151
f 149 151 152
f 146 145 148
f 146 148 147
f 145 149 152
f 145 152 148
f 150 146 147
f 150 147 151
f 148 152 151
f 148 151 147
f 145 146 150
f 145 150 149
f 153 157 154
f 156 158 155
f 153 156 158
f 158 157 153
f 154 158 155
f 154 157 158
f 163 164 165
f 163 165 166
f 160 159 162
f 160 162 161
f 159 163 166
f 159 166 162
f 164 160 161
f 164 161 165
f 162 166 165
f 162 165 161
f 159 160 164
f 159 164 163
f 171 172 173
f 171 173 174
f 168 167 170
f 168 170 169
f 167 171 174
f 167 174 170
f 172 168 169
f 172 169 173
f 170 174 173
f 170 173 169
f 167 168 172
f 167 172 171
f 179 180 181
f 179 181 182
f 176 175 178
f 176 178 177
f 175 179 182
f 175 182 178
f 180 176 177
f 180 177 181
f 178 182 181
f 178 181 177
f 175 176 180
f 175 180 179
f 187 188 189
f 187 189 190
f 184 183 186
f 184 186 185
f 183 187 190
f 183 190 186
f 188 184 185
f 188 185 189
f 186 190 189
f 186 189 185
f 183 184 188
f 183 188 187
