# Immortal Cave 仙人洞府
# Xiuxian Custom Model

v -2.7500 0.0000 -1.0000
v -1.2500 0.0000 -1.0000
v -1.2500 3.0000 -1.0000
v -2.7500 3.0000 -1.0000
v -2.7500 0.0000 1.0000
v -1.2500 0.0000 1.0000
v -1.2500 3.0000 1.0000
v -2.7500 3.0000 1.0000
v 1.2500 0.0000 -1.0000
v 2.7500 0.0000 -1.0000
v 2.7500 3.0000 -1.0000
v 1.2500 3.0000 -1.0000
v 1.2500 0.0000 1.0000
v 2.7500 0.0000 1.0000
v 2.7500 3.0000 1.0000
v 1.2500 3.0000 1.0000
v -1.2500 2.9500 -1.0000
v 1.2500 2.9500 -1.0000
v 1.2500 3.4500 -1.0000
v -1.2500 3.4500 -1.0000
v -1.2500 2.9500 1.0000
v 1.2500 2.9500 1.0000
v 1.2500 3.4500 1.0000
v -1.2500 3.4500 1.0000
v -0.9000 3.5000 0.3000
v -1.1259 3.5000 0.7691
v -1.6335 3.5000 0.8850
v -2.0406 3.5000 0.5603
v -2.0406 3.5000 0.0397
v -1.6335 3.5000 -0.2850
v -1.1259 3.5000 -0.1691
v -0.9000 4.5000 0.3000
v -1.1259 4.5000 0.7691
v -1.6335 4.5000 0.8850
v -2.0406 4.5000 0.5603
v -2.0406 4.5000 0.0397
v -1.6335 4.5000 -0.2850
v -1.1259 4.5000 -0.1691
v -1.5000 3.5000 0.3000
v -1.5000 4.5000 0.3000
v 2.0000 3.5000 -0.2000
v 1.7500 3.5000 0.2330
v 1.2500 3.5000 0.2330
v 1.0000 3.5000 -0.2000
v 1.2500 3.5000 -0.6330
v 1.7500 3.5000 -0.6330
v 2.0000 4.3000 -0.2000
v 1.7500 4.3000 0.2330
v 1.2500 4.3000 0.2330
v 1.0000 4.3000 -0.2000
v 1.2500 4.3000 -0.6330
v 1.7500 4.3000 -0.6330
v 1.5000 3.5000 -0.2000
v 1.5000 4.3000 -0.2000
v -0.4000 3.8000 -0.5000
v -0.6764 3.8000 -0.1196
v -1.1236 3.8000 -0.2649
v -1.1236 3.8000 -0.7351
v -0.6764 3.8000 -0.8804
v -0.4000 4.4000 -0.5000
v -0.6764 4.4000 -0.1196
v -1.1236 4.4000 -0.2649
v -1.1236 4.4000 -0.7351
v -0.6764 4.4000 -0.8804
v -0.8000 3.8000 -0.5000
v -0.8000 4.4000 -0.5000
v -1.0000 0.0000 -0.7500
v 1.0000 0.0000 -0.7500
v 1.0000 0.1000 -0.7500
v -1.0000 0.1000 -0.7500
v -1.0000 0.0000 1.7500
v 1.0000 0.0000 1.7500
v 1.0000 0.1000 1.7500
v -1.0000 0.1000 1.7500
v -0.6000 0.1000 0.7000
v 0.6000 0.1000 0.7000
v 0.6000 0.6000 0.7000
v -0.6000 0.6000 0.7000
v -0.6000 0.1000 1.7000
v 0.6000 0.1000 1.7000
v 0.6000 0.6000 1.7000
v -0.6000 0.6000 1.7000
v -1.7800 1.0000 0.8000
v -1.8000 1.0000 0.8200
v -1.8200 1.0000 0.8000
v -1.8000 1.0000 0.7800
v -1.7800 2.0000 0.8000
v -1.8000 2.0000 0.8200
v -1.8200 2.0000 0.8000
v -1.8000 2.0000 0.7800
v -1.8000 1.0000 0.8000
v -1.8000 2.0000 0.8000
v 1.8200 1.0000 0.8000
v 1.8000 1.0000 0.8200
v 1.7800 1.0000 0.8000
v 1.8000 1.0000 0.7800
v 1.8200 2.0000 0.8000
v 1.8000 2.0000 0.8200
v 1.7800 2.0000 0.8000
v 1.8000 2.0000 0.7800
v 1.8000 1.0000 0.8000
v 1.8000 2.0000 0.8000
v -1.7800 2.0000 0.8000
v -1.8000 2.0000 0.8200
v -1.8200 2.0000 0.8000
v -1.8000 2.0000 0.7800
v -1.7800 3.0000 0.8000
v -1.8000 3.0000 0.8200
v -1.8200 3.0000 0.8000
v -1.8000 3.0000 0.7800
v -1.8000 2.0000 0.8000
v -1.8000 3.0000 0.8000
v 1.8200 2.0000 0.8000
v 1.8000 2.0000 0.8200
v 1.7800 2.0000 0.8000
v 1.8000 2.0000 0.7800
v 1.8200 3.0000 0.8000
v 1.8000 3.0000 0.8200
v 1.7800 3.0000 0.8000
v 1.8000 3.0000 0.7800
v 1.8000 2.0000 0.8000
v 1.8000 3.0000 0.8000
v -1.7800 3.0000 0.8000
v -1.8000 3.0000 0.8200
v -1.8200 3.0000 0.8000
v -1.8000 3.0000 0.7800
v -1.7800 4.0000 0.8000
v -1.8000 4.0000 0.8200
v -1.8200 4.0000 0.8000
v -1.8000 4.0000 0.7800
v -1.8000 3.0000 0.8000
v -1.8000 4.0000 0.8000
v 1.8200 3.0000 0.8000
v 1.8000 3.0000 0.8200
v 1.7800 3.0000 0.8000
v 1.8000 3.0000 0.7800
v 1.8200 4.0000 0.8000
v 1.8000 4.0000 0.8200
v 1.7800 4.0000 0.8000
v 1.8000 4.0000 0.7800
v 1.8000 3.0000 0.8000
v 1.8000 4.0000 0.8000
v -0.8500 0.1500 1.5000
v -0.9536 0.1500 1.6427
v -1.1214 0.1500 1.5882
v -1.1214 0.1500 1.4118
v -0.9536 0.1500 1.3573
v -0.8500 0.4500 1.5000
v -0.9536 0.4500 1.6427
v -1.1214 0.4500 1.5882
v -1.1214 0.4500 1.4118
v -0.9536 0.4500 1.3573
v -1.0000 0.1500 1.5000
v -1.0000 0.4500 1.5000
v 0.8200 0.1200 1.8000
v 0.7600 0.1200 1.9039
v 0.6400 0.1200 1.9039
v 0.5800 0.1200 1.8000
v 0.6400 0.1200 1.6961
v 0.7600 0.1200 1.6961
v 0.8200 0.3700 1.8000
v 0.7600 0.3700 1.9039
v 0.6400 0.3700 1.9039
v 0.5800 0.3700 1.8000
v 0.6400 0.3700 1.6961
v 0.7600 0.3700 1.6961
v 0.7000 0.1200 1.8000
v 0.7000 0.3700 1.8000

f 5 6 7
f 5 7 8
f 2 1 4
f 2 4 3
f 1 5 8
f 1 8 4
f 6 2 3
f 6 3 7
f 4 8 7
f 4 7 3
f 1 2 6
f 1 6 5
f 13 14 15
f 13 15 16
f 10 9 12
f 10 12 11
f 9 13 16
f 9 16 12
f 14 10 11
f 14 11 15
f 12 16 15
f 12 15 11
f 9 10 14
f 9 14 13
f 21 22 23
f 21 23 24
f 18 17 20
f 18 20 19
f 17 21 24
f 17 24 20
f 22 18 19
f 22 19 23
f 20 24 23
f 20 23 19
f 17 18 22
f 17 22 21
f 25 26 33
f 25 33 32
f 26 27 34
f 26 34 33
f 27 28 35
f 27 35 34
f 28 29 36
f 28 36 35
f 29 30 37
f 29 37 36
f 30 31 38
f 30 38 37
f 31 25 32
f 31 32 38
f 39 26 25
f 40 32 33
f 39 27 26
f 40 33 34
f 39 28 27
f 40 34 35
f 39 29 28
f 40 35 36
f 39 30 29
f 40 36 37
f 39 31 30
f 40 37 38
f 39 25 31
f 40 38 32
f 41 42 48
f 41 48 47
f 42 43 49
f 42 49 48
f 43 44 50
f 43 50 49
f 44 45 51
f 44 51 50
f 45 46 52
f 45 52 51
f 46 41 47
f 46 47 52
f 53 42 41
f 54 47 48
f 53 43 42
f 54 48 49
f 53 44 43
f 54 49 50
f 53 45 44
f 54 50 51
f 53 46 45
f 54 51 52
f 53 41 46
f 54 52 47
f 55 56 61
f 55 61 60
f 56 57 62
f 56 62 61
f 57 58 63
f 57 63 62
f 58 59 64
f 58 64 63
f 59 55 60
f 59 60 64
f 65 56 55
f 66 60 61
f 65 57 56
f 66 61 62
f 65 58 57
f 66 62 63
f 65 59 58
f 66 63 64
f 65 55 59
f 66 64 60
f 71 72 73
f 71 73 74
f 68 67 70
f 68 70 69
f 67 71 74
f 67 74 70
f 72 68 69
f 72 69 73
f 70 74 73
f 70 73 69
f 67 68 72
f 67 72 71
f 79 80 81
f 79 81 82
f 76 75 78
f 76 78 77
f 75 79 82
f 75 82 78
f 80 76 77
f 80 77 81
f 78 82 81
f 78 81 77
f 75 76 80
f 75 80 79
f 83 84 88
f 83 88 87
f 84 85 89
f 84 89 88
f 85 86 90
f 85 90 89
f 86 83 87
f 86 87 90
f 91 84 83
f 92 87 88
f 91 85 84
f 92 88 89
f 91 86 85
f 92 89 90
f 91 83 86
f 92 90 87
f 93 94 98
f 93 98 97
f 94 95 99
f 94 99 98
f 95 96 100
f 95 100 99
f 96 93 97
f 96 97 100
f 101 94 93
f 102 97 98
f 101 95 94
f 102 98 99
f 101 96 95
f 102 99 100
f 101 93 96
f 102 100 97
f 103 104 108
f 103 108 107
f 104 105 109
f 104 109 108
f 105 106 110
f 105 110 109
f 106 103 107
f 106 107 110
f 111 104 103
f 112 107 108
f 111 105 104
f 112 108 109
f 111 106 105
f 112 109 110
f 111 103 106
f 112 110 107
f 113 114 118
f 113 118 117
f 114 115 119
f 114 119 118
f 115 116 120
f 115 120 119
f 116 113 117
f 116 117 120
f 121 114 113
f 122 117 118
f 121 115 114
f 122 118 119
f 121 116 115
f 122 119 120
f 121 113 116
f 122 120 117
f 123 124 128
f 123 128 127
f 124 125 129
f 124 129 128
f 125 126 130
f 125 130 129
f 126 123 127
f 126 127 130
f 131 124 123
f 132 127 128
f 131 125 124
f 132 128 129
f 131 126 125
f 132 129 130
f 131 123 126
f 132 130 127
f 133 134 138
f 133 138 137
f 134 135 139
f 134 139 138
f 135 136 140
f 135 140 139
f 136 133 137
f 136 137 140
f 141 134 133
f 142 137 138
f 141 135 134
f 142 138 139
f 141 136 135
f 142 139 140
f 141 133 136
f 142 140 137
f 143 144 149
f 143 149 148
f 144 145 150
f 144 150 149
f 145 146 151
f 145 151 150
f 146 147 152
f 146 152 151
f 147 143 148
f 147 148 152
f 153 144 143
f 154 148 149
f 153 145 144
f 154 149 150
f 153 146 145
f 154 150 151
f 153 147 146
f 154 151 152
f 153 143 147
f 154 152 148
f 155 156 162
f 155 162 161
f 156 157 163
f 156 163 162
f 157 158 164
f 157 164 163
f 158 159 165
f 158 165 164
f 159 160 166
f 159 166 165
f 160 155 161
f 160 161 166
f 167 156 155
f 168 161 162
f 167 157 156
f 168 162 163
f 167 158 157
f 168 163 164
f 167 159 158
f 168 164 165
f 167 160 159
f 168 165 166
f 167 155 160
f 168 166 161
