# Mountain Gate 山门
# Xiuxian Custom Model

v -3.5000 0.0000 -1.0000
v 3.5000 0.0000 -1.0000
v 3.5000 0.3000 -1.0000
v -3.5000 0.3000 -1.0000
v -3.5000 0.0000 1.0000
v 3.5000 0.0000 1.0000
v 3.5000 0.3000 1.0000
v -3.5000 0.3000 1.0000
v -2.3000 0.3000 0.0000
v -2.3382 0.3000 0.1176
v -2.4382 0.3000 0.1902
v -2.5618 0.3000 0.1902
v -2.6618 0.3000 0.1176
v -2.7000 0.3000 0.0000
v -2.6618 0.3000 -0.1176
v -2.5618 0.3000 -0.1902
v -2.4382 0.3000 -0.1902
v -2.3382 0.3000 -0.1176
v -2.3000 5.3000 0.0000
v -2.3382 5.3000 0.1176
v -2.4382 5.3000 0.1902
v -2.5618 5.3000 0.1902
v -2.6618 5.3000 0.1176
v -2.7000 5.3000 0.0000
v -2.6618 5.3000 -0.1176
v -2.5618 5.3000 -0.1902
v -2.4382 5.3000 -0.1902
v -2.3382 5.3000 -0.1176
v -2.5000 0.3000 0.0000
v -2.5000 5.3000 0.0000
v 2.7000 0.3000 0.0000
v 2.6618 0.3000 0.1176
v 2.5618 0.3000 0.1902
v 2.4382 0.3000 0.1902
v 2.3382 0.3000 0.1176
v 2.3000 0.3000 0.0000
v 2.3382 0.3000 -0.1176
v 2.4382 0.3000 -0.1902
v 2.5618 0.3000 -0.1902
v 2.6618 0.3000 -0.1176
v 2.7000 5.3000 0.0000
v 2.6618 5.3000 0.1176
v 2.5618 5.3000 0.1902
v 2.4382 5.3000 0.1902
v 2.3382 5.3000 0.1176
v 2.3000 5.3000 0.0000
v 2.3382 5.3000 -0.1176
v 2.4382 5.3000 -0.1902
v 2.5618 5.3000 -0.1902
v 2.6618 5.3000 -0.1176
v 2.5000 0.3000 0.0000
v 2.5000 5.3000 0.0000
v -1.1000 0.3000 0.0000
v -1.1439 0.3000 0.1061
v -1.2500 0.3000 0.1500
v -1.3561 0.3000 0.1061
v -1.4000 0.3000 0.0000
v -1.3561 0.3000 -0.1061
v -1.2500 0.3000 -0.1500
v -1.1439 0.3000 -0.1061
v -1.1000 4.5500 0.0000
v -1.1439 4.5500 0.1061
v -1.2500 4.5500 0.1500
v -1.3561 4.5500 0.1061
v -1.4000 4.5500 0.0000
v -1.3561 4.5500 -0.1061
v -1.2500 4.5500 -0.1500
v -1.1439 4.5500 -0.1061
v -1.2500 0.3000 0.0000
v -1.2500 4.5500 0.0000
v 1.4000 0.3000 0.0000
v 1.3561 0.3000 0.1061
v 1.2500 0.3000 0.1500
v 1.1439 0.3000 0.1061
v 1.1000 0.3000 0.0000
v 1.1439 0.3000 -0.1061
v 1.2500 0.3000 -0.1500
v 1.3561 0.3000 -0.1061
v 1.4000 4.5500 0.0000
v 1.3561 4.5500 0.1061
v 1.2500 4.5500 0.1500
v 1.1439 4.5500 0.1061
v 1.1000 4.5500 0.0000
v 1.1439 4.5500 -0.1061
v 1.2500 4.5500 -0.1500
v 1.3561 4.5500 -0.1061
v 1.2500 0.3000 0.0000
v 1.2500 4.5500 0.0000
v -2.7000 2.6250 -0.1500
v 2.7000 2.6250 -0.1500
v 2.7000 2.8750 -0.1500
v -2.7000 2.8750 -0.1500
v -2.7000 2.6250 0.1500
v 2.7000 2.6250 0.1500
v 2.7000 2.8750 0.1500
v -2.7000 2.8750 0.1500
v -2.7000 3.6500 -0.1250
v 2.7000 3.6500 -0.1250
v 2.7000 3.8500 -0.1250
v -2.7000 3.8500 -0.1250
v -2.7000 3.6500 0.1250
v 2.7000 3.6500 0.1250
v 2.7000 3.8500 0.1250
v -2.7000 3.8500 0.1250
v -2.7000 4.4250 -0.1000
v 2.7000 4.4250 -0.1000
v 2.7000 4.5750 -0.1000
v -2.7000 4.5750 -0.1000
v -2.7000 4.4250 0.1000
v 2.7000 4.4250 0.1000
v 2.7000 4.5750 0.1000
v -2.7000 4.5750 0.1000
v -3.1000 5.1000 -1.2000
v 3.1000 5.1000 -1.2000
v 3.1000 5.1000 1.2000
v -3.1000 5.1000 1.2000
v 0.0000 6.1000 -0.6000
v 0.0000 6.1000 0.6000
v -2.9000 5.0000 -1.2000
v 2.9000 5.0000 -1.2000
v 2.9000 5.1000 -1.2000
v -2.9000 5.1000 -1.2000
v -2.9000 5.0000 1.2000
v 2.9000 5.0000 1.2000
v 2.9000 5.1000 1.2000
v -2.9000 5.1000 1.2000
v -0.4000 3.2000 -0.0300
v 0.4000 3.2000 -0.0300
v 0.4000 3.7000 -0.0300
v -0.4000 3.7000 -0.0300
v -0.4000 3.2000 0.0300
v 0.4000 3.2000 0.0300
v 0.4000 3.7000 0.0300
v -0.4000 3.7000 0.0300

f 5 6 7
f 5 7 8
f 2 1 4
f 2 4 3
f 1 5 8
f 1 8 4
f 6 2 3
f 6 3 7
f 4 8 7
f 4 7 3
f 1 2 6
f 1 6 5
f 9 10 20
f 9 20 19
f 10 11 21
f 10 21 20
f 11 12 22
f 11 22 21
f 12 13 23
f 12 23 22
f 13 14 24
f 13 24 23
f 14 15 25
f 14 25 24
f 15 16 26
f 15 26 25
f 16 17 27
f 16 27 26
f 17 18 28
f 17 28 27
f 18 9 19
f 18 19 28
f 29 10 9
f 30 19 20
f 29 11 10
f 30 20 21
f 29 12 11
f 30 21 22
f 29 13 12
f 30 22 23
f 29 14 13
f 30 23 24
f 29 15 14
f 30 24 25
f 29 16 15
f 30 25 26
f 29 17 16
f 30 26 27
f 29 18 17
f 30 27 28
f 29 9 18
f 30 28 19
f 31 32 42
f 31 42 41
f 32 33 43
f 32 43 42
f 33 34 44
f 33 44 43
f 34 35 45
f 34 45 44
f 35 36 46
f 35 46 45
f 36 37 47
f 36 47 46
f 37 38 48
f 37 48 47
f 38 39 49
f 38 49 48
f 39 40 50
f 39 50 49
f 40 31 41
f 40 41 50
f 51 32 31
f 52 41 42
f 51 33 32
f 52 42 43
f 51 34 33
f 52 43 44
f 51 35 34
f 52 44 45
f 51 36 35
f 52 45 46
f 51 37 36
f 52 46 47
f 51 38 37
f 52 47 48
f 51 39 38
f 52 48 49
f 51 40 39
f 52 49 50
f 51 31 40
f 52 50 41
f 53 54 62
f 53 62 61
f 54 55 63
f 54 63 62
f 55 56 64
f 55 64 63
f 56 57 65
f 56 65 64
f 57 58 66
f 57 66 65
f 58 59 67
f 58 67 66
f 59 60 68
f 59 68 67
f 60 53 61
f 60 61 68
f 69 54 53
f 70 61 62
f 69 55 54
f 70 62 63
f 69 56 55
f 70 63 64
f 69 57 56
f 70 64 65
f 69 58 57
f 70 65 66
f 69 59 58
f 70 66 67
f 69 60 59
f 70 67 68
f 69 53 60
f 70 68 61
f 71 72 80
f 71 80 79
f 72 73 81
f 72 81 80
f 73 74 82
f 73 82 81
f 74 75 83
f 74 83 82
f 75 76 84
f 75 84 83
f 76 77 85
f 76 85 84
f 77 78 86
f 77 86 85
f 78 71 79
f 78 79 86
f 87 72 71
f 88 79 80
f 87 73 72
f 88 80 81
f 87 74 73
f 88 81 82
f 87 75 74
f 88 82 83
f 87 76 75
f 88 83 84
f 87 77 76
f 88 84 85
f 87 78 77
f 88 85 86
f 87 71 78
f 88 86 79
f 93 94 95
f 93 95 96
f 90 89 92
f 90 92 91
f 89 93 96
f 89 96 92
f 94 90 91
f 94 91 95
f 92 96 95
f 92 95 91
f 89 90 94
f 89 94 93
f 101 102 103
f 101 103 104
f 98 97 100
f 98 100 99
f 97 101 104
f 97 104 100
f 102 98 99
f 102 99 103
f 100 104 103
f 100 103 99
f 97 98 102
f 97 102 101
f 109 110 111
f 109 111 112
f 106 105 108
f 106 108 107
f 105 109 112
f 105 112 108
f 110 106 107
f 110 107 111
f 108 112 111
f 108 111 107
f 105 106 110
f 105 110 109
f 113 114 117
f 115 116 118
f 116 113 117
f 117 118 116
f 114 115 118
f 118 117 114
f 123 124 125
f 123 125 126
f 120 119 122
f 120 122 121
f 119 123 126
f 119 126 122
f 124 120 121
f 124 121 125
f 122 126 125
f 122 125 121
f 119 120 124
f 119 124 123
f 131 132 133
f 131 133 134
f 128 127 130
f 128 130 129
f 127 131 134
f 127 134 130
f 132 128 129
f 132 129 133
f 130 134 133
f 130 133 129
f 127 128 132
f 127 132 131
