# Pagoda 宝塔
# Xiuxian Custom Model

v -1.2750 0.0000 -1.2750
v 1.2750 0.0000 -1.2750
v 1.2750 1.2000 -1.2750
v -1.2750 1.2000 -1.2750
v -1.2750 0.0000 1.2750
v 1.2750 0.0000 1.2750
v 1.2750 1.2000 1.2750
v -1.2750 1.2000 1.2750
v -1.5000 0.0000 -1.5000
v 1.5000 0.0000 -1.5000
v 1.5000 0.1000 -1.5000
v -1.5000 0.1000 -1.5000
v -1.5000 0.0000 1.5000
v 1.5000 0.0000 1.5000
v 1.5000 0.1000 1.5000
v -1.5000 0.1000 1.5000
v -1.9000 1.4500 -1.9000
v 1.9000 1.4500 -1.9000
v 1.9000 1.4500 1.9000
v -1.9000 1.4500 1.9000
v 0.0000 1.3450 -1.9000
v 1.9000 1.3450 0.0000
v 0.0000 1.3450 1.9000
v -1.9000 1.3450 0.0000
v 0.0000 1.8000 0.0000
v -1.9000 1.1750 -1.9000
v 1.9000 1.1750 -1.9000
v 1.9000 1.2250 -1.9000
v -1.9000 1.2250 -1.9000
v -1.9000 1.1750 1.9000
v 1.9000 1.1750 1.9000
v 1.9000 1.2250 1.9000
v -1.9000 1.2250 1.9000
v -1.1220 1.3500 -1.1220
v 1.1220 1.3500 -1.1220
v 1.1220 2.5500 -1.1220
v -1.1220 2.5500 -1.1220
v -1.1220 1.3500 1.1220
v 1.1220 1.3500 1.1220
v 1.1220 2.5500 1.1220
v -1.1220 2.5500 1.1220
v -1.3200 1.3500 -1.3200
v 1.3200 1.3500 -1.3200
v 1.3200 1.4500 -1.3200
v -1.3200 1.4500 -1.3200
v -1.3200 1.3500 1.3200
v 1.3200 1.3500 1.3200
v 1.3200 1.4500 1.3200
v -1.3200 1.4500 1.3200
v -1.7000 2.7820 -1.7000
v 1.7000 2.7820 -1.7000
v 1.7000 2.7820 1.7000
v -1.7000 2.7820 1.7000
v 0.0000 2.6896 -1.7000
v 1.7000 2.6896 0.0000
v 0.0000 2.6896 1.7000
v -1.7000 2.6896 0.0000
v 0.0000 3.0900 0.0000
v -1.7000 2.5250 -1.7000
v 1.7000 2.5250 -1.7000
v 1.7000 2.5750 -1.7000
v -1.7000 2.5750 -1.7000
v -1.7000 2.5250 1.7000
v 1.7000 2.5250 1.7000
v 1.7000 2.5750 1.7000
v -1.7000 2.5750 1.7000
v -0.9690 2.7000 -0.9690
v 0.9690 2.7000 -0.9690
v 0.9690 3.9000 -0.9690
v -0.9690 3.9000 -0.9690
v -0.9690 2.7000 0.9690
v 0.9690 2.7000 0.9690
v 0.9690 3.9000 0.9690
v -0.9690 3.9000 0.9690
v -1.1400 2.7000 -1.1400
v 1.1400 2.7000 -1.1400
v 1.1400 2.8000 -1.1400
v -1.1400 2.8000 -1.1400
v -1.1400 2.7000 1.1400
v 1.1400 2.7000 1.1400
v 1.1400 2.8000 1.1400
v -1.1400 2.8000 1.1400
v -1.5000 4.1140 -1.5000
v 1.5000 4.1140 -1.5000
v 1.5000 4.1140 1.5000
v -1.5000 4.1140 1.5000
v 0.0000 4.0342 -1.5000
v 1.5000 4.0342 0.0000
v 0.0000 4.0342 1.5000
v -1.5000 4.0342 0.0000
v 0.0000 4.3800 0.0000
v -1.5000 3.8750 -1.5000
v 1.5000 3.8750 -1.5000
v 1.5000 3.9250 -1.5000
v -1.5000 3.9250 -1.5000
v -1.5000 3.8750 1.5000
v 1.5000 3.8750 1.5000
v 1.5000 3.9250 1.5000
v -1.5000 3.9250 1.5000
v -0.8160 4.0500 -0.8160
v 0.8160 4.0500 -0.8160
v 0.8160 5.2500 -0.8160
v -0.8160 5.2500 -0.8160
v -0.8160 4.0500 0.8160
v 0.8160 4.0500 0.8160
v 0.8160 5.2500 0.8160
v -0.8160 5.2500 0.8160
v -0.9600 4.0500 -0.9600
v 0.9600 4.0500 -0.9600
v 0.9600 4.1500 -0.9600
v -0.9600 4.1500 -0.9600
v -0.9600 4.0500 0.9600
v 0.9600 4.0500 0.9600
v 0.9600 4.1500 0.9600
v -0.9600 4.1500 0.9600
v -1.3000 5.4460 -1.3000
v 1.3000 5.4460 -1.3000
v 1.3000 5.4460 1.3000
v -1.3000 5.4460 1.3000
v 0.0000 5.3788 -1.3000
v 1.3000 5.3788 0.0000
v 0.0000 5.3788 1.3000
v -1.3000 5.3788 0.0000
v 0.0000 5.6700 0.0000
v -1.3000 5.2250 -1.3000
v 1.3000 5.2250 -1.3000
v 1.3000 5.2750 -1.3000
v -1.3000 5.2750 -1.3000
v -1.3000 5.2250 1.3000
v 1.3000 5.2250 1.3000
v 1.3000 5.2750 1.3000
v -1.3000 5.2750 1.3000
v -0.6630 5.4000 -0.6630
v 0.6630 5.4000 -0.6630
v 0.6630 6.6000 -0.6630
v -0.6630 6.6000 -0.6630
v -0.6630 5.4000 0.6630
v 0.6630 5.4000 0.6630
v 0.6630 6.6000 0.6630
v -0.6630 6.6000 0.6630
v -0.7800 5.4000 -0.7800
v 0.7800 5.4000 -0.7800
v 0.7800 5.5000 -0.7800
v -0.7800 5.5000 -0.7800
v -0.7800 5.4000 0.7800
v 0.7800 5.4000 0.7800
v 0.7800 5.5000 0.7800
v -0.7800 5.5000 0.7800
v -1.1000 6.7780 -1.1000
v 1.1000 6.7780 -1.1000
v 1.1000 6.7780 1.1000
v -1.1000 6.7780 1.1000
v 0.0000 6.7234 -1.1000
v 1.1000 6.7234 0.0000
v 0.0000 6.7234 1.1000
v -1.1000 6.7234 0.0000
v 0.0000 6.9600 0.0000
v -1.1000 6.5750 -1.1000
v 1.1000 6.5750 -1.1000
v 1.1000 6.6250 -1.1000
v -1.1000 6.6250 -1.1000
v -1.1000 6.5750 1.1000
v 1.1000 6.5750 1.1000
v 1.1000 6.6250 1.1000
v -1.1000 6.6250 1.1000
v 0.0600 6.8500 0.0000
v 0.0424 6.8500 0.0424
v 0.0000 6.8500 0.0600
v -0.0424 6.8500 0.0424
v -0.0600 6.8500 0.0000
v -0.0424 6.8500 -0.0424
v -0.0000 6.8500 -0.0600
v 0.0424 6.8500 -0.0424
v 0.0600 7.8500 0.0000
v 0.0424 7.8500 0.0424
v 0.0000 7.8500 0.0600
v -0.0424 7.8500 0.0424
v -0.0600 7.8500 0.0000
v -0.0424 7.8500 -0.0424
v -0.0000 7.8500 -0.0600
v 0.0424 7.8500 -0.0424
v 0.0000 6.8500 0.0000
v 0.0000 7.8500 0.0000
v 0.1200 7.8500 0.0000
v 0.0849 7.8500 0.0849
v 0.0000 7.8500 0.1200
v -0.0849 7.8500 0.0849
v -0.1200 7.8500 0.0000
v -0.0849 7.8500 -0.0849
v -0.0000 7.8500 -0.1200
v 0.0849 7.8500 -0.0849
v 0.0000 8.1000 0.0000
v 0.0000 7.8500 0.0000
v 0.0800 8.1000 0.0000
v 0.0400 8.1000 0.0693
v -0.0400 8.1000 0.0693
v -0.0800 8.1000 0.0000
v -0.0400 8.1000 -0.0693
v 0.0400 8.1000 -0.0693
v 0.0800 8.2000 0.0000
v 0.0400 8.2000 0.0693
v -0.0400 8.2000 0.0693
v -0.0800 8.2000 0.0000
v -0.0400 8.2000 -0.0693
v 0.0400 8.2000 -0.0693
v 0.0000 8.1000 0.0000
v 0.0000 8.2000 0.0000

f 5 6 7
f 5 7 8
f 2 1 4
f 2 4 3
f 1 5 8
f 1 8 4
f 6 2 3
f 6 3 7
f 4 8 7
f 4 7 3
f 1 2 6
f 1 6 5
f 13 14 15
f 13 15 16
f 10 9 12
f 10 12 11
f 9 13 16
f 9 16 12
f 14 10 11
f 14 11 15
f 12 16 15
f 12 15 11
f 9 10 14
f 9 14 13
f 17 21 25
f 21 18 25
f 18 22 25
f 22 19 25
f 19 23 25
f 23 20 25
f 20 24 25
f 24 17 25
f 30 31 32
f 30 32 33
f 27 26 29
f 27 29 28
f 26 30 33
f 26 33 29
f 31 27 28
f 31 28 32
f 29 33 32
f 29 32 28
f 26 27 31
f 26 31 30
f 38 39 40
f 38 40 41
f 35 34 37
f 35 37 36
f 34 38 41
f 34 41 37
f 39 35 36
f 39 36 40
f 37 41 40
f 37 40 36
f 34 35 39
f 34 39 38
f 46 47 48
f 46 48 49
f 43 42 45
f 43 45 44
f 42 46 49
f 42 49 45
f 47 43 44
f 47 44 48
f 45 49 48
f 45 48 44
f 42 43 47
f 42 47 46
f 50 54 58
f 54 51 58
f 51 55 58
f 55 52 58
f 52 56 58
f 56 53 58
f 53 57 58
f 57 50 58
f 63 64 65
f 63 65 66
f 60 59 62
f 60 62 61
f 59 63 66
f 59 66 62
f 64 60 61
f 64 61 65
f 62 66 65
f 62 65 61
f 59 60 64
f 59 64 63
f 71 72 73
f 71 73 74
f 68 67 70
f 68 70 69
f 67 71 74
f 67 74 70
f 72 68 69
f 72 69 73
f 70 74 73
f 70 73 69
f 67 68 72
f 67 72 71
f 79 80 81
f 79 81 82
f 76 75 78
f 76 78 77
f 75 79 82
f 75 82 78
f 80 76 77
f 80 77 81
f 78 82 81
f 78 81 77
f 75 76 80
f 75 80 79
f 83 87 91
f 87 84 91
f 84 88 91
f 88 85 91
f 85 89 91
f 89 86 91
f 86 90 91
f 90 83 91
f 96 97 98
f 96 98 99
f 93 92 95
f 93 95 94
f 92 96 99
f 92 99 95
f 97 93 94
f 97 94 98
f 95 99 98
f 95 98 94
f 92 93 97
f 92 97 96
f 104 105 106
f 104 106 107
f 101 100 103
f 101 103 102
f 100 104 107
f 100 107 103
f 105 101 102
f 105 102 106
f 103 107 106
f 103 106 102
f 100 101 105
f 100 105 104
f 112 113 114
f 112 114 115
f 109 108 111
f 109 111 110
f 108 112 115
f 108 115 111
f 113 109 110
f 113 110 114
f 111 115 114
f 111 114 110
f 108 109 113
f 108 113 112
f 116 120 124
f 120 117 124
f 117 121 124
f 121 118 124
f 118 122 124
f 122 119 124
f 119 123 124
f 123 116 124
f 129 130 131
f 129 131 132
f 126 125 128
f 126 128 127
f 125 129 132
f 125 132 128
f 130 126 127
f 130 127 131
f 128 132 131
f 128 131 127
f 125 126 130
f 125 130 129
f 137 138 139
f 137 139 140
f 134 133 136
f 134 136 135
f 133 137 140
f 133 140 136
f 138 134 135
f 138 135 139
f 136 140 139
f 136 139 135
f 133 134 138
f 133 138 137
f 145 146 147
f 145 147 148
f 142 141 144
f 142 144 143
f 141 145 148
f 141 148 144
f 146 142 143
f 146 143 147
f 144 148 147
f 144 147 143
f 141 142 146
f 141 146 145
f 149 153 157
f 153 150 157
f 150 154 157
f 154 151 157
f 151 155 157
f 155 152 157
f 152 156 157
f 156 149 157
f 162 163 164
f 162 164 165
f 159 158 161
f 159 161 160
f 158 162 165
f 158 165 161
f 163 159 160
f 163 160 164
f 161 165 164
f 161 164 160
f 158 159 163
f 158 163 162
f 166 167 175
f 166 175 174
f 167 168 176
f 167 176 175
f 168 169 177
f 168 177 176
f 169 170 178
f 169 178 177
f 170 171 179
f 170 179 178
f 171 172 180
f 171 180 179
f 172 173 181
f 172 181 180
f 173 166 174
f 173 174 181
f 182 167 166
f 183 174 175
f 182 168 167
f 183 175 176
f 182 169 168
f 183 176 177
f 182 170 169
f 183 177 178
f 182 171 170
f 183 178 179
f 182 172 171
f 183 179 180
f 182 173 172
f 183 180 181
f 182 166 173
f 183 181 174
f 184 185 192
f 185 186 192
f 186 187 192
f 187 188 192
f 188 189 192
f 189 190 192
f 190 191 192
f 191 184 192
f 193 185 184
f 193 186 185
f 193 187 186
f 193 188 187
f 193 189 188
f 193 190 189
f 193 191 190
f 193 184 191
f 194 195 201
f 194 201 200
f 195 196 202
f 195 202 201
f 196 197 203
f 196 203 202
f 197 198 204
f 197 204 203
f 198 199 205
f 198 205 204
f 199 194 200
f 199 200 205
f 206 195 194
f 207 200 201
f 206 196 195
f 207 201 202
f 206 197 196
f 207 202 203
f 206 198 197
f 207 203 204
f 206 199 198
f 207 204 205
f 206 194 199
f 207 205 200
