# Scripture Library 藏经阁
# Xiuxian Custom Model

v -3.2500 0.0000 -2.7500
v 3.2500 0.0000 -2.7500
v 3.2500 0.5000 -2.7500
v -3.2500 0.5000 -2.7500
v -3.2500 0.0000 2.7500
v 3.2500 0.0000 2.7500
v 3.2500 0.5000 2.7500
v -3.2500 0.5000 2.7500
v -3.0000 0.5000 -2.5000
v 3.0000 0.5000 -2.5000
v 3.0000 0.6000 -2.5000
v -3.0000 0.6000 -2.5000
v -3.0000 0.5000 2.5000
v 3.0000 0.5000 2.5000
v 3.0000 0.6000 2.5000
v -3.0000 0.6000 2.5000
v -2.5000 0.6000 1.9000
v 2.5000 0.6000 1.9000
v 2.5000 2.8000 1.9000
v -2.5000 2.8000 1.9000
v -2.5000 0.6000 2.1000
v 2.5000 0.6000 2.1000
v 2.5000 2.8000 2.1000
v -2.5000 2.8000 2.1000
v -2.6000 0.6000 -2.0000
v -2.4000 0.6000 -2.0000
v -2.4000 2.8000 -2.0000
v -2.6000 2.8000 -2.0000
v -2.6000 0.6000 2.0000
v -2.4000 0.6000 2.0000
v -2.4000 2.8000 2.0000
v -2.6000 2.8000 2.0000
v 2.4000 0.6000 -2.0000
v 2.6000 0.6000 -2.0000
v 2.6000 2.8000 -2.0000
v 2.4000 2.8000 -2.0000
v 2.4000 0.6000 2.0000
v 2.6000 0.6000 2.0000
v 2.6000 2.8000 2.0000
v 2.4000 2.8000 2.0000
v -2.4000 0.6000 -2.1000
v -0.6000 0.6000 -2.1000
v -0.6000 2.8000 -2.1000
v -2.4000 2.8000 -2.1000
v -2.4000 0.6000 -1.9000
v -0.6000 0.6000 -1.9000
v -0.6000 2.8000 -1.9000
v -2.4000 2.8000 -1.9000
v 0.6000 0.6000 -2.1000
v 2.4000 0.6000 -2.1000
v 2.4000 2.8000 -2.1000
v 0.6000 2.8000 -2.1000
v 0.6000 0.6000 -1.9000
v 2.4000 0.6000 -1.9000
v 2.4000 2.8000 -1.9000
v 0.6000 2.8000 -1.9000
v -0.7000 2.1500 -2.1000
v 0.7000 2.1500 -2.1000
v 0.7000 2.6500 -2.1000
v -0.7000 2.6500 -2.1000
v -0.7000 2.1500 -1.9000
v 0.7000 2.1500 -1.9000
v 0.7000 2.6500 -1.9000
v -0.7000 2.6500 -1.9000
v -2.6000 2.6250 -2.1000
v 2.6000 2.6250 -2.1000
v 2.6000 2.7750 -2.1000
v -2.6000 2.7750 -2.1000
v -2.6000 2.6250 2.1000
v 2.6000 2.6250 2.1000
v 2.6000 2.7750 2.1000
v -2.6000 2.7750 2.1000
v -2.2500 2.7000 1.8000
v 2.2500 2.7000 1.8000
v 2.2500 4.2000 1.8000
v -2.2500 4.2000 1.8000
v -2.2500 2.7000 2.0000
v 2.2500 2.7000 2.0000
v 2.2500 4.2000 2.0000
v -2.2500 4.2000 2.0000
v -2.5000 2.7000 -1.8000
v -2.3000 2.7000 -1.8000
v -2.3000 4.2000 -1.8000
v -2.5000 4.2000 -1.8000
v -2.5000 2.7000 1.8000
v -2.3000 2.7000 1.8000
v -2.3000 4.2000 1.8000
v -2.5000 4.2000 1.8000
v 2.3000 2.7000 -1.8000
v 2.5000 2.7000 -1.8000
v 2.5000 4.2000 -1.8000
v 2.3000 4.2000 -1.8000
v 2.3000 2.7000 1.8000
v 2.5000 2.7000 1.8000
v 2.5000 4.2000 1.8000
v 2.3000 4.2000 1.8000
v -2.3000 3.0500 -1.9250
v 2.3000 3.0500 -1.9250
v 2.3000 3.5500 -1.9250
v -2.3000 3.5500 -1.9250
v -2.3000 3.0500 -1.8750
v 2.3000 3.0500 -1.8750
v 2.3000 3.5500 -1.8750
v -2.3000 3.5500 -1.8750
v -3.5000 4.5500 -3.0000
v 3.5000 4.5500 -3.0000
v 3.5000 4.5500 3.0000
v -3.5000 4.5500 3.0000
v 0.0000 5.9000 -1.8000
v 0.0000 5.9000 1.8000
v 0.0000 4.4000 -3.0000
v 3.5000 4.4800 0.0000
v 0.0000 4.4000 3.0000
v -3.5000 4.4800 0.0000
v -2.7500 4.3000 -2.2500
v 2.7500 4.3000 -2.2500
v 2.7500 4.4000 -2.2500
v -2.7500 4.4000 -2.2500
v -2.7500 4.3000 2.2500
v 2.7500 4.3000 2.2500
v 2.7500 4.4000 2.2500
v -2.7500 4.4000 2.2500
v -2.2500 0.5800 1.4500
v -1.7500 0.5800 1.4500
v -1.7500 0.6200 1.4500
v -2.2500 0.6200 1.4500
v -2.2500 0.5800 1.7500
v -1.7500 0.5800 1.7500
v -1.7500 0.6200 1.7500
v -2.2500 0.6200 1.7500
v -2.2500 1.1800 1.4500
v -1.7500 1.1800 1.4500
v -1.7500 1.2200 1.4500
v -2.2500 1.2200 1.4500
v -2.2500 1.1800 1.7500
v -1.7500 1.1800 1.7500
v -1.7500 1.2200 1.7500
v -2.2500 1.2200 1.7500
v -2.2500 1.7800 1.4500
v -1.7500 1.7800 1.4500
v -1.7500 1.8200 1.4500
v -2.2500 1.8200 1.4500
v -2.2500 1.7800 1.7500
v -1.7500 1.7800 1.7500
v -1.7500 1.8200 1.7500
v -2.2500 1.8200 1.7500
v 1.7500 0.5800 1.4500
v 2.2500 0.5800 1.4500
v 2.2500 0.6200 1.4500
v 1.7500 0.6200 1.4500
v 1.7500 0.5800 1.7500
v 2.2500 0.5800 1.7500
v 2.2500 0.6200 1.7500
v 1.7500 0.6200 1.7500
v 1.7500 1.1800 1.4500
v 2.2500 1.1800 1.4500
v 2.2500 1.2200 1.4500
v 1.7500 1.2200 1.4500
v 1.7500 1.1800 1.7500
v 2.2500 1.1800 1.7500
v 2.2500 1.2200 1.7500
v 1.7500 1.2200 1.7500
v 1.7500 1.7800 1.4500
v 2.2500 1.7800 1.4500
v 2.2500 1.8200 1.4500
v 1.7500 1.8200 1.4500
v 1.7500 1.7800 1.7500
v 2.2500 1.7800 1.7500
v 2.2500 1.8200 1.7500
v 1.7500 1.8200 1.7500

f 5 6 7
f 5 7 8
f 2 1 4
f 2 4 3
f 1 5 8
f 1 8 4
f 6 2 3
f 6 3 7
f 4 8 7
f 4 7 3
f 1 2 6
f 1 6 5
f 13 14 15
f 13 15 16
f 10 9 12
f 10 12 11
f 9 13 16
f 9 16 12
f 14 10 11
f 14 11 15
f 12 16 15
f 12 15 11
f 9 10 14
f 9 14 13
f 21 22 23
f 21 23 24
f 18 17 20
f 18 20 19
f 17 21 24
f 17 24 20
f 22 18 19
f 22 19 23
f 20 24 23
f 20 23 19
f 17 18 22
f 17 22 21
f 29 30 31
f 29 31 32
f 26 25 28
f 26 28 27
f 25 29 32
f 25 32 28
f 30 26 27
f 30 27 31
f 28 32 31
f 28 31 27
f 25 26 30
f 25 30 29
f 37 38 39
f 37 39 40
f 34 33 36
f 34 36 35
f 33 37 40
f 33 40 36
f 38 34 35
f 38 35 39
f 36 40 39
f 36 39 35
f 33 34 38
f 33 38 37
f 45 46 47
f 45 47 48
f 42 41 44
f 42 44 43
f 41 45 48
f 41 48 44
f 46 42 43
f 46 43 47
f 44 48 47
f 44 47 43
f 41 42 46
f 41 46 45
f 53 54 55
f 53 55 56
f 50 49 52
f 50 52 51
f 49 53 56
f 49 56 52
f 54 50 51
f 54 51 55
f 52 56 55
f 52 55 51
f 49 50 54
f 49 54 53
f 61 62 63
f 61 63 64
f 58 57 60
f 58 60 59
f 57 61 64
f 57 64 60
f 62 58 59
f 62 59 63
f 60 64 63
f 60 63 59
f 57 58 62
f 57 62 61
f 69 70 71
f 69 71 72
f 66 65 68
f 66 68 67
f 65 69 72
f 65 72 68
f 70 66 67
f 70 67 71
f 68 72 71
f 68 71 67
f 65 66 70
f 65 70 69
f 77 78 79
f 77 79 80
f 74 73 76
f 74 76 75
f 73 77 80
f 73 80 76
f 78 74 75
f 78 75 79
f 76 80 79
f 76 79 75
f 73 74 78
f 73 78 77
f 85 86 87
f 85 87 88
f 82 81 84
f 82 84 83
f 81 85 88
f 81 88 84
f 86 82 83
f 86 83 87
f 84 88 87
f 84 87 83
f 81 82 86
f 81 86 85
f 93 94 95
f 93 95 96
f 90 89 92
f 90 92 91
f 89 93 96
f 89 96 92
f 94 90 91
f 94 91 95
f 92 96 95
f 92 95 91
f 89 90 94
f 89 94 93
f 101 102 103
f 101 103 104
f 98 97 100
f 98 100 99
f 97 101 104
f 97 104 100
f 102 98 99
f 102 99 103
f 100 104 103
f 100 103 99
f 97 98 102
f 97 102 101
f 105 111 109
f 111 106 109
f 106 112 109
f 112 107 110
f 107 113 110
f 113 108 110
f 108 114 110
f 114 105 109
f 119 120 121
f 119 121 122
f 116 115 118
f 116 118 117
f 115 119 122
f 115 122 118
f 120 116 117
f 120 117 121
f 118 122 121
f 118 121 117
f 115 116 120
f 115 120 119
f 127 128 129
f 127 129 130
f 124 123 126
f 124 126 125
f 123 127 130
f 123 130 126
f 128 124 125
f 128 125 129
f 126 130 129
f 126 129 125
f 123 124 128
f 123 128 127
f 135 136 137
f 135 137 138
f 132 131 134
f 132 134 133
f 131 135 138
f 131 138 134
f 136 132 133
f 136 133 137
f 134 138 137
f 134 137 133
f 131 132 136
f 131 136 135
f 143 144 145
f 143 145 146
f 140 139 142
f 140 142 141
f 139 143 146
f 139 146 142
f 144 140 141
f 144 141 145
f 142 146 145
f 142 145 141
f 139 140 144
f 139 144 143
f 151 152 153
f 151 153 154
f 148 147 150
f 148 150 149
f 147 151 154
f 147 154 150
f 152 148 149
f 152 149 153
f 150 154 153
f 150 153 149
f 147 148 152
f 147 152 151
f 159 160 161
f 159 161 162
f 156 155 158
f 156 158 157
f 155 159 162
f 155 162 158
f 160 156 157
f 160 157 161
f 158 162 161
f 158 161 157
f 155 156 160
f 155 160 159
f 167 168 169
f 167 169 170
f 164 163 166
f 164 166 165
f 163 167 170
f 163 170 166
f 168 164 165
f 168 165 169
f 166 170 169
f 166 169 165
f 163 164 168
f 163 168 167
