# Spirit Spring Pavilion 灵泉亭
# Xiuxian Custom Model

v 0.0000 0.1500 0.0000
v 2.4000 0.1500 0.0000
v 1.2000 0.1500 2.0785
v 0.0000 0.0000 0.0000
v 2.4000 0.0000 0.0000
v 1.2000 0.0000 2.0785
v 0.0000 0.1500 0.0000
v 1.2000 0.1500 2.0785
v -1.2000 0.1500 2.0785
v 0.0000 0.0000 0.0000
v 1.2000 0.0000 2.0785
v -1.2000 0.0000 2.0785
v 0.0000 0.1500 0.0000
v -1.2000 0.1500 2.0785
v -2.4000 0.1500 0.0000
v 0.0000 0.0000 0.0000
v -1.2000 0.0000 2.0785
v -2.4000 0.0000 0.0000
v 0.0000 0.1500 0.0000
v -2.4000 0.1500 0.0000
v -1.2000 0.1500 -2.0785
v 0.0000 0.0000 0.0000
v -2.4000 0.0000 0.0000
v -1.2000 0.0000 -2.0785
v 0.0000 0.1500 0.0000
v -1.2000 0.1500 -2.0785
v 1.2000 0.1500 -2.0785
v 0.0000 0.0000 0.0000
v -1.2000 0.0000 -2.0785
v 1.2000 0.0000 -2.0785
v 0.0000 0.1500 0.0000
v 1.2000 0.1500 -2.0785
v 2.4000 0.1500 -0.0000
v 0.0000 0.0000 0.0000
v 1.2000 0.0000 -2.0785
v 2.4000 0.0000 -0.0000
v 2.1000 0.3000 0.0000
v 2.0707 0.3000 0.0707
v 2.0000 0.3000 0.1000
v 1.9293 0.3000 0.0707
v 1.9000 0.3000 0.0000
v 1.9293 0.3000 -0.0707
v 2.0000 0.3000 -0.1000
v 2.0707 0.3000 -0.0707
v 2.1000 2.5000 0.0000
v 2.0707 2.5000 0.0707
v 2.0000 2.5000 0.1000
v 1.9293 2.5000 0.0707
v 1.9000 2.5000 0.0000
v 1.9293 2.5000 -0.0707
v 2.0000 2.5000 -0.1000
v 2.0707 2.5000 -0.0707
v 2.0000 0.3000 0.0000
v 2.0000 2.5000 0.0000
v 1.1000 0.3000 1.7321
v 1.0707 0.3000 1.8028
v 1.0000 0.3000 1.8321
v 0.9293 0.3000 1.8028
v 0.9000 0.3000 1.7321
v 0.9293 0.3000 1.6613
v 1.0000 0.3000 1.6321
v 1.0707 0.3000 1.6613
v 1.1000 2.5000 1.7321
v 1.0707 2.5000 1.8028
v 1.0000 2.5000 1.8321
v 0.9293 2.5000 1.8028
v 0.9000 2.5000 1.7321
v 0.9293 2.5000 1.6613
v 1.0000 2.5000 1.6321
v 1.0707 2.5000 1.6613
v 1.0000 0.3000 1.7321
v 1.0000 2.5000 1.7321
v -0.9000 0.3000 1.7321
v -0.9293 0.3000 1.8028
v -1.0000 0.3000 1.8321
v -1.0707 0.3000 1.8028
v -1.1000 0.3000 1.7321
v -1.0707 0.3000 1.6613
v -1.0000 0.3000 1.6321
v -0.9293 0.3000 1.6613
v -0.9000 2.5000 1.7321
v -0.9293 2.5000 1.8028
v -1.0000 2.5000 1.8321
v -1.0707 2.5000 1.8028
v -1.1000 2.5000 1.7321
v -1.0707 2.5000 1.6613
v -1.0000 2.5000 1.6321
v -0.9293 2.5000 1.6613
v -1.0000 0.3000 1.7321
v -1.0000 2.5000 1.7321
v -1.9000 0.3000 0.0000
v -1.9293 0.3000 0.0707
v -2.0000 0.3000 0.1000
v -2.0707 0.3000 0.0707
v -2.1000 0.3000 0.0000
v -2.0707 0.3000 -0.0707
v -2.0000 0.3000 -0.1000
v -1.9293 0.3000 -0.0707
v -1.9000 2.5000 0.0000
v -1.9293 2.5000 0.0707
v -2.0000 2.5000 0.1000
v -2.0707 2.5000 0.0707
v -2.1000 2.5000 0.0000
v -2.0707 2.5000 -0.0707
v -2.0000 2.5000 -0.1000
v -1.9293 2.5000 -0.0707
v -2.0000 0.3000 0.0000
v -2.0000 2.5000 0.0000
v -0.9000 0.3000 -1.7321
v -0.9293 0.3000 -1.6613
v -1.0000 0.3000 -1.6321
v -1.0707 0.3000 -1.6613
v -1.1000 0.3000 -1.7321
v -1.0707 0.3000 -1.8028
v -1.0000 0.3000 -1.8321
v -0.9293 0.3000 -1.8028
v -0.9000 2.5000 -1.7321
v -0.9293 2.5000 -1.6613
v -1.0000 2.5000 -1.6321
v -1.0707 2.5000 -1.6613
v -1.1000 2.5000 -1.7321
v -1.0707 2.5000 -1.8028
v -1.0000 2.5000 -1.8321
v -0.9293 2.5000 -1.8028
v -1.0000 0.3000 -1.7321
v -1.0000 2.5000 -1.7321
v 1.1000 0.3000 -1.7321
v 1.0707 0.3000 -1.6613
v 1.0000 0.3000 -1.6321
v 0.9293 0.3000 -1.6613
v 0.9000 0.3000 -1.7321
v 0.9293 0.3000 -1.8028
v 1.0000 0.3000 -1.8321
v 1.0707 0.3000 -1.8028
v 1.1000 2.5000 -1.7321
v 1.0707 2.5000 -1.6613
v 1.0000 2.5000 -1.6321
v 0.9293 2.5000 -1.6613
v 0.9000 2.5000 -1.7321
v 0.9293 2.5000 -1.8028
v 1.0000 2.5000 -1.8321
v 1.0707 2.5000 -1.8028
v 1.0000 0.3000 -1.7321
v 1.0000 2.5000 -1.7321
v 1.2000 0.1000 0.0000
v 1.0392 0.1000 0.6000
v 0.6000 0.1000 1.0392
v 0.0000 0.1000 1.2000
v -0.6000 0.1000 1.0392
v -1.0392 0.1000 0.6000
v -1.2000 0.1000 0.0000
v -1.0392 0.1000 -0.6000
v -0.6000 0.1000 -1.0392
v -0.0000 0.1000 -1.2000
v 0.6000 0.1000 -1.0392
v 1.0392 0.1000 -0.6000
v 1.2000 0.2000 0.0000
v 1.0392 0.2000 0.6000
v 0.6000 0.2000 1.0392
v 0.0000 0.2000 1.2000
v -0.6000 0.2000 1.0392
v -1.0392 0.2000 0.6000
v -1.2000 0.2000 0.0000
v -1.0392 0.2000 -0.6000
v -0.6000 0.2000 -1.0392
v -0.0000 0.2000 -1.2000
v 0.6000 0.2000 -1.0392
v 1.0392 0.2000 -0.6000
v 0.0000 0.1000 0.0000
v 0.0000 0.2000 0.0000
v 0.0000 4.0000 0.0000
v 2.2000 2.5000 0.0000
v 1.9053 2.6500 1.1000
v 1.1000 2.5000 1.9053
v 0.0000 2.6500 2.2000
v -1.1000 2.5000 1.9053
v -1.9053 2.6500 1.1000
v -2.2000 2.5000 0.0000
v -1.9053 2.6500 -1.1000
v -1.1000 2.5000 -1.9053
v -0.0000 2.6500 -2.2000
v 1.1000 2.5000 -1.9053
v 1.9053 2.6500 -1.1000
v 1.9000 2.4500 0.0000
v 0.9500 2.4500 1.6454
v -0.9500 2.4500 1.6454
v -1.9000 2.4500 0.0000
v -0.9500 2.4500 -1.6454
v 0.9500 2.4500 -1.6454
v 1.9000 2.5300 0.0000
v 0.9500 2.5300 1.6454
v -0.9500 2.5300 1.6454
v -1.9000 2.5300 0.0000
v -0.9500 2.5300 -1.6454
v 0.9500 2.5300 -1.6454
v 0.0000 2.4500 0.0000
v 0.0000 2.5300 0.0000
v 0.0500 4.0000 0.0000
v 0.0250 4.0000 0.0433
v -0.0250 4.0000 0.0433
v -0.0500 4.0000 0.0000
v -0.0250 4.0000 -0.0433
v 0.0250 4.0000 -0.0433
v 0.0500 4.3000 0.0000
v 0.0250 4.3000 0.0433
v -0.0250 4.3000 0.0433
v -0.0500 4.3000 0.0000
v -0.0250 4.3000 -0.0433
v 0.0250 4.3000 -0.0433
v 0.0000 4.0000 0.0000
v 0.0000 4.3000 0.0000
v 0.0800 4.3000 0.0000
v 0.0400 4.3000 0.0693
v -0.0400 4.3000 0.0693
v -0.0800 4.3000 0.0000
v -0.0400 4.3000 -0.0693
v 0.0400 4.3000 -0.0693
v 0.0000 4.4500 0.0000
v 0.0000 4.3000 0.0000

f 1 2 3
f 6 5 4
f 2 5 6
f 2 6 3
f 7 8 9
f 12 11 10
f 8 11 12
f 8 12 9
f 13 14 15
f 18 17 16
f 14 17 18
f 14 18 15
f 19 20 21
f 24 23 22
f 20 23 24
f 20 24 21
f 25 26 27
f 30 29 28
f 26 29 30
f 26 30 27
f 31 32 33
f 36 35 34
f 32 35 36
f 32 36 33
f 37 38 46
f 37 46 45
f 38 39 47
f 38 47 46
f 39 40 48
f 39 48 47
f 40 41 49
f 40 49 48
f 41 42 50
f 41 50 49
f 42 43 51
f 42 51 50
f 43 44 52
f 43 52 51
f 44 37 45
f 44 45 52
f 53 38 37
f 54 45 46
f 53 39 38
f 54 46 47
f 53 40 39
f 54 47 48
f 53 41 40
f 54 48 49
f 53 42 41
f 54 49 50
f 53 43 42
f 54 50 51
f 53 44 43
f 54 51 52
f 53 37 44
f 54 52 45
f 55 56 64
f 55 64 63
f 56 57 65
f 56 65 64
f 57 58 66
f 57 66 65
f 58 59 67
f 58 67 66
f 59 60 68
f 59 68 67
f 60 61 69
f 60 69 68
f 61 62 70
f 61 70 69
f 62 55 63
f 62 63 70
f 71 56 55
f 72 63 64
f 71 57 56
f 72 64 65
f 71 58 57
f 72 65 66
f 71 59 58
f 72 66 67
f 71 60 59
f 72 67 68
f 71 61 60
f 72 68 69
f 71 62 61
f 72 69 70
f 71 55 62
f 72 70 63
f 73 74 82
f 73 82 81
f 74 75 83
f 74 83 82
f 75 76 84
f 75 84 83
f 76 77 85
f 76 85 84
f 77 78 86
f 77 86 85
f 78 79 87
f 78 87 86
f 79 80 88
f 79 88 87
f 80 73 81
f 80 81 88
f 89 74 73
f 90 81 82
f 89 75 74
f 90 82 83
f 89 76 75
f 90 83 84
f 89 77 76
f 90 84 85
f 89 78 77
f 90 85 86
f 89 79 78
f 90 86 87
f 89 80 79
f 90 87 88
f 89 73 80
f 90 88 81
f 91 92 100
f 91 100 99
f 92 93 101
f 92 101 100
f 93 94 102
f 93 102 101
f 94 95 103
f 94 103 102
f 95 96 104
f 95 104 103
f 96 97 105
f 96 105 104
f 97 98 106
f 97 106 105
f 98 91 99
f 98 99 106
f 107 92 91
f 108 99 100
f 107 93 92
f 108 100 101
f 107 94 93
f 108 101 102
f 107 95 94
f 108 102 103
f 107 96 95
f 108 103 104
f 107 97 96
f 108 104 105
f 107 98 97
f 108 105 106
f 107 91 98
f 108 106 99
f 109 110 118
f 109 118 117
f 110 111 119
f 110 119 118
f 111 112 120
f 111 120 119
f 112 113 121
f 112 121 120
f 113 114 122
f 113 122 121
f 114 115 123
f 114 123 122
f 115 116 124
f 115 124 123
f 116 109 117
f 116 117 124
f 125 110 109
f 126 117 118
f 125 111 110
f 126 118 119
f 125 112 111
f 126 119 120
f 125 113 112
f 126 120 121
f 125 114 113
f 126 121 122
f 125 115 114
f 126 122 123
f 125 116 115
f 126 123 124
f 125 109 116
f 126 124 117
f 127 128 136
f 127 136 135
f 128 129 137
f 128 137 136
f 129 130 138
f 129 138 137
f 130 131 139
f 130 139 138
f 131 132 140
f 131 140 139
f 132 133 141
f 132 141 140
f 133 134 142
f 133 142 141
f 134 127 135
f 134 135 142
f 143 128 127
f 144 135 136
f 143 129 128
f 144 136 137
f 143 130 129
f 144 137 138
f 143 131 130
f 144 138 139
f 143 132 131
f 144 139 140
f 143 133 132
f 144 140 141
f 143 134 133
f 144 141 142
f 143 127 134
f 144 142 135
f 145 146 158
f 145 158 157
f 146 147 159
f 146 159 158
f 147 148 160
f 147 160 159
f 148 149 161
f 148 161 160
f 149 150 162
f 149 162 161
f 150 151 163
f 150 163 162
f 151 152 164
f 151 164 163
f 152 153 165
f 152 165 164
f 153 154 166
f 153 166 165
f 154 155 167
f 154 167 166
f 155 156 168
f 155 168 167
f 156 145 157
f 156 157 168
f 169 146 145
f 170 157 158
f 169 147 146
f 170 158 159
f 169 148 147
f 170 159 160
f 169 149 148
f 170 160 161
f 169 150 149
f 170 161 162
f 169 151 150
f 170 162 163
f 169 152 151
f 170 163 164
f 169 153 152
f 170 164 165
f 169 154 153
f 170 165 166
f 169 155 154
f 170 166 167
f 169 156 155
f 170 167 168
f 169 145 156
f 170 168 157
f 172 173 171
f 173 174 171
f 174 175 171
f 175 176 171
f 176 177 171
f 177 178 171
f 178 179 171
f 179 180 171
f 180 181 171
f 181 182 171
f 182 183 171
f 183 172 171
f 184 185 191
f 184 191 190
f 185 186 192
f 185 192 191
f 186 187 193
f 186 193 192
f 187 188 194
f 187 194 193
f 188 189 195
f 188 195 194
f 189 184 190
f 189 190 195
f 196 185 184
f 197 190 191
f 196 186 185
f 197 191 192
f 196 187 186
f 197 192 193
f 196 188 187
f 197 193 194
f 196 189 188
f 197 194 195
f 196 184 189
f 197 195 190
f 198 199 205
f 198 205 204
f 199 200 206
f 199 206 205
f 200 201 207
f 200 207 206
f 201 202 208
f 201 208 207
f 202 203 209
f 202 209 208
f 203 198 204
f 203 204 209
f 210 199 198
f 211 204 205
f 210 200 199
f 211 205 206
f 210 201 200
f 211 206 207
f 210 202 201
f 211 207 208
f 210 203 202
f 211 208 209
f 210 198 203
f 211 209 204
f 212 213 218
f 213 214 218
f 214 215 218
f 215 216 218
f 216 217 218
f 217 212 218
f 219 213 212
f 219 214 213
f 219 215 214
f 219 216 215
f 219 217 216
f 219 212 217
