# Taoist Temple 道观
# Xiuxian Custom Model

v -3.7500 0.0000 -2.7500
v 3.7500 0.0000 -2.7500
v 3.7500 0.3000 -2.7500
v -3.7500 0.3000 -2.7500
v -3.7500 0.0000 2.7500
v 3.7500 0.0000 2.7500
v 3.7500 0.3000 2.7500
v -3.7500 0.3000 2.7500
v -3.5000 0.3000 -2.5000
v 3.5000 0.3000 -2.5000
v 3.5000 0.4000 -2.5000
v -3.5000 0.4000 -2.5000
v -3.5000 0.3000 2.5000
v 3.5000 0.3000 2.5000
v 3.5000 0.4000 2.5000
v -3.5000 0.4000 2.5000
v -1.0500 0.0000 -2.7500
v 1.0500 0.0000 -2.7500
v 1.0500 0.1000 -2.7500
v -1.0500 0.1000 -2.7500
v -1.0500 0.0000 -2.2500
v 1.0500 0.0000 -2.2500
v 1.0500 0.1000 -2.2500
v -1.0500 0.1000 -2.2500
v -1.0500 0.1000 -3.2500
v 1.0500 0.1000 -3.2500
v 1.0500 0.2000 -3.2500
v -1.0500 0.2000 -3.2500
v -1.0500 0.1000 -2.7500
v 1.0500 0.1000 -2.7500
v 1.0500 0.2000 -2.7500
v -1.0500 0.2000 -2.7500
v -1.0500 0.2000 -3.7500
v 1.0500 0.2000 -3.7500
v 1.0500 0.3000 -3.7500
v -1.0500 0.3000 -3.7500
v -1.0500 0.2000 -3.2500
v 1.0500 0.2000 -3.2500
v 1.0500 0.3000 -3.2500
v -1.0500 0.3000 -3.2500
v -3.0000 0.4000 1.7000
v 3.0000 0.4000 1.7000
v 3.0000 2.9000 1.7000
v -3.0000 2.9000 1.7000
v -3.0000 0.4000 2.0000
v 3.0000 0.4000 2.0000
v 3.0000 2.9000 2.0000
v -3.0000 2.9000 2.0000
v -3.0000 0.4000 -1.7000
v -2.7000 0.4000 -1.7000
v -2.7000 2.9000 -1.7000
v -3.0000 2.9000 -1.7000
v -3.0000 0.4000 1.7000
v -2.7000 0.4000 1.7000
v -2.7000 2.9000 1.7000
v -3.0000 2.9000 1.7000
v 2.7000 0.4000 -1.7000
v 3.0000 0.4000 -1.7000
v 3.0000 2.9000 -1.7000
v 2.7000 2.9000 -1.7000
v 2.7000 0.4000 1.7000
v 3.0000 0.4000 1.7000
v 3.0000 2.9000 1.7000
v 2.7000 2.9000 1.7000
v -2.8000 0.4000 -2.0000
v -0.6000 0.4000 -2.0000
v -0.6000 2.9000 -2.0000
v -2.8000 2.9000 -2.0000
v -2.8000 0.4000 -1.7000
v -0.6000 0.4000 -1.7000
v -0.6000 2.9000 -1.7000
v -2.8000 2.9000 -1.7000
v 0.6000 0.4000 -2.0000
v 2.8000 0.4000 -2.0000
v 2.8000 2.9000 -2.0000
v 0.6000 2.9000 -2.0000
v 0.6000 0.4000 -1.7000
v 2.8000 0.4000 -1.7000
v 2.8000 2.9000 -1.7000
v 0.6000 2.9000 -1.7000
v -0.8000 2.4000 -2.0000
v 0.8000 2.4000 -2.0000
v 0.8000 2.9000 -2.0000
v -0.8000 2.9000 -2.0000
v -0.8000 2.4000 -1.7000
v 0.8000 2.4000 -1.7000
v 0.8000 2.9000 -1.7000
v -0.8000 2.9000 -1.7000
v -2.4800 0.4000 -1.5000
v -2.5151 0.4000 -1.4151
v -2.6000 0.4000 -1.3800
v -2.6849 0.4000 -1.4151
v -2.7200 0.4000 -1.5000
v -2.6849 0.4000 -1.5849
v -2.6000 0.4000 -1.6200
v -2.5151 0.4000 -1.5849
v -2.4800 2.9000 -1.5000
v -2.5151 2.9000 -1.4151
v -2.6000 2.9000 -1.3800
v -2.6849 2.9000 -1.4151
v -2.7200 2.9000 -1.5000
v -2.6849 2.9000 -1.5849
v -2.6000 2.9000 -1.6200
v -2.5151 2.9000 -1.5849
v -2.6000 0.4000 -1.5000
v -2.6000 2.9000 -1.5000
v -2.4800 0.4000 1.5000
v -2.5151 0.4000 1.5849
v -2.6000 0.4000 1.6200
v -2.6849 0.4000 1.5849
v -2.7200 0.4000 1.5000
v -2.6849 0.4000 1.4151
v -2.6000 0.4000 1.3800
v -2.5151 0.4000 1.4151
v -2.4800 2.9000 1.5000
v -2.5151 2.9000 1.5849
v -2.6000 2.9000 1.6200
v -2.6849 2.9000 1.5849
v -2.7200 2.9000 1.5000
v -2.6849 2.9000 1.4151
v -2.6000 2.9000 1.3800
v -2.5151 2.9000 1.4151
v -2.6000 0.4000 1.5000
v -2.6000 2.9000 1.5000
v -1.3800 0.4000 -1.5000
v -1.4151 0.4000 -1.4151
v -1.5000 0.4000 -1.3800
v -1.5849 0.4000 -1.4151
v -1.6200 0.4000 -1.5000
v -1.5849 0.4000 -1.5849
v -1.5000 0.4000 -1.6200
v -1.4151 0.4000 -1.5849
v -1.3800 2.9000 -1.5000
v -1.4151 2.9000 -1.4151
v -1.5000 2.9000 -1.3800
v -1.5849 2.9000 -1.4151
v -1.6200 2.9000 -1.5000
v -1.5849 2.9000 -1.5849
v -1.5000 2.9000 -1.6200
v -1.4151 2.9000 -1.5849
v -1.5000 0.4000 -1.5000
v -1.5000 2.9000 -1.5000
v -1.3800 0.4000 1.5000
v -1.4151 0.4000 1.5849
v -1.5000 0.4000 1.6200
v -1.5849 0.4000 1.5849
v -1.6200 0.4000 1.5000
v -1.5849 0.4000 1.4151
v -1.5000 0.4000 1.3800
v -1.4151 0.4000 1.4151
v -1.3800 2.9000 1.5000
v -1.4151 2.9000 1.5849
v -1.5000 2.9000 1.6200
v -1.5849 2.9000 1.5849
v -1.6200 2.9000 1.5000
v -1.5849 2.9000 1.4151
v -1.5000 2.9000 1.3800
v -1.4151 2.9000 1.4151
v -1.5000 0.4000 1.5000
v -1.5000 2.9000 1.5000
v 1.6200 0.4000 -1.5000
v 1.5849 0.4000 -1.4151
v 1.5000 0.4000 -1.3800
v 1.4151 0.4000 -1.4151
v 1.3800 0.4000 -1.5000
v 1.4151 0.4000 -1.5849
v 1.5000 0.4000 -1.6200
v 1.5849 0.4000 -1.5849
v 1.6200 2.9000 -1.5000
v 1.5849 2.9000 -1.4151
v 1.5000 2.9000 -1.3800
v 1.4151 2.9000 -1.4151
v 1.3800 2.9000 -1.5000
v 1.4151 2.9000 -1.5849
v 1.5000 2.9000 -1.6200
v 1.5849 2.9000 -1.5849
v 1.5000 0.4000 -1.5000
v 1.5000 2.9000 -1.5000
v 1.6200 0.4000 1.5000
v 1.5849 0.4000 1.5849
v 1.5000 0.4000 1.6200
v 1.4151 0.4000 1.5849
v 1.3800 0.4000 1.5000
v 1.4151 0.4000 1.4151
v 1.5000 0.4000 1.3800
v 1.5849 0.4000 1.4151
v 1.6200 2.9000 1.5000
v 1.5849 2.9000 1.5849
v 1.5000 2.9000 1.6200
v 1.4151 2.9000 1.5849
v 1.3800 2.9000 1.5000
v 1.4151 2.9000 1.4151
v 1.5000 2.9000 1.3800
v 1.5849 2.9000 1.4151
v 1.5000 0.4000 1.5000
v 1.5000 2.9000 1.5000
v 2.7200 0.4000 -1.5000
v 2.6849 0.4000 -1.4151
v 2.6000 0.4000 -1.3800
v 2.5151 0.4000 -1.4151
v 2.4800 0.4000 -1.5000
v 2.5151 0.4000 -1.5849
v 2.6000 0.4000 -1.6200
v 2.6849 0.4000 -1.5849
v 2.7200 2.9000 -1.5000
v 2.6849 2.9000 -1.4151
v 2.6000 2.9000 -1.3800
v 2.5151 2.9000 -1.4151
v 2.4800 2.9000 -1.5000
v 2.5151 2.9000 -1.5849
v 2.6000 2.9000 -1.6200
v 2.6849 2.9000 -1.5849
v 2.6000 0.4000 -1.5000
v 2.6000 2.9000 -1.5000
v 2.7200 0.4000 1.5000
v 2.6849 0.4000 1.5849
v 2.6000 0.4000 1.6200
v 2.5151 0.4000 1.5849
v 2.4800 0.4000 1.5000
v 2.5151 0.4000 1.4151
v 2.6000 0.4000 1.3800
v 2.6849 0.4000 1.4151
v 2.7200 2.9000 1.5000
v 2.6849 2.9000 1.5849
v 2.6000 2.9000 1.6200
v 2.5151 2.9000 1.5849
v 2.4800 2.9000 1.5000
v 2.5151 2.9000 1.4151
v 2.6000 2.9000 1.3800
v 2.6849 2.9000 1.4151
v 2.6000 0.4000 1.5000
v 2.6000 2.9000 1.5000
v -3.9000 3.0500 -2.9000
v 3.9000 3.0500 -2.9000
v 3.9000 3.0500 2.9000
v -3.9000 3.0500 2.9000
v 0.0000 4.3000 -2.0300
v 0.0000 4.3000 2.0300
v 0.0000 2.9000 -2.9000
v 3.9000 2.9800 0.0000
v 0.0000 2.9000 2.9000
v -3.9000 2.9800 0.0000
v -3.2500 2.8000 -2.2500
v 3.2500 2.8000 -2.2500
v 3.2500 2.9000 -2.2500
v -3.2500 2.9000 -2.2500
v -3.2500 2.8000 2.2500
v 3.2500 2.8000 2.2500
v 3.2500 2.9000 2.2500
v -3.2500 2.9000 2.2500
v -0.4000 2.2000 -2.0750
v 0.4000 2.2000 -2.0750
v 0.4000 2.6000 -2.0750
v -0.4000 2.6000 -2.0750
v -0.4000 2.2000 -2.0250
v 0.4000 2.2000 -2.0250
v 0.4000 2.6000 -2.0250
v -0.4000 2.6000 -2.0250
v 0.2000 0.4000 -3.5000
v 0.1414 0.4000 -3.3586
v 0.0000 0.4000 -3.3000
v -0.1414 0.4000 -3.3586
v -0.2000 0.4000 -3.5000
v -0.1414 0.4000 -3.6414
v -0.0000 0.4000 -3.7000
v 0.1414 0.4000 -3.6414
v 0.2000 0.9000 -3.5000
v 0.1414 0.9000 -3.3586
v 0.0000 0.9000 -3.3000
v -0.1414 0.9000 -3.3586
v -0.2000 0.9000 -3.5000
v -0.1414 0.9000 -3.6414
v -0.0000 0.9000 -3.7000
v 0.1414 0.9000 -3.6414
v 0.0000 0.4000 -3.5000
v 0.0000 0.9000 -3.5000
v 0.2500 0.9000 -3.5000
v 0.1768 0.9000 -3.3232
v 0.0000 0.9000 -3.2500
v -0.1768 0.9000 -3.3232
v -0.2500 0.9000 -3.5000
v -0.1768 0.9000 -3.6768
v -0.0000 0.9000 -3.7500
v 0.1768 0.9000 -3.6768
v 0.2500 0.9800 -3.5000
v 0.1768 0.9800 -3.3232
v 0.0000 0.9800 -3.2500
v -0.1768 0.9800 -3.3232
v -0.2500 0.9800 -3.5000
v -0.1768 0.9800 -3.6768
v -0.0000 0.9800 -3.7500
v 0.1768 0.9800 -3.6768
v 0.0000 0.9000 -3.5000
v 0.0000 0.9800 -3.5000

f 5 6 7
f 5 7 8
f 2 1 4
f 2 4 3
f 1 5 8
f 1 8 4
f 6 2 3
f 6 3 7
f 4 8 7
f 4 7 3
f 1 2 6
f 1 6 5
f 13 14 15
f 13 15 16
f 10 9 12
f 10 12 11
f 9 13 16
f 9 16 12
f 14 10 11
f 14 11 15
f 12 16 15
f 12 15 11
f 9 10 14
f 9 14 13
f 21 22 23
f 21 23 24
f 18 17 20
f 18 20 19
f 17 21 24
f 17 24 20
f 22 18 19
f 22 19 23
f 20 24 23
f 20 23 19
f 17 18 22
f 17 22 21
f 29 30 31
f 29 31 32
f 26 25 28
f 26 28 27
f 25 29 32
f 25 32 28
f 30 26 27
f 30 27 31
f 28 32 31
f 28 31 27
f 25 26 30
f 25 30 29
f 37 38 39
f 37 39 40
f 34 33 36
f 34 36 35
f 33 37 40
f 33 40 36
f 38 34 35
f 38 35 39
f 36 40 39
f 36 39 35
f 33 34 38
f 33 38 37
f 45 46 47
f 45 47 48
f 42 41 44
f 42 44 43
f 41 45 48
f 41 48 44
f 46 42 43
f 46 43 47
f 44 48 47
f 44 47 43
f 41 42 46
f 41 46 45
f 53 54 55
f 53 55 56
f 50 49 52
f 50 52 51
f 49 53 56
f 49 56 52
f 54 50 51
f 54 51 55
f 52 56 55
f 52 55 51
f 49 50 54
f 49 54 53
f 61 62 63
f 61 63 64
f 58 57 60
f 58 60 59
f 57 61 64
f 57 64 60
f 62 58 59
f 62 59 63
f 60 64 63
f 60 63 59
f 57 58 62
f 57 62 61
f 69 70 71
f 69 71 72
f 66 65 68
f 66 68 67
f 65 69 72
f 65 72 68
f 70 66 67
f 70 67 71
f 68 72 71
f 68 71 67
f 65 66 70
f 65 70 69
f 77 78 79
f 77 79 80
f 74 73 76
f 74 76 75
f 73 77 80
f 73 80 76
f 78 74 75
f 78 75 79
f 76 80 79
f 76 79 75
f 73 74 78
f 73 78 77
f 85 86 87
f 85 87 88
f 82 81 84
f 82 84 83
f 81 85 88
f 81 88 84
f 86 82 83
f 86 83 87
f 84 88 87
f 84 87 83
f 81 82 86
f 81 86 85
f 89 90 98
f 89 98 97
f 90 91 99
f 90 99 98
f 91 92 100
f 91 100 99
f 92 93 101
f 92 101 100
f 93 94 102
f 93 102 101
f 94 95 103
f 94 103 102
f 95 96 104
f 95 104 103
f 96 89 97
f 96 97 104
f 105 90 89
f 106 97 98
f 105 91 90
f 106 98 99
f 105 92 91
f 106 99 100
f 105 93 92
f 106 100 101
f 105 94 93
f 106 101 102
f 105 95 94
f 106 102 103
f 105 96 95
f 106 103 104
f 105 89 96
f 106 104 97
f 107 108 116
f 107 116 115
f 108 109 117
f 108 117 116
f 109 110 118
f 109 118 117
f 110 111 119
f 110 119 118
f 111 112 120
f 111 120 119
f 112 113 121
f 112 121 120
f 113 114 122
f 113 122 121
f 114 107 115
f 114 115 122
f 123 108 107
f 124 115 116
f 123 109 108
f 124 116 117
f 123 110 109
f 124 117 118
f 123 111 110
f 124 118 119
f 123 112 111
f 124 119 120
f 123 113 112
f 124 120 121
f 123 114 113
f 124 121 122
f 123 107 114
f 124 122 115
f 125 126 134
f 125 134 133
f 126 127 135
f 126 135 134
f 127 128 136
f 127 136 135
f 128 129 137
f 128 137 136
f 129 130 138
f 129 138 137
f 130 131 139
f 130 139 138
f 131 132 140
f 131 140 139
f 132 125 133
f 132 133 140
f 141 126 125
f 142 133 134
f 141 127 126
f 142 134 135
f 141 128 127
f 142 135 136
f 141 129 128
f 142 136 137
f 141 130 129
f 142 137 138
f 141 131 130
f 142 138 139
f 141 132 131
f 142 139 140
f 141 125 132
f 142 140 133
f 143 144 152
f 143 152 151
f 144 145 153
f 144 153 152
f 145 146 154
f 145 154 153
f 146 147 155
f 146 155 154
f 147 148 156
f 147 156 155
f 148 149 157
f 148 157 156
f 149 150 158
f 149 158 157
f 150 143 151
f 150 151 158
f 159 144 143
f 160 151 152
f 159 145 144
f 160 152 153
f 159 146 145
f 160 153 154
f 159 147 146
f 160 154 155
f 159 148 147
f 160 155 156
f 159 149 148
f 160 156 157
f 159 150 149
f 160 157 158
f 159 143 150
f 160 158 151
f 161 162 170
f 161 170 169
f 162 163 171
f 162 171 170
f 163 164 172
f 163 172 171
f 164 165 173
f 164 173 172
f 165 166 174
f 165 174 173
f 166 167 175
f 166 175 174
f 167 168 176
f 167 176 175
f 168 161 169
f 168 169 176
f 177 162 161
f 178 169 170
f 177 163 162
f 178 170 171
f 177 164 163
f 178 171 172
f 177 165 164
f 178 172 173
f 177 166 165
f 178 173 174
f 177 167 166
f 178 174 175
f 177 168 167
f 178 175 176
f 177 161 168
f 178 176 169
f 179 180 188
f 179 188 187
f 180 181 189
f 180 189 188
f 181 182 190
f 181 190 189
f 182 183 191
f 182 191 190
f 183 184 192
f 183 192 191
f 184 185 193
f 184 193 192
f 185 186 194
f 185 194 193
f 186 179 187
f 186 187 194
f 195 180 179
f 196 187 188
f 195 181 180
f 196 188 189
f 195 182 181
f 196 189 190
f 195 183 182
f 196 190 191
f 195 184 183
f 196 191 192
f 195 185 184
f 196 192 193
f 195 186 185
f 196 193 194
f 195 179 186
f 196 194 187
f 197 198 206
f 197 206 205
f 198 199 207
f 198 207 206
f 199 200 208
f 199 208 207
f 200 201 209
f 200 209 208
f 201 202 210
f 201 210 209
f 202 203 211
f 202 211 210
f 203 204 212
f 203 212 211
f 204 197 205
f 204 205 212
f 213 198 197
f 214 205 206
f 213 199 198
f 214 206 207
f 213 200 199
f 214 207 208
f 213 201 200
f 214 208 209
f 213 202 201
f 214 209 210
f 213 203 202
f 214 210 211
f 213 204 203
f 214 211 212
f 213 197 204
f 214 212 205
f 215 216 224
f 215 224 223
f 216 217 225
f 216 225 224
f 217 218 226
f 217 226 225
f 218 219 227
f 218 227 226
f 219 220 228
f 219 228 227
f 220 221 229
f 220 229 228
f 221 222 230
f 221 230 229
f 222 215 223
f 222 223 230
f 231 216 215
f 232 223 224
f 231 217 216
f 232 224 225
f 231 218 217
f 232 225 226
f 231 219 218
f 232 226 227
f 231 220 219
f 232 227 228
f 231 221 220
f 232 228 229
f 231 222 221
f 232 229 230
f 231 215 222
f 232 230 223
f 233 239 237
f 239 234 237
f 234 240 237
f 240 235 238
f 235 241 238
f 241 236 238
f 236 242 238
f 242 233 237
f 247 248 249
f 247 249 250
f 244 243 246
f 244 246 245
f 243 247 250
f 243 250 246
f 248 244 245
f 248 245 249
f 246 250 249
f 246 249 245
f 243 244 248
f 243 248 247
f 255 256 257
f 255 257 258
f 252 251 254
f 252 254 253
f 251 255 258
f 251 258 254
f 256 252 253
f 256 253 257
f 254 258 257
f 254 257 253
f 251 252 256
f 251 256 255
f 259 260 268
f 259 268 267
f 260 261 269
f 260 269 268
f 261 262 270
f 261 270 269
f 262 263 271
f 262 271 270
f 263 264 272
f 263 272 271
f 264 265 273
f 264 273 272
f 265 266 274
f 265 274 273
f 266 259 267
f 266 267 274
f 275 260 259
f 276 267 268
f 275 261 260
f 276 268 269
f 275 262 261
f 276 269 270
f 275 263 262
f 276 270 271
f 275 264 263
f 276 271 272
f 275 265 264
f 276 272 273
f 275 266 265
f 276 273 274
f 275 259 266
f 276 274 267
f 277 278 286
f 277 286 285
f 278 279 287
f 278 287 286
f 279 280 288
f 279 288 287
f 280 281 289
f 280 289 288
f 281 282 290
f 281 290 289
f 282 283 291
f 282 291 290
f 283 284 292
f 283 292 291
f 284 277 285
f 284 285 292
f 293 278 277
f 294 285 286
f 293 279 278
f 294 286 287
f 293 280 279
f 294 287 288
f 293 281 280
f 294 288 289
f 293 282 281
f 294 289 290
f 293 283 282
f 294 290 291
f 293 284 283
f 294 291 292
f 293 277 284
f 294 292 285
